<?xml version="1.0" encoding="UTF-8" standalone="no"?>
<!DOCTYPE svg PUBLIC "-//W3C//DTD SVG 1.1//EN" "http://www.w3.org/Graphics/SVG/1.1/DTD/svg11.dtd">
<svg width="1118px" height="1118px" version="1.1" xmlns="http://www.w3.org/2000/svg" xmlns:xlink="http://www.w3.org/1999/xlink" xml:space="preserve" xmlns:serif="http://www.serif.com/" style="fill-rule:evenodd;clip-rule:evenodd;stroke-linecap:round;stroke-linejoin:round;stroke-miterlimit:1.5;">
    <g id="Design-Template" serif:id="Design Template">
        <rect x="0.283" y="0.866" width="1116.85" height="1116.85" style="fill:#f6921e;fill-rule:nonzero;"/>
        <rect x="14.457" y="15.04" width="1088.5" height="1088.5" style="fill:#fff;fill-rule:nonzero;"/>
    </g>
    <g id="DELETE-before-uploading" serif:id="DELETE before uploading">
    </g>
    <g id="Add-your-design-to-this-layer" serif:id="Add your design to this layer">
        <path id="Bottom-Right" serif:id="Bottom Right" d="M1021.71,347.228l-11.346,0c-0.004,31.183 -0.01,61.087 -0.01,73.329c0,13.859 -8.628,18.289 -23.328,20.515c-158.017,23.929 -319.641,52.022 -390.524,52.022l0,11.415c72.826,0 238.881,-30.553 401.23,-56.576c15.103,-2.421 23.967,-7.239 23.967,-22.311c0,-13.136 0.006,-44.972 0.011,-78.394l0,0Z" style="fill:none;"/>
        <clipPath id="_clip1">
            <path d="M1021.71,347.228l-11.346,0c-0.004,31.183 -0.01,61.087 -0.01,73.329c0,13.859 -8.628,18.289 -23.328,20.515c-158.017,23.929 -319.641,52.022 -390.524,52.022l0,11.415c72.826,0 238.881,-30.553 401.23,-56.576c15.103,-2.421 23.967,-7.239 23.967,-22.311c0,-13.136 0.006,-44.972 0.011,-78.394l0,0Z"/>
        </clipPath>
        <g clip-path="url(#_clip1)">
            <circle cx="633.912" cy="497.145" r="3.118" style="fill:none;stroke:#000;stroke-width:0.3px;"/>
            <circle cx="1016.08" cy="374.412" r="3.118" style="fill:none;stroke:#000;stroke-width:0.3px;"/>
            <circle cx="1013.4" cy="433.625" r="3.118" style="fill:none;stroke:#000;stroke-width:0.3px;"/>
        </g>
        <path d="M1021.71,347.228l-11.346,0c-0.004,31.183 -0.01,61.087 -0.01,73.329c0,13.859 -8.628,18.289 -23.328,20.515c-158.017,23.929 -319.641,52.022 -390.524,52.022l0,11.415c72.826,0 238.881,-30.553 401.23,-56.576c15.103,-2.421 23.967,-7.239 23.967,-22.311c0,-13.136 0.006,-44.972 0.011,-78.394l0,0Z" style="fill:none;stroke:#000;stroke-width:0.3px;"/>
        <path id="Bottom-Right1" serif:id="Bottom Right" d="M1080.42,386.359l-11.345,0c-0.004,31.183 -0.011,61.087 -0.011,73.329c0,13.858 -8.627,18.289 -23.328,20.515c-158.016,23.928 -319.64,52.022 -390.523,52.022l0,11.414c72.826,0 238.88,-30.553 401.229,-56.576c15.104,-2.421 23.967,-7.239 23.967,-22.311c0,-13.136 0.007,-44.972 0.011,-78.393l0,0Z" style="fill:none;"/>
        <clipPath id="_clip2">
            <path d="M1080.42,386.359l-11.345,0c-0.004,31.183 -0.011,61.087 -0.011,73.329c0,13.858 -8.627,18.289 -23.328,20.515c-158.016,23.928 -319.64,52.022 -390.523,52.022l0,11.414c72.826,0 238.88,-30.553 401.229,-56.576c15.104,-2.421 23.967,-7.239 23.967,-22.311c0,-13.136 0.007,-44.972 0.011,-78.393l0,0Z"/>
        </clipPath>
        <g clip-path="url(#_clip2)">
            <circle cx="692.621" cy="536.275" r="3.118" style="fill:none;stroke:#000;stroke-width:0.3px;"/>
            <circle cx="1074.78" cy="413.542" r="3.118" style="fill:none;stroke:#000;stroke-width:0.3px;"/>
            <circle cx="1072.11" cy="472.756" r="3.118" style="fill:none;stroke:#000;stroke-width:0.3px;"/>
        </g>
        <path d="M1080.42,386.359l-11.345,0c-0.004,31.183 -0.011,61.087 -0.011,73.329c0,13.858 -8.627,18.289 -23.328,20.515c-158.016,23.928 -319.64,52.022 -390.523,52.022l0,11.414c72.826,0 238.88,-30.553 401.229,-56.576c15.104,-2.421 23.967,-7.239 23.967,-22.311c0,-13.136 0.007,-44.972 0.011,-78.393l0,0Z" style="fill:none;stroke:#000;stroke-width:0.3px;"/>
        <path id="Bottom-Right2" serif:id="Bottom Right" d="M1054.44,366.011l-11.345,0c-0.004,31.183 -0.01,61.087 -0.01,73.329c0,13.858 -8.628,18.289 -23.328,20.515c-158.017,23.928 -319.641,52.022 -390.524,52.022l0,11.415c72.826,0 238.881,-30.554 401.229,-56.576c15.104,-2.421 23.968,-7.24 23.968,-22.312c0,-13.136 0.006,-44.972 0.01,-78.393l0,0Z" style="fill:none;"/>
        <clipPath id="_clip3">
            <path d="M1054.44,366.011l-11.345,0c-0.004,31.183 -0.01,61.087 -0.01,73.329c0,13.858 -8.628,18.289 -23.328,20.515c-158.017,23.928 -319.641,52.022 -390.524,52.022l0,11.415c72.826,0 238.881,-30.554 401.229,-56.576c15.104,-2.421 23.968,-7.24 23.968,-22.312c0,-13.136 0.006,-44.972 0.01,-78.393l0,0Z"/>
        </clipPath>
        <g clip-path="url(#_clip3)">
            <circle cx="666.642" cy="515.927" r="3.118" style="fill:none;stroke:#000;stroke-width:0.3px;"/>
            <circle cx="1048.81" cy="393.194" r="3.118" style="fill:none;stroke:#000;stroke-width:0.3px;"/>
            <circle cx="1046.13" cy="452.408" r="3.118" style="fill:none;stroke:#000;stroke-width:0.3px;"/>
        </g>
        <path d="M1054.44,366.011l-11.345,0c-0.004,31.183 -0.01,61.087 -0.01,73.329c0,13.858 -8.628,18.289 -23.328,20.515c-158.017,23.928 -319.641,52.022 -390.524,52.022l0,11.415c72.826,0 238.881,-30.554 401.229,-56.576c15.104,-2.421 23.968,-7.24 23.968,-22.312c0,-13.136 0.006,-44.972 0.01,-78.393l0,0Z" style="fill:none;stroke:#000;stroke-width:0.3px;"/>
        <path id="Bottom-Right3" serif:id="Bottom Right" d="M1102.96,402.011l-11.345,0c-0.004,31.183 -0.011,61.087 -0.011,73.329c0,13.858 -8.627,18.289 -23.328,20.515c-158.016,23.928 -319.64,52.022 -390.523,52.022l0,11.415c72.826,0 238.88,-30.554 401.229,-56.576c15.104,-2.421 23.967,-7.24 23.967,-22.312c0,-13.136 0.007,-44.972 0.011,-78.393l0,0Z" style="fill:none;"/>
        <clipPath id="_clip4">
            <path d="M1102.96,402.011l-11.345,0c-0.004,31.183 -0.011,61.087 -0.011,73.329c0,13.858 -8.627,18.289 -23.328,20.515c-158.016,23.928 -319.64,52.022 -390.523,52.022l0,11.415c72.826,0 238.88,-30.554 401.229,-56.576c15.104,-2.421 23.967,-7.24 23.967,-22.312c0,-13.136 0.007,-44.972 0.011,-78.393l0,0Z"/>
        </clipPath>
        <g clip-path="url(#_clip4)">
            <circle cx="715.164" cy="551.927" r="3.118" style="fill:none;stroke:#000;stroke-width:0.3px;"/>
            <circle cx="1097.33" cy="429.194" r="3.118" style="fill:none;stroke:#000;stroke-width:0.3px;"/>
            <circle cx="1094.65" cy="488.408" r="3.118" style="fill:none;stroke:#000;stroke-width:0.3px;"/>
        </g>
        <path d="M1102.96,402.011l-11.345,0c-0.004,31.183 -0.011,61.087 -0.011,73.329c0,13.858 -8.627,18.289 -23.328,20.515c-158.016,23.928 -319.64,52.022 -390.523,52.022l0,11.415c72.826,0 238.88,-30.554 401.229,-56.576c15.104,-2.421 23.967,-7.24 23.967,-22.312c0,-13.136 0.007,-44.972 0.011,-78.393l0,0Z" style="fill:none;stroke:#000;stroke-width:0.3px;"/>
        <path id="Top-Right" serif:id="Top Right" d="M1094.92,147.683c0.005,-39.611 0.006,-81.449 -0.011,-97.018c-0.029,-26.608 -3.063,-29.318 -27.212,-29.318c-123.769,0 -317.644,39.046 -397.985,40.218l0,11.618c78.198,-1.078 266.9,-40.421 387.366,-40.421c23.505,0 26.458,2.491 26.486,26.958c0.016,14.153 0.015,51.912 0.011,87.963l11.345,0Z" style="fill:none;"/>
        <clipPath id="_clip5">
            <path d="M1094.92,147.683c0.005,-39.611 0.006,-81.449 -0.011,-97.018c-0.029,-26.608 -3.063,-29.318 -27.212,-29.318c-123.769,0 -317.644,39.046 -397.985,40.218l0,11.618c78.198,-1.078 266.9,-40.421 387.366,-40.421c23.505,0 26.458,2.491 26.486,26.958c0.016,14.153 0.015,51.912 0.011,87.963l11.345,0Z"/>
        </clipPath>
        <g clip-path="url(#_clip5)">
            <circle cx="706.533" cy="65.056" r="3.118" style="fill:none;stroke:#000;stroke-width:0.3px;"/>
            <circle cx="1084.61" cy="31.734" r="3.118" style="fill:none;stroke:#000;stroke-width:0.3px;"/>
            <circle cx="1089.29" cy="120.372" r="3.118" style="fill:none;stroke:#000;stroke-width:0.3px;"/>
        </g>
        <path d="M1094.92,147.683c0.005,-39.611 0.006,-81.449 -0.011,-97.018c-0.029,-26.608 -3.063,-29.318 -27.212,-29.318c-123.769,0 -317.644,39.046 -397.985,40.218l0,11.618c78.198,-1.078 266.9,-40.421 387.366,-40.421c23.505,0 26.458,2.491 26.486,26.958c0.016,14.153 0.015,51.912 0.011,87.963l11.345,0Z" style="fill:none;stroke:#000;stroke-width:0.3px;"/>
        <path id="Top-Right1" serif:id="Top Right" d="M1080.27,164.611c0.004,-39.611 0.006,-81.448 -0.011,-97.017c-0.029,-26.609 -3.063,-29.318 -27.213,-29.318c-123.768,0 -317.643,39.045 -397.984,40.218l0,11.618c78.198,-1.078 266.9,-40.422 387.365,-40.422c23.506,0 26.459,2.491 26.487,26.958c0.016,14.153 0.015,51.913 0.01,87.963l11.346,0Z" style="fill:none;"/>
        <clipPath id="_clip6">
            <path d="M1080.27,164.611c0.004,-39.611 0.006,-81.448 -0.011,-97.017c-0.029,-26.609 -3.063,-29.318 -27.213,-29.318c-123.768,0 -317.643,39.045 -397.984,40.218l0,11.618c78.198,-1.078 266.9,-40.422 387.365,-40.422c23.506,0 26.459,2.491 26.487,26.958c0.016,14.153 0.015,51.913 0.01,87.963l11.346,0Z"/>
        </clipPath>
        <g clip-path="url(#_clip6)">
            <circle cx="691.88" cy="81.985" r="3.118" style="fill:none;stroke:#000;stroke-width:0.3px;"/>
            <circle cx="1069.96" cy="48.662" r="3.118" style="fill:none;stroke:#000;stroke-width:0.3px;"/>
            <circle cx="1074.63" cy="137.3" r="3.118" style="fill:none;stroke:#000;stroke-width:0.3px;"/>
        </g>
        <path d="M1080.27,164.611c0.004,-39.611 0.006,-81.448 -0.011,-97.017c-0.029,-26.609 -3.063,-29.318 -27.213,-29.318c-123.768,0 -317.643,39.045 -397.984,40.218l0,11.618c78.198,-1.078 266.9,-40.422 387.365,-40.422c23.506,0 26.459,2.491 26.487,26.958c0.016,14.153 0.015,51.913 0.01,87.963l11.346,0Z" style="fill:none;stroke:#000;stroke-width:0.3px;"/>
        <path id="Top-Right2" serif:id="Top Right" d="M1066.18,182.611c0.004,-39.611 0.006,-81.448 -0.011,-97.017c-0.029,-26.609 -3.063,-29.318 -27.213,-29.318c-123.768,0 -317.643,39.045 -397.984,40.218l0,11.618c78.198,-1.078 266.9,-40.422 387.365,-40.422c23.506,0 26.459,2.491 26.487,26.958c0.016,14.153 0.015,51.913 0.01,87.963l11.346,0Z" style="fill:none;"/>
        <clipPath id="_clip7">
            <path d="M1066.18,182.611c0.004,-39.611 0.006,-81.448 -0.011,-97.017c-0.029,-26.609 -3.063,-29.318 -27.213,-29.318c-123.768,0 -317.643,39.045 -397.984,40.218l0,11.618c78.198,-1.078 266.9,-40.422 387.365,-40.422c23.506,0 26.459,2.491 26.487,26.958c0.016,14.153 0.015,51.913 0.01,87.963l11.346,0Z"/>
        </clipPath>
        <g clip-path="url(#_clip7)">
            <circle cx="677.793" cy="99.985" r="3.118" style="fill:none;stroke:#000;stroke-width:0.3px;"/>
            <circle cx="1055.87" cy="66.662" r="3.118" style="fill:none;stroke:#000;stroke-width:0.3px;"/>
            <circle cx="1060.55" cy="155.3" r="3.118" style="fill:none;stroke:#000;stroke-width:0.3px;"/>
        </g>
        <path d="M1066.18,182.611c0.004,-39.611 0.006,-81.448 -0.011,-97.017c-0.029,-26.609 -3.063,-29.318 -27.213,-29.318c-123.768,0 -317.643,39.045 -397.984,40.218l0,11.618c78.198,-1.078 266.9,-40.422 387.365,-40.422c23.506,0 26.459,2.491 26.487,26.958c0.016,14.153 0.015,51.913 0.01,87.963l11.346,0Z" style="fill:none;stroke:#000;stroke-width:0.3px;"/>
        <path id="Bottom-Left--Open-" serif:id="Bottom Left (Open)" d="M681.993,433.237c-70.883,0 -250.691,-29.187 -390.523,-52.022c-11.592,-1.893 -23.328,-1.798 -23.328,-20.516c0,-31.673 0,-130.339 0,-130.339l-11.346,0c0,44.094 0.001,102.195 0.001,135.404c0,20.356 12.058,20.253 23.967,22.311c143.665,24.835 328.403,56.576 401.229,56.576l0,-11.414Z" style="fill:none;"/>
        <clipPath id="_clip8">
            <path d="M681.993,433.237c-70.883,0 -250.691,-29.187 -390.523,-52.022c-11.592,-1.893 -23.328,-1.798 -23.328,-20.516c0,-31.673 0,-130.339 0,-130.339l-11.346,0c0,44.094 0.001,102.195 0.001,135.404c0,20.356 12.058,20.253 23.967,22.311c143.665,24.835 328.403,56.576 401.229,56.576l0,-11.414Z"/>
        </clipPath>
        <g clip-path="url(#_clip8)">
            <circle cx="266.269" cy="376.768" r="3.118" style="fill:none;stroke:#000;stroke-width:0.3px;"/>
            <circle cx="262.444" cy="238.478" r="3.118" style="fill:none;stroke:#000;stroke-width:0.3px;"/>
            <circle cx="644.756" cy="437.287" r="3.118" style="fill:none;stroke:#000;stroke-width:0.3px;"/>
        </g>
        <path d="M681.993,433.237c-70.883,0 -250.691,-29.187 -390.523,-52.022c-11.592,-1.893 -23.328,-1.798 -23.328,-20.516c0,-31.673 0,-130.339 0,-130.339l-11.346,0c0,44.094 0.001,102.195 0.001,135.404c0,20.356 12.058,20.253 23.967,22.311c143.665,24.835 328.403,56.576 401.229,56.576l0,-11.414Z" style="fill:none;stroke:#000;stroke-width:0.3px;"/>
        <path id="Bottom-Left--Open-1" serif:id="Bottom Left (Open)" d="M702.341,425.005c-70.883,0 -250.691,-29.186 -390.524,-52.022c-11.591,-1.893 -23.327,-1.797 -23.327,-20.515c0,-31.674 0,-130.339 0,-130.339l-11.346,0c0,44.093 0,102.195 0,135.404c0,20.356 12.058,20.252 23.967,22.311c143.666,24.834 328.404,56.576 401.23,56.576l0,-11.415Z" style="fill:none;"/>
        <clipPath id="_clip9">
            <path d="M702.341,425.005c-70.883,0 -250.691,-29.186 -390.524,-52.022c-11.591,-1.893 -23.327,-1.797 -23.327,-20.515c0,-31.674 0,-130.339 0,-130.339l-11.346,0c0,44.093 0,102.195 0,135.404c0,20.356 12.058,20.252 23.967,22.311c143.666,24.834 328.404,56.576 401.23,56.576l0,-11.415Z"/>
        </clipPath>
        <g clip-path="url(#_clip9)">
            <circle cx="286.616" cy="368.536" r="3.118" style="fill:none;stroke:#000;stroke-width:0.3px;"/>
            <circle cx="282.792" cy="230.247" r="3.118" style="fill:none;stroke:#000;stroke-width:0.3px;"/>
            <circle cx="665.104" cy="429.056" r="3.118" style="fill:none;stroke:#000;stroke-width:0.3px;"/>
        </g>
        <path d="M702.341,425.005c-70.883,0 -250.691,-29.186 -390.524,-52.022c-11.591,-1.893 -23.327,-1.797 -23.327,-20.515c0,-31.674 0,-130.339 0,-130.339l-11.346,0c0,44.093 0,102.195 0,135.404c0,20.356 12.058,20.252 23.967,22.311c143.666,24.834 328.404,56.576 401.23,56.576l0,-11.415Z" style="fill:none;stroke:#000;stroke-width:0.3px;"/>
        <path id="Bottom-Left--Open-2" serif:id="Bottom Left (Open)" d="M736.365,409.353c-70.883,0 -250.692,-29.186 -390.524,-52.022c-11.591,-1.893 -23.327,-1.798 -23.327,-20.515c0,-31.674 -0.001,-130.339 -0.001,-130.339l-11.345,0c0,44.093 0,102.194 0,135.404c0,20.356 12.058,20.252 23.967,22.311c143.666,24.834 328.403,56.576 401.23,56.576l0,-11.415Z" style="fill:none;"/>
        <clipPath id="_clip10">
            <path d="M736.365,409.353c-70.883,0 -250.692,-29.186 -390.524,-52.022c-11.591,-1.893 -23.327,-1.798 -23.327,-20.515c0,-31.674 -0.001,-130.339 -0.001,-130.339l-11.345,0c0,44.093 0,102.194 0,135.404c0,20.356 12.058,20.252 23.967,22.311c143.666,24.834 328.403,56.576 401.23,56.576l0,-11.415Z"/>
        </clipPath>
        <g clip-path="url(#_clip10)">
            <circle cx="320.64" cy="352.884" r="3.118" style="fill:none;stroke:#000;stroke-width:0.3px;"/>
            <circle cx="316.816" cy="214.595" r="3.118" style="fill:none;stroke:#000;stroke-width:0.3px;"/>
            <circle cx="699.127" cy="413.403" r="3.118" style="fill:none;stroke:#000;stroke-width:0.3px;"/>
        </g>
        <path d="M736.365,409.353c-70.883,0 -250.692,-29.186 -390.524,-52.022c-11.591,-1.893 -23.327,-1.798 -23.327,-20.515c0,-31.674 -0.001,-130.339 -0.001,-130.339l-11.345,0c0,44.093 0,102.194 0,135.404c0,20.356 12.058,20.252 23.967,22.311c143.666,24.834 328.403,56.576 401.23,56.576l0,-11.415Z" style="fill:none;stroke:#000;stroke-width:0.3px;"/>
        <path id="Top-Left--Open-" serif:id="Top Left (Open)" d="M1062.76,1014.9l-11.636,-0.005c-1.078,-78.197 40.421,-262.548 40.421,-387.381c0,-23.765 0.401,-26.47 -17.483,-26.47c-0.634,0 -10.529,0 -10.529,0l0,-11.346c0,0 7.267,0 10.058,0c26.826,0 29.369,2.78 29.369,27.196c0,128.256 -41.391,317.66 -40.218,398.001l0.018,0.005Z" style="fill:none;"/>
        <clipPath id="_clip11">
            <path d="M1062.76,1014.9l-11.636,-0.005c-1.078,-78.197 40.421,-262.548 40.421,-387.381c0,-23.765 0.401,-26.47 -17.483,-26.47c-0.634,0 -10.529,0 -10.529,0l0,-11.346c0,0 7.267,0 10.058,0c26.826,0 29.369,2.78 29.369,27.196c0,128.256 -41.391,317.66 -40.218,398.001l0.018,0.005Z"/>
        </clipPath>
        <g clip-path="url(#_clip11)">
            <path d="M1100.69,623.167c0,1.721 -1.397,3.118 -3.118,3.118c-1.721,0 -3.118,-1.397 -3.118,-3.118c0,-1.721 1.397,-3.118 3.118,-3.118c1.721,0 3.118,1.397 3.118,3.118Z" style="fill:none;stroke:#000;stroke-width:0.3px;"/>
            <path d="M1074.88,595.343c0,1.721 -1.397,3.118 -3.118,3.118c-1.721,0 -3.118,-1.397 -3.118,-3.118c0,-1.721 1.397,-3.118 3.118,-3.118c1.721,0 3.118,1.397 3.118,3.118Z" style="fill:none;stroke:#000;stroke-width:0.3px;"/>
            <path d="M1061.37,977.064c0,1.721 -1.397,3.118 -3.118,3.118c-1.721,0 -3.118,-1.397 -3.118,-3.118c0,-1.721 1.397,-3.118 3.118,-3.118c1.721,0 3.118,1.397 3.118,3.118Z" style="fill:none;stroke:#000;stroke-width:0.3px;"/>
        </g>
        <path d="M1062.76,1014.9l-11.636,-0.005c-1.078,-78.197 40.421,-262.548 40.421,-387.381c0,-23.765 0.401,-26.47 -17.483,-26.47c-0.634,0 -10.529,0 -10.529,0l0,-11.346c0,0 7.267,0 10.058,0c26.826,0 29.369,2.78 29.369,27.196c0,128.256 -41.391,317.66 -40.218,398.001l0.018,0.005Z" style="fill:none;stroke:#000;stroke-width:0.3px;"/>
        <path id="Top-Left--Open-1" serif:id="Top Left (Open)" d="M1036.83,1049.17l-11.637,-0.006c-1.078,-78.197 40.422,-262.548 40.422,-387.381c0,-23.765 0.401,-26.47 -17.483,-26.47c-0.635,0 -10.529,0 -10.529,0l0,-11.345c0,0 7.267,0 10.057,0c26.826,0 29.37,2.779 29.37,27.195c0,128.256 -41.391,317.66 -40.219,398.001l0.019,0.006Z" style="fill:none;"/>
        <clipPath id="_clip12">
            <path d="M1036.83,1049.17l-11.637,-0.006c-1.078,-78.197 40.422,-262.548 40.422,-387.381c0,-23.765 0.401,-26.47 -17.483,-26.47c-0.635,0 -10.529,0 -10.529,0l0,-11.345c0,0 7.267,0 10.057,0c26.826,0 29.37,2.779 29.37,27.195c0,128.256 -41.391,317.66 -40.219,398.001l0.019,0.006Z"/>
        </clipPath>
        <g clip-path="url(#_clip12)">
            <path d="M1074.76,657.442c0,1.721 -1.397,3.118 -3.118,3.118c-1.721,0 -3.118,-1.397 -3.118,-3.118c0,-1.721 1.397,-3.118 3.118,-3.118c1.721,0 3.118,1.397 3.118,3.118Z" style="fill:none;stroke:#000;stroke-width:0.3px;"/>
            <path d="M1048.96,629.618c0,1.721 -1.398,3.118 -3.119,3.118c-1.72,0 -3.118,-1.397 -3.118,-3.118c0,-1.721 1.398,-3.118 3.118,-3.118c1.721,0 3.119,1.397 3.119,3.118Z" style="fill:none;stroke:#000;stroke-width:0.3px;"/>
            <path d="M1035.44,1011.34c0,1.721 -1.397,3.118 -3.118,3.118c-1.721,0 -3.118,-1.397 -3.118,-3.118c0,-1.721 1.397,-3.118 3.118,-3.118c1.721,0 3.118,1.397 3.118,3.118Z" style="fill:none;stroke:#000;stroke-width:0.3px;"/>
        </g>
        <path d="M1036.83,1049.17l-11.637,-0.006c-1.078,-78.197 40.422,-262.548 40.422,-387.381c0,-23.765 0.401,-26.47 -17.483,-26.47c-0.635,0 -10.529,0 -10.529,0l0,-11.345c0,0 7.267,0 10.057,0c26.826,0 29.37,2.779 29.37,27.195c0,128.256 -41.391,317.66 -40.219,398.001l0.019,0.006Z" style="fill:none;stroke:#000;stroke-width:0.3px;"/>
        <path id="Top-Left--Open-2" serif:id="Top Left (Open)" d="M1010.61,1069.52l-11.637,-0.005c-1.078,-78.197 40.422,-262.548 40.422,-387.381c0,-23.765 0.401,-26.47 -17.483,-26.47c-0.635,0 -10.529,0 -10.529,0l0,-11.346c0,0 7.267,0 10.058,0c26.825,0 29.369,2.78 29.369,27.196c0,128.255 -41.391,317.66 -40.219,398.001l0.019,0.005Z" style="fill:none;"/>
        <clipPath id="_clip13">
            <path d="M1010.61,1069.52l-11.637,-0.005c-1.078,-78.197 40.422,-262.548 40.422,-387.381c0,-23.765 0.401,-26.47 -17.483,-26.47c-0.635,0 -10.529,0 -10.529,0l0,-11.346c0,0 7.267,0 10.058,0c26.825,0 29.369,2.78 29.369,27.196c0,128.255 -41.391,317.66 -40.219,398.001l0.019,0.005Z"/>
        </clipPath>
        <g clip-path="url(#_clip13)">
            <path d="M1048.54,677.79c0,1.721 -1.397,3.118 -3.118,3.118c-1.721,0 -3.118,-1.397 -3.118,-3.118c0,-1.721 1.397,-3.118 3.118,-3.118c1.721,0 3.118,1.397 3.118,3.118Z" style="fill:none;stroke:#000;stroke-width:0.3px;"/>
            <path d="M1022.74,649.966c0,1.721 -1.397,3.118 -3.118,3.118c-1.721,0 -3.119,-1.397 -3.119,-3.118c0,-1.721 1.398,-3.119 3.119,-3.119c1.721,0 3.118,1.398 3.118,3.119Z" style="fill:none;stroke:#000;stroke-width:0.3px;"/>
            <path d="M1009.22,1031.69c0,1.721 -1.398,3.118 -3.119,3.118c-1.721,0 -3.118,-1.397 -3.118,-3.118c0,-1.721 1.397,-3.118 3.118,-3.118c1.721,0 3.119,1.397 3.119,3.118Z" style="fill:none;stroke:#000;stroke-width:0.3px;"/>
        </g>
        <path d="M1010.61,1069.52l-11.637,-0.005c-1.078,-78.197 40.422,-262.548 40.422,-387.381c0,-23.765 0.401,-26.47 -17.483,-26.47c-0.635,0 -10.529,0 -10.529,0l0,-11.346c0,0 7.267,0 10.058,0c26.825,0 29.369,2.78 29.369,27.196c0,128.255 -41.391,317.66 -40.219,398.001l0.019,0.005Z" style="fill:none;stroke:#000;stroke-width:0.3px;"/>
        <path id="Top-Left--Open-3" serif:id="Top Left (Open)" d="M984.975,1103.54l-11.636,-0.005c-1.078,-78.197 40.421,-262.548 40.421,-387.381c0,-23.765 0.401,-26.47 -17.483,-26.47c-0.635,0 -10.529,0 -10.529,0l0,-11.346c0,0 7.267,0 10.058,0c26.825,0 29.369,2.78 29.369,27.196c0,128.255 -41.391,317.66 -40.219,398.001l0.019,0.005Z" style="fill:none;"/>
        <clipPath id="_clip14">
            <path d="M984.975,1103.54l-11.636,-0.005c-1.078,-78.197 40.421,-262.548 40.421,-387.381c0,-23.765 0.401,-26.47 -17.483,-26.47c-0.635,0 -10.529,0 -10.529,0l0,-11.346c0,0 7.267,0 10.058,0c26.825,0 29.369,2.78 29.369,27.196c0,128.255 -41.391,317.66 -40.219,398.001l0.019,0.005Z"/>
        </clipPath>
        <g clip-path="url(#_clip14)">
            <path d="M1022.91,711.813c0,1.721 -1.397,3.119 -3.118,3.119c-1.721,0 -3.118,-1.398 -3.118,-3.119c0,-1.72 1.397,-3.118 3.118,-3.118c1.721,0 3.118,1.398 3.118,3.118Z" style="fill:none;stroke:#000;stroke-width:0.3px;"/>
            <path d="M997.099,683.989c0,1.721 -1.397,3.118 -3.118,3.118c-1.721,0 -3.118,-1.397 -3.118,-3.118c0,-1.721 1.397,-3.118 3.118,-3.118c1.721,0 3.118,1.397 3.118,3.118Z" style="fill:none;stroke:#000;stroke-width:0.3px;"/>
            <path d="M983.584,1065.71c0,1.721 -1.398,3.118 -3.118,3.118c-1.721,0 -3.119,-1.397 -3.119,-3.118c0,-1.721 1.398,-3.118 3.119,-3.118c1.72,0 3.118,1.397 3.118,3.118Z" style="fill:none;stroke:#000;stroke-width:0.3px;"/>
        </g>
        <path d="M984.975,1103.54l-11.636,-0.005c-1.078,-78.197 40.421,-262.548 40.421,-387.381c0,-23.765 0.401,-26.47 -17.483,-26.47c-0.635,0 -10.529,0 -10.529,0l0,-11.346c0,0 7.267,0 10.058,0c26.825,0 29.369,2.78 29.369,27.196c0,128.255 -41.391,317.66 -40.219,398.001l0.019,0.005Z" style="fill:none;stroke:#000;stroke-width:0.3px;"/>
        <path id="Bottom-Left--Closed-" serif:id="Bottom Left (Closed)" d="M445.018,489.723c-70.882,0 -250.691,-29.187 -390.523,-52.022c-11.592,-1.893 -23.328,-1.798 -23.328,-20.515c0,-29.494 0,-131.35 0,-145.231c0,-1.026 0,-1.571 0,-1.571l-11.346,0c0,44.093 0.001,118.657 0.001,151.866c0,20.356 12.058,20.253 23.967,22.311c143.665,24.835 328.403,56.576 401.229,56.576l0,-11.414Z" style="fill:none;"/>
        <clipPath id="_clip15">
            <path d="M445.018,489.723c-70.882,0 -250.691,-29.187 -390.523,-52.022c-11.592,-1.893 -23.328,-1.798 -23.328,-20.515c0,-29.494 0,-131.35 0,-145.231c0,-1.026 0,-1.571 0,-1.571l-11.346,0c0,44.093 0.001,118.657 0.001,151.866c0,20.356 12.058,20.253 23.967,22.311c143.665,24.835 328.403,56.576 401.229,56.576l0,-11.414Z"/>
        </clipPath>
        <g clip-path="url(#_clip15)">
            <circle cx="25.469" cy="294.964" r="3.118" style="fill:none;stroke:#000;stroke-width:0.3px;"/>
            <circle cx="407.781" cy="493.773" r="3.118" style="fill:none;stroke:#000;stroke-width:0.3px;"/>
            <circle cx="29.294" cy="433.254" r="3.118" style="fill:none;stroke:#000;stroke-width:0.3px;"/>
        </g>
        <path d="M445.018,489.723c-70.882,0 -250.691,-29.187 -390.523,-52.022c-11.592,-1.893 -23.328,-1.798 -23.328,-20.515c0,-29.494 0,-131.35 0,-145.231c0,-1.026 0,-1.571 0,-1.571l-11.346,0c0,44.093 0.001,118.657 0.001,151.866c0,20.356 12.058,20.253 23.967,22.311c143.665,24.835 328.403,56.576 401.229,56.576l0,-11.414Z" style="fill:none;stroke:#000;stroke-width:0.3px;"/>
        <path id="Bottom-Left--Closed-1" serif:id="Bottom Left (Closed)" d="M465.366,472.859c-70.883,0 -250.691,-29.186 -390.523,-52.022c-11.592,-1.893 -23.328,-1.797 -23.328,-20.515c0,-29.494 0,-131.349 0,-145.23c0,-1.027 0,-1.572 0,-1.572l-11.346,0c0,44.093 0.001,118.658 0.001,151.867c0,20.356 12.058,20.252 23.967,22.311c143.665,24.834 328.403,56.576 401.229,56.576l0,-11.415Z" style="fill:none;"/>
        <clipPath id="_clip16">
            <path d="M465.366,472.859c-70.883,0 -250.691,-29.186 -390.523,-52.022c-11.592,-1.893 -23.328,-1.797 -23.328,-20.515c0,-29.494 0,-131.349 0,-145.23c0,-1.027 0,-1.572 0,-1.572l-11.346,0c0,44.093 0.001,118.658 0.001,151.867c0,20.356 12.058,20.252 23.967,22.311c143.665,24.834 328.403,56.576 401.229,56.576l0,-11.415Z"/>
        </clipPath>
        <g clip-path="url(#_clip16)">
            <circle cx="45.817" cy="278.101" r="3.118" style="fill:none;stroke:#000;stroke-width:0.3px;"/>
            <circle cx="428.129" cy="476.91" r="3.118" style="fill:none;stroke:#000;stroke-width:0.3px;"/>
            <circle cx="49.642" cy="416.39" r="3.118" style="fill:none;stroke:#000;stroke-width:0.3px;"/>
        </g>
        <path d="M465.366,472.859c-70.883,0 -250.691,-29.186 -390.523,-52.022c-11.592,-1.893 -23.328,-1.797 -23.328,-20.515c0,-29.494 0,-131.349 0,-145.23c0,-1.027 0,-1.572 0,-1.572l-11.346,0c0,44.093 0.001,118.658 0.001,151.867c0,20.356 12.058,20.252 23.967,22.311c143.665,24.834 328.403,56.576 401.229,56.576l0,-11.415Z" style="fill:none;stroke:#000;stroke-width:0.3px;"/>
        <path id="Bottom-Left--Closed-2" serif:id="Bottom Left (Closed)" d="M488.844,454.813c-70.882,0 -250.691,-29.186 -390.523,-52.022c-11.591,-1.893 -23.328,-1.797 -23.328,-20.515c0,-29.494 0,-131.349 0,-145.23c0,-1.026 0,-1.572 0,-1.572l-11.346,0c0.001,44.093 0.001,118.658 0.001,151.867c0,20.356 12.058,20.252 23.967,22.311c143.665,24.834 328.403,56.576 401.229,56.576l0,-11.415Z" style="fill:none;"/>
        <clipPath id="_clip17">
            <path d="M488.844,454.813c-70.882,0 -250.691,-29.186 -390.523,-52.022c-11.591,-1.893 -23.328,-1.797 -23.328,-20.515c0,-29.494 0,-131.349 0,-145.23c0,-1.026 0,-1.572 0,-1.572l-11.346,0c0.001,44.093 0.001,118.658 0.001,151.867c0,20.356 12.058,20.252 23.967,22.311c143.665,24.834 328.403,56.576 401.229,56.576l0,-11.415Z"/>
        </clipPath>
        <g clip-path="url(#_clip17)">
            <circle cx="69.296" cy="260.055" r="3.118" style="fill:none;stroke:#000;stroke-width:0.3px;"/>
            <circle cx="451.607" cy="458.864" r="3.118" style="fill:none;stroke:#000;stroke-width:0.3px;"/>
            <circle cx="73.12" cy="398.344" r="3.118" style="fill:none;stroke:#000;stroke-width:0.3px;"/>
        </g>
        <path d="M488.844,454.813c-70.882,0 -250.691,-29.186 -390.523,-52.022c-11.591,-1.893 -23.328,-1.797 -23.328,-20.515c0,-29.494 0,-131.349 0,-145.23c0,-1.026 0,-1.572 0,-1.572l-11.346,0c0.001,44.093 0.001,118.658 0.001,151.867c0,20.356 12.058,20.252 23.967,22.311c143.665,24.834 328.403,56.576 401.229,56.576l0,-11.415Z" style="fill:none;stroke:#000;stroke-width:0.3px;"/>
        <path id="Bottom-Left--Closed-3" serif:id="Bottom Left (Closed)" d="M657.888,454.813c-70.883,0 -250.692,-29.186 -390.524,-52.022c-11.591,-1.893 -23.327,-1.797 -23.327,-20.515c0,-29.494 -0.001,-131.349 -0.001,-145.23c0,-1.026 0,-1.572 0,-1.572l-11.345,0c0,44.093 0,118.658 0,151.867c0,20.356 12.058,20.252 23.967,22.311c143.666,24.834 328.404,56.576 401.23,56.576l0,-11.415Z" style="fill:none;"/>
        <clipPath id="_clip18">
            <path d="M657.888,454.813c-70.883,0 -250.692,-29.186 -390.524,-52.022c-11.591,-1.893 -23.327,-1.797 -23.327,-20.515c0,-29.494 -0.001,-131.349 -0.001,-145.23c0,-1.026 0,-1.572 0,-1.572l-11.345,0c0,44.093 0,118.658 0,151.867c0,20.356 12.058,20.252 23.967,22.311c143.666,24.834 328.404,56.576 401.23,56.576l0,-11.415Z"/>
        </clipPath>
        <g clip-path="url(#_clip18)">
            <circle cx="238.339" cy="260.055" r="3.118" style="fill:none;stroke:#000;stroke-width:0.3px;"/>
            <circle cx="620.651" cy="458.864" r="3.118" style="fill:none;stroke:#000;stroke-width:0.3px;"/>
            <circle cx="242.163" cy="398.344" r="3.118" style="fill:none;stroke:#000;stroke-width:0.3px;"/>
        </g>
        <path d="M657.888,454.813c-70.883,0 -250.692,-29.186 -390.524,-52.022c-11.591,-1.893 -23.327,-1.797 -23.327,-20.515c0,-29.494 -0.001,-131.349 -0.001,-145.23c0,-1.026 0,-1.572 0,-1.572l-11.345,0c0,44.093 0,118.658 0,151.867c0,20.356 12.058,20.252 23.967,22.311c143.666,24.834 328.404,56.576 401.23,56.576l0,-11.415Z" style="fill:none;stroke:#000;stroke-width:0.3px;"/>
        <path id="Top-Left--Closed-" serif:id="Top Left (Closed)" d="M474.853,100.013l-0.005,11.637c-78.197,1.078 -262.548,-40.422 -387.381,-40.422c-23.765,0 -26.47,-0.4 -26.47,17.484c0,0.634 0,23.964 0,23.964l-11.346,0c0,0 0,-20.702 0,-23.493c0,-26.826 2.78,-29.369 27.196,-29.369c128.256,0 317.66,41.39 398.001,40.218l0.005,-0.019Z" style="fill:none;"/>
        <clipPath id="_clip19">
            <path d="M474.853,100.013l-0.005,11.637c-78.197,1.078 -262.548,-40.422 -387.381,-40.422c-23.765,0 -26.47,-0.4 -26.47,17.484c0,0.634 0,23.964 0,23.964l-11.346,0c0,0 0,-20.702 0,-23.493c0,-26.826 2.78,-29.369 27.196,-29.369c128.256,0 317.66,41.39 398.001,40.218l0.005,-0.019Z"/>
        </clipPath>
        <g clip-path="url(#_clip19)">
            <circle cx="83.124" cy="65.201" r="3.118" style="fill:none;stroke:#000;stroke-width:0.3px;"/>
            <circle cx="55.3" cy="91.008" r="3.118" style="fill:none;stroke:#000;stroke-width:0.3px;"/>
            <circle cx="437.021" cy="104.523" r="3.118" style="fill:none;stroke:#000;stroke-width:0.3px;"/>
        </g>
        <path d="M474.853,100.013l-0.005,11.637c-78.197,1.078 -262.548,-40.422 -387.381,-40.422c-23.765,0 -26.47,-0.4 -26.47,17.484c0,0.634 0,23.964 0,23.964l-11.346,0c0,0 0,-20.702 0,-23.493c0,-26.826 2.78,-29.369 27.196,-29.369c128.256,0 317.66,41.39 398.001,40.218l0.005,-0.019Z" style="fill:none;stroke:#000;stroke-width:0.3px;"/>
        <path id="Top-Left--Closed-1" serif:id="Top Left (Closed)" d="M504.337,126.445l-0.005,11.636c-78.197,1.078 -262.548,-40.421 -387.381,-40.421c-23.765,0 -26.47,-0.401 -26.47,17.483c0,0.634 0,23.965 0,23.965l-11.346,0c0,0 0,-20.703 0,-23.494c0,-26.826 2.78,-29.369 27.196,-29.369c128.255,0 317.66,41.391 398.001,40.218l0.005,-0.018Z" style="fill:none;"/>
        <clipPath id="_clip20">
            <path d="M504.337,126.445l-0.005,11.636c-78.197,1.078 -262.548,-40.421 -387.381,-40.421c-23.765,0 -26.47,-0.401 -26.47,17.483c0,0.634 0,23.965 0,23.965l-11.346,0c0,0 0,-20.703 0,-23.494c0,-26.826 2.78,-29.369 27.196,-29.369c128.255,0 317.66,41.391 398.001,40.218l0.005,-0.018Z"/>
        </clipPath>
        <g clip-path="url(#_clip20)">
            <circle cx="112.607" cy="91.632" r="3.118" style="fill:none;stroke:#000;stroke-width:0.3px;"/>
            <circle cx="84.783" cy="117.439" r="3.118" style="fill:none;stroke:#000;stroke-width:0.3px;"/>
            <circle cx="466.505" cy="130.954" r="3.118" style="fill:none;stroke:#000;stroke-width:0.3px;"/>
        </g>
        <path d="M504.337,126.445l-0.005,11.636c-78.197,1.078 -262.548,-40.421 -387.381,-40.421c-23.765,0 -26.47,-0.401 -26.47,17.483c0,0.634 0,23.965 0,23.965l-11.346,0c0,0 0,-20.703 0,-23.494c0,-26.826 2.78,-29.369 27.196,-29.369c128.255,0 317.66,41.391 398.001,40.218l0.005,-0.018Z" style="fill:none;stroke:#000;stroke-width:0.3px;"/>
        <path id="Top-Left--Closed-2" serif:id="Top Left (Closed)" d="M524.685,152.876l-0.005,11.637c-78.198,1.078 -262.548,-40.422 -387.382,-40.422c-23.764,0 -26.47,-0.401 -26.47,17.483c0,0.635 0,23.965 0,23.965l-11.345,0c0,0 0,-20.703 0,-23.493c0,-26.826 2.779,-29.37 27.196,-29.37c128.255,0 317.66,41.391 398.001,40.219l0.005,-0.019Z" style="fill:none;"/>
        <clipPath id="_clip21">
            <path d="M524.685,152.876l-0.005,11.637c-78.198,1.078 -262.548,-40.422 -387.382,-40.422c-23.764,0 -26.47,-0.401 -26.47,17.483c0,0.635 0,23.965 0,23.965l-11.345,0c0,0 0,-20.703 0,-23.493c0,-26.826 2.779,-29.37 27.196,-29.37c128.255,0 317.66,41.391 398.001,40.219l0.005,-0.019Z"/>
        </clipPath>
        <g clip-path="url(#_clip21)">
            <circle cx="132.955" cy="118.063" r="3.118" style="fill:none;stroke:#000;stroke-width:0.3px;"/>
            <circle cx="105.131" cy="143.87" r="3.118" style="fill:none;stroke:#000;stroke-width:0.3px;"/>
            <circle cx="486.853" cy="157.386" r="3.118" style="fill:none;stroke:#000;stroke-width:0.3px;"/>
        </g>
        <path d="M524.685,152.876l-0.005,11.637c-78.198,1.078 -262.548,-40.422 -387.382,-40.422c-23.764,0 -26.47,-0.401 -26.47,17.483c0,0.635 0,23.965 0,23.965l-11.345,0c0,0 0,-20.703 0,-23.493c0,-26.826 2.779,-29.37 27.196,-29.37c128.255,0 317.66,41.391 398.001,40.219l0.005,-0.019Z" style="fill:none;stroke:#000;stroke-width:0.3px;"/>
        <path id="Top-Left--Closed-3" serif:id="Top Left (Closed)" d="M558.708,179.307l-0.005,11.637c-78.197,1.078 -262.548,-40.422 -387.381,-40.422c-23.765,0 -26.47,-0.4 -26.47,17.484c0,0.634 0,23.964 0,23.964l-11.345,0c0,0 0,-20.702 0,-23.493c0,-26.826 2.779,-29.369 27.195,-29.369c128.256,0 317.66,41.39 398.001,40.218l0.005,-0.019Z" style="fill:none;"/>
        <clipPath id="_clip22">
            <path d="M558.708,179.307l-0.005,11.637c-78.197,1.078 -262.548,-40.422 -387.381,-40.422c-23.765,0 -26.47,-0.4 -26.47,17.484c0,0.634 0,23.964 0,23.964l-11.345,0c0,0 0,-20.702 0,-23.493c0,-26.826 2.779,-29.369 27.195,-29.369c128.256,0 317.66,41.39 398.001,40.218l0.005,-0.019Z"/>
        </clipPath>
        <g clip-path="url(#_clip22)">
            <circle cx="166.979" cy="144.495" r="3.118" style="fill:none;stroke:#000;stroke-width:0.3px;"/>
            <circle cx="139.155" cy="170.302" r="3.118" style="fill:none;stroke:#000;stroke-width:0.3px;"/>
            <circle cx="520.876" cy="183.817" r="3.118" style="fill:none;stroke:#000;stroke-width:0.3px;"/>
        </g>
        <path d="M558.708,179.307l-0.005,11.637c-78.197,1.078 -262.548,-40.422 -387.381,-40.422c-23.765,0 -26.47,-0.4 -26.47,17.484c0,0.634 0,23.964 0,23.964l-11.345,0c0,0 0,-20.702 0,-23.493c0,-26.826 2.779,-29.369 27.195,-29.369c128.256,0 317.66,41.39 398.001,40.218l0.005,-0.019Z" style="fill:none;stroke:#000;stroke-width:0.3px;"/>
        <g id="Outline">
            <path d="M14.457,859.434c0,-3.933 0,-7.347 0,-10.138c0,-26.826 2.78,-29.369 27.196,-29.369c128.255,0 317.66,41.39 398.001,40.218c80.341,-1.172 274.216,-40.218 397.984,-40.218c24.15,0 27.184,2.709 27.213,29.318c0.031,28.705 0,146.706 0,175.411c0,15.072 -8.864,19.89 -23.968,22.311c-162.348,26.023 -328.403,56.576 -401.229,56.576c-72.826,0 -257.564,-31.741 -401.23,-56.576c-11.909,-2.059 -23.967,-1.955 -23.967,-22.311c0,-34.447 0,-99.262 0,-143.592l0,-21.63Z" style="fill:none;fill-rule:nonzero;stroke:#000;stroke-width:0.3px;stroke-linecap:butt;stroke-linejoin:miter;stroke-miterlimit:4;"/>
            <g id="Screw-Holes" serif:id="Screw Holes">
                <circle cx="47.929" cy="825.314" r="3.118" style="fill:none;stroke:#000;stroke-width:0.3px;"/>
                <circle cx="20.105" cy="851.121" r="3.118" style="fill:none;stroke:#000;stroke-width:0.3px;"/>
                <circle cx="20.105" cy="897.37" r="3.118" style="fill:none;stroke:#000;stroke-width:0.3px;"/>
                <circle cx="476.475" cy="863.636" r="3.118" style="fill:none;stroke:#000;stroke-width:0.3px;"/>
                <circle cx="401.827" cy="864.636" r="3.118" style="fill:none;stroke:#000;stroke-width:0.3px;"/>
                <circle cx="477.065" cy="1096.18" r="3.118" style="fill:none;stroke:#000;stroke-width:0.3px;"/>
                <circle cx="402.417" cy="1096.18" r="3.118" style="fill:none;stroke:#000;stroke-width:0.3px;"/>
                <circle cx="854.552" cy="830.314" r="3.118" style="fill:none;stroke:#000;stroke-width:0.3px;"/>
                <circle cx="23.929" cy="1035.66" r="3.118" style="fill:none;stroke:#000;stroke-width:0.3px;"/>
                <circle cx="859.228" cy="918.951" r="3.118" style="fill:none;stroke:#000;stroke-width:0.3px;"/>
                <circle cx="859.228" cy="973.446" r="3.118" style="fill:none;stroke:#000;stroke-width:0.3px;"/>
                <circle cx="856.552" cy="1032.66" r="3.118" style="fill:none;stroke:#000;stroke-width:0.3px;"/>
            </g>
        </g>
        <g id="Outline1" serif:id="Outline">
            <path d="M14.457,612.799c0,-3.933 0,-7.348 0,-10.138c0,-26.826 2.78,-29.369 27.196,-29.369c128.255,0 317.66,41.39 398.001,40.218c80.341,-1.173 274.216,-40.218 397.984,-40.218c24.15,0 27.184,2.709 27.213,29.318c0.031,28.705 0,146.706 0,175.411c0,15.072 -8.864,19.89 -23.968,22.311c-162.348,26.023 -328.403,56.576 -401.229,56.576c-72.826,0 -257.564,-31.742 -401.23,-56.576c-11.909,-2.059 -23.967,-1.955 -23.967,-22.311c0,-34.447 0,-99.262 0,-143.592l0,-21.63Z" style="fill:none;fill-rule:nonzero;stroke:#000;stroke-width:0.3px;stroke-linecap:butt;stroke-linejoin:miter;stroke-miterlimit:4;"/>
            <g id="Screw-Holes1" serif:id="Screw Holes">
                <circle cx="47.929" cy="578.678" r="3.118" style="fill:none;stroke:#000;stroke-width:0.3px;"/>
                <circle cx="20.105" cy="604.486" r="3.118" style="fill:none;stroke:#000;stroke-width:0.3px;"/>
                <circle cx="20.105" cy="650.735" r="3.118" style="fill:none;stroke:#000;stroke-width:0.3px;"/>
                <circle cx="476.475" cy="617.001" r="3.118" style="fill:none;stroke:#000;stroke-width:0.3px;"/>
                <circle cx="401.827" cy="618.001" r="3.118" style="fill:none;stroke:#000;stroke-width:0.3px;"/>
                <circle cx="477.065" cy="849.544" r="3.118" style="fill:none;stroke:#000;stroke-width:0.3px;"/>
                <circle cx="402.417" cy="849.544" r="3.118" style="fill:none;stroke:#000;stroke-width:0.3px;"/>
                <circle cx="854.552" cy="583.678" r="3.118" style="fill:none;stroke:#000;stroke-width:0.3px;"/>
                <circle cx="23.929" cy="789.024" r="3.118" style="fill:none;stroke:#000;stroke-width:0.3px;"/>
                <circle cx="859.228" cy="672.316" r="3.118" style="fill:none;stroke:#000;stroke-width:0.3px;"/>
                <circle cx="859.228" cy="726.811" r="3.118" style="fill:none;stroke:#000;stroke-width:0.3px;"/>
                <circle cx="856.552" cy="786.024" r="3.118" style="fill:none;stroke:#000;stroke-width:0.3px;"/>
            </g>
        </g>
    </g>
</svg>
