<?xml version="1.0" encoding="UTF-8" standalone="no"?>
<!-- Created with Inkscape (http://www.inkscape.org/) -->

<svg
   xmlns:dc="http://purl.org/dc/elements/1.1/"
   xmlns:cc="http://creativecommons.org/ns#"
   xmlns:rdf="http://www.w3.org/1999/02/22-rdf-syntax-ns#"
   xmlns:svg="http://www.w3.org/2000/svg"
   xmlns="http://www.w3.org/2000/svg"
   xmlns:sodipodi="http://sodipodi.sourceforge.net/DTD/sodipodi-0.dtd"
   xmlns:inkscape="http://www.inkscape.org/namespaces/inkscape"
   version="1.1"
   id="svg10"
   xml:space="preserve"
   width="1172"
   height="416"
   viewBox="0 0 1172 416"
   sodipodi:docname="helix_one_switch_plate.svg"
   inkscape:version="0.92.2 5c3e80d, 2017-08-06"><metadata
     id="metadata16"><rdf:RDF><cc:Work
         rdf:about=""><dc:format>image/svg+xml</dc:format><dc:type
           rdf:resource="http://purl.org/dc/dcmitype/StillImage" /><dc:title></dc:title></cc:Work></rdf:RDF></metadata><defs
     id="defs14" /><sodipodi:namedview
     pagecolor="#ffffff"
     bordercolor="#666666"
     borderopacity="1"
     objecttolerance="10"
     gridtolerance="10"
     guidetolerance="10"
     inkscape:pageopacity="0"
     inkscape:pageshadow="2"
     inkscape:window-width="1283"
     inkscape:window-height="691"
     id="namedview12"
     showgrid="false"
     inkscape:zoom="0.67320819"
     inkscape:cx="586"
     inkscape:cy="208"
     inkscape:window-x="0"
     inkscape:window-y="0"
     inkscape:window-maximized="0"
     inkscape:current-layer="g18" /><g
     id="g18"
     inkscape:groupmode="layer"
     inkscape:label="helix_one_switch_plate"
     transform="matrix(1.3333333,0,0,-1.3333333,0,416)"><path
       d="m 14.1732,257.719 c 0,3.993 0,7.459 0,10.292 0,27.234 2.7796,29.816 27.1957,29.816 128.2551,0 317.6601,-42.02 398.0011,-40.83 80.341,1.19 274.216,40.83 397.984,40.83 24.15,0 27.184,-2.751 27.213,-29.764 0.031,-29.141 0,-153.693 0,-182.8347 0,-15.3009 -8.823,-20.4647 -23.967,-22.6502 C 760.188,50.9735 536.182,14.3622 439.37,14.3622 c -81.244,0 -320.818,36.6114 -401.2294,48.216 -11.9654,1.7268 -23.967,1.9847 -23.967,22.6501 0,34.9707 -2e-4,105.5277 -3e-4,150.5317 z"
       style="fill:none;stroke:#000000;stroke-width:0.30000001;stroke-linecap:butt;stroke-linejoin:miter;stroke-miterlimit:10;stroke-dasharray:none;stroke-opacity:1"
       id="path20"
       inkscape:connector-curvature="0" /><path
       d="m 837.917,297.976 c 4.997,-0.014 10.037,0.028 14.914,-1.06 3.114,-0.694 6.225,-2.13 8.129,-4.769 3.362,-4.662 3.454,-11.052 3.655,-17.104 0.243,-7.323 0.108,-14.667 0.111,-22.008 0.014,-55.875 0.12,-111.664 -0.009,-167.9862 -0.042,-6.0395 -1.644,-12.2376 -6.455,-16.2601 C 853.447,64.7622 847.02,63.3909 840.975,62.4815 736.144,47.1423 632.88,30.1431 528.26,19.7799 c -34.366,-3.4041 -68.811,-6.61 -103.594,-5.2492 -31.026,1.2139 -62.007,4.497 -92.955,7.9423 -94.38,10.5069 -188.129,24.5563 -281.2677,38.1664 -5.9669,0.8698 -11.9615,1.6697 -17.8911,2.5759 -5.6058,0.8732 -11.4388,2.4186 -14.8141,7.068 -3.0604,4.2156 -3.6795,9.6885 -3.7139,14.7031 -0.1309,57.5686 -9e-4,115.0986 -0.001,172.7326 0,8.513 -0.4467,17.109 0.6751,25.484 0.563,4.203 1.6395,8.538 5.0637,11.179 3.9125,3.017 9.1633,3.234 13.8772,3.453 7.1474,0.331 14.3114,0.144 21.4792,-0.01 40.4634,-0.871 80.7686,-4.925 120.9846,-9.77 56.824,-6.844 113.353,-15.808 170.388,-23.168 25.986,-3.354 52.069,-6.568 78.214,-7.542 28.665,-1.067 57.362,2.35 86.039,5.795 91.77,11.023 182.858,27.064 275.636,33.028 17.149,1.102 34.239,1.824 51.537,1.808 z m -797.1162,-0.3 c -5.1084,-0.013 -10.2421,0.075 -15.284,-1.099 -2.8333,-0.66 -5.6561,-1.952 -7.4493,-4.335 -3.4755,-4.621 -3.4718,-11.112 -3.6555,-17.208 -0.1739,-5.77 -0.0888,-11.543 -0.0888,-17.315 10e-5,-57.634 -0.3932,-115.311 0.0026,-172.9699 0.0748,-6.4969 1.326,-13.5125 6.8089,-17.407 C 25.9132,63.948 32.045,63.5824 37.6007,62.8067 140.603,48.1235 244.206,31.9735 347.081,21.1061 c 34.637,-3.659 69.514,-7.3319 104.196,-6.43 30.812,0.8011 61.525,3.7098 92.202,6.9691 88.941,9.4497 177.242,23.1023 265.914,36.4567 10.979,1.6498 22.117,3.1261 32.928,4.8944 1.84,0.3093 3.672,0.6755 5.476,1.154 5.555,1.4732 11.216,4.2135 14.13,9.5566 1.828,3.3531 2.445,7.2917 2.488,11.1661 0.086,12.3854 0.004,24.755 0.006,37.119 0.007,48.925 0.09,97.927 -0.005,146.699 -0.023,5.948 0.06,11.968 -1.329,17.712 -0.782,3.231 -2.37,6.463 -5.275,8.284 -4.701,2.947 -10.777,2.863 -16.685,2.962 -15.526,0.259 -31.109,-0.414 -46.651,-1.292 -27.695,-1.565 -55.295,-4.22 -82.817,-7.313 -60.16,-6.76 -120.078,-15.876 -180.103,-23.609 -27.641,-3.561 -55.367,-7.119 -83.293,-8.323 -23.767,-1.024 -47.601,1.178 -71.322,3.797 -39.692,4.381 -79.119,10.331 -118.625,15.908 -55.235,7.782 -110.573,15.427 -166.3272,19.057 -17.0291,1.109 -33.9092,1.817 -51.188,1.802 z"
       style="fill:#000000;fill-opacity:1;fill-rule:evenodd;stroke:none"
       id="path22"
       inkscape:connector-curvature="0" /><path
       d="m 528.518,73.467 6.21,-39.1958 39.196,6.2071 -6.207,39.1958 z"
       style="fill:none;stroke:#000000;stroke-width:0.40180001;stroke-linecap:butt;stroke-linejoin:miter;stroke-miterlimit:10;stroke-dasharray:none;stroke-opacity:1"
       id="path24"
       inkscape:connector-curvature="0" /><path
       d="m 473.073,78.3527 6.207,-39.1958 39.196,6.207 -6.207,39.1987 z"
       style="fill:none;stroke:#000000;stroke-width:0.40180001;stroke-linecap:butt;stroke-linejoin:miter;stroke-miterlimit:10;stroke-dasharray:none;stroke-opacity:1"
       id="path26"
       inkscape:connector-curvature="0" /><path
       d="m 581.853,81.9158 6.21,-39.1986 39.196,6.2099 -6.207,39.1958 z"
       style="fill:none;stroke:#000000;stroke-width:0.40180001;stroke-linecap:butt;stroke-linejoin:miter;stroke-miterlimit:10;stroke-dasharray:none;stroke-opacity:1"
       id="path28"
       inkscape:connector-curvature="0" /><path
       d="m 635.189,90.3618 6.209,-39.1958 39.196,6.2071 -6.207,39.1958 z"
       style="fill:none;stroke:#000000;stroke-width:0.40180001;stroke-linecap:butt;stroke-linejoin:miter;stroke-miterlimit:10;stroke-dasharray:none;stroke-opacity:1"
       id="path30"
       inkscape:connector-curvature="0" /><path
       d="m 688.524,98.8106 6.21,-39.1986 39.195,6.2099 -6.207,39.1961 z"
       style="fill:none;stroke:#000000;stroke-width:0.40180001;stroke-linecap:butt;stroke-linejoin:miter;stroke-miterlimit:10;stroke-dasharray:none;stroke-opacity:1"
       id="path32"
       inkscape:connector-curvature="0" /><path
       d="m 741.862,107.257 6.207,-39.1962 39.195,6.207 -6.207,39.1992 z"
       style="fill:none;stroke:#000000;stroke-width:0.40180001;stroke-linecap:butt;stroke-linejoin:miter;stroke-miterlimit:10;stroke-dasharray:none;stroke-opacity:1"
       id="path34"
       inkscape:connector-curvature="0" /><path
       d="m 795.197,115.705 6.207,-39.1982 39.196,6.2099 -6.208,39.1953 z"
       style="fill:none;stroke:#000000;stroke-width:0.40180001;stroke-linecap:butt;stroke-linejoin:miter;stroke-miterlimit:10;stroke-dasharray:none;stroke-opacity:1"
       id="path36"
       inkscape:connector-curvature="0" /><path
       d="m 520.072,126.802 6.207,-39.1957 39.196,6.207 -6.207,39.1957 z"
       style="fill:none;stroke:#000000;stroke-width:0.40180001;stroke-linecap:butt;stroke-linejoin:miter;stroke-miterlimit:10;stroke-dasharray:none;stroke-opacity:1"
       id="path38"
       inkscape:connector-curvature="0" /><path
       d="m 573.407,135.251 6.208,-39.1987 39.198,6.2097 -6.21,39.196 z"
       style="fill:none;stroke:#000000;stroke-width:0.40180001;stroke-linecap:butt;stroke-linejoin:miter;stroke-miterlimit:10;stroke-dasharray:none;stroke-opacity:1"
       id="path40"
       inkscape:connector-curvature="0" /><path
       d="m 626.743,143.697 6.207,-39.196 39.198,6.207 -6.21,39.196 z"
       style="fill:none;stroke:#000000;stroke-width:0.40180001;stroke-linecap:butt;stroke-linejoin:miter;stroke-miterlimit:10;stroke-dasharray:none;stroke-opacity:1"
       id="path42"
       inkscape:connector-curvature="0" /><path
       d="m 462.514,145.022 6.207,-39.196 39.196,6.208 -6.207,39.195 z"
       style="fill:none;stroke:#000000;stroke-width:0.40180001;stroke-linecap:butt;stroke-linejoin:miter;stroke-miterlimit:10;stroke-dasharray:none;stroke-opacity:1"
       id="path44"
       inkscape:connector-curvature="0" /><path
       d="m 680.078,152.146 6.207,-39.199 39.198,6.21 -6.21,39.196 z"
       style="fill:none;stroke:#000000;stroke-width:0.40180001;stroke-linecap:butt;stroke-linejoin:miter;stroke-miterlimit:10;stroke-dasharray:none;stroke-opacity:1"
       id="path46"
       inkscape:connector-curvature="0" /><path
       d="m 733.413,160.592 6.207,-39.196 39.198,6.207 -6.209,39.199 z"
       style="fill:none;stroke:#000000;stroke-width:0.40180001;stroke-linecap:butt;stroke-linejoin:miter;stroke-miterlimit:10;stroke-dasharray:none;stroke-opacity:1"
       id="path48"
       inkscape:connector-curvature="0" /><path
       d="m 786.748,169.04 6.207,-39.198 39.199,6.21 -6.21,39.196 z"
       style="fill:none;stroke:#000000;stroke-width:0.40180001;stroke-linecap:butt;stroke-linejoin:miter;stroke-miterlimit:10;stroke-dasharray:none;stroke-opacity:1"
       id="path50"
       inkscape:connector-curvature="0" /><path
       d="m 511.624,180.137 6.209,-39.196 39.196,6.207 -6.207,39.196 z"
       style="fill:none;stroke:#000000;stroke-width:0.40180001;stroke-linecap:butt;stroke-linejoin:miter;stroke-miterlimit:10;stroke-dasharray:none;stroke-opacity:1"
       id="path52"
       inkscape:connector-curvature="0" /><path
       d="m 564.959,188.586 6.21,-39.199 39.195,6.21 -6.207,39.196 z"
       style="fill:none;stroke:#000000;stroke-width:0.40180001;stroke-linecap:butt;stroke-linejoin:miter;stroke-miterlimit:10;stroke-dasharray:none;stroke-opacity:1"
       id="path54"
       inkscape:connector-curvature="0" /><path
       d="m 618.294,197.032 6.21,-39.196 39.195,6.207 -6.207,39.199 z"
       style="fill:none;stroke:#000000;stroke-width:0.40180001;stroke-linecap:butt;stroke-linejoin:miter;stroke-miterlimit:10;stroke-dasharray:none;stroke-opacity:1"
       id="path56"
       inkscape:connector-curvature="0" /><path
       d="m 671.629,205.481 6.21,-39.199 39.196,6.21 -6.208,39.196 z"
       style="fill:none;stroke:#000000;stroke-width:0.40180001;stroke-linecap:butt;stroke-linejoin:miter;stroke-miterlimit:10;stroke-dasharray:none;stroke-opacity:1"
       id="path58"
       inkscape:connector-curvature="0" /><path
       d="m 724.964,213.927 6.21,-39.196 39.196,6.207 -6.207,39.199 z"
       style="fill:none;stroke:#000000;stroke-width:0.40180001;stroke-linecap:butt;stroke-linejoin:miter;stroke-miterlimit:10;stroke-dasharray:none;stroke-opacity:1"
       id="path60"
       inkscape:connector-curvature="0" /><path
       d="m 778.299,222.376 6.21,-39.199 39.196,6.21 -6.207,39.196 z"
       style="fill:none;stroke:#000000;stroke-width:0.40180001;stroke-linecap:butt;stroke-linejoin:miter;stroke-miterlimit:10;stroke-dasharray:none;stroke-opacity:1"
       id="path62"
       inkscape:connector-curvature="0" /><path
       d="m 503.178,233.472 6.207,-39.196 39.195,6.208 -6.207,39.195 z"
       style="fill:none;stroke:#000000;stroke-width:0.40180001;stroke-linecap:butt;stroke-linejoin:miter;stroke-miterlimit:10;stroke-dasharray:none;stroke-opacity:1"
       id="path64"
       inkscape:connector-curvature="0" /><path
       d="m 556.513,241.921 6.207,-39.199 39.196,6.21 -6.208,39.196 z"
       style="fill:none;stroke:#000000;stroke-width:0.40180001;stroke-linecap:butt;stroke-linejoin:miter;stroke-miterlimit:10;stroke-dasharray:none;stroke-opacity:1"
       id="path66"
       inkscape:connector-curvature="0" /><path
       d="m 609.848,250.367 6.207,-39.196 39.196,6.207 -6.207,39.199 z"
       style="fill:none;stroke:#000000;stroke-width:0.40180001;stroke-linecap:butt;stroke-linejoin:miter;stroke-miterlimit:10;stroke-dasharray:none;stroke-opacity:1"
       id="path68"
       inkscape:connector-curvature="0" /><path
       d="m 663.183,258.816 6.207,-39.199 39.199,6.21 -6.21,39.196 z"
       style="fill:none;stroke:#000000;stroke-width:0.40180001;stroke-linecap:butt;stroke-linejoin:miter;stroke-miterlimit:10;stroke-dasharray:none;stroke-opacity:1"
       id="path70"
       inkscape:connector-curvature="0" /><path
       d="m 716.518,267.262 6.207,-39.196 39.199,6.207 -6.21,39.199 z"
       style="fill:none;stroke:#000000;stroke-width:0.40180001;stroke-linecap:butt;stroke-linejoin:miter;stroke-miterlimit:10;stroke-dasharray:none;stroke-opacity:1"
       id="path72"
       inkscape:connector-curvature="0" /><path
       d="m 769.853,275.711 6.207,-39.196 39.199,6.207 -6.21,39.196 z"
       style="fill:none;stroke:#000000;stroke-width:0.40180001;stroke-linecap:butt;stroke-linejoin:miter;stroke-miterlimit:10;stroke-dasharray:none;stroke-opacity:1"
       id="path74"
       inkscape:connector-curvature="0" /><path
       d="m 304.816,40.4797 39.196,-6.2099 6.21,39.1986 -39.196,6.2071 z"
       style="fill:none;stroke:#000000;stroke-width:0.40180001;stroke-linecap:butt;stroke-linejoin:miter;stroke-miterlimit:10;stroke-dasharray:none;stroke-opacity:1"
       id="path76"
       inkscape:connector-curvature="0" /><path
       d="m 360.264,45.3653 39.196,-6.207 6.207,39.1958 -39.196,6.2071 z"
       style="fill:none;stroke:#000000;stroke-width:0.40180001;stroke-linecap:butt;stroke-linejoin:miter;stroke-miterlimit:10;stroke-dasharray:none;stroke-opacity:1"
       id="path78"
       inkscape:connector-curvature="0" /><path
       d="m 251.481,48.9257 39.196,-6.2043 6.21,39.193 -39.196,6.2099 z"
       style="fill:none;stroke:#000000;stroke-width:0.40180001;stroke-linecap:butt;stroke-linejoin:miter;stroke-miterlimit:10;stroke-dasharray:none;stroke-opacity:1"
       id="path80"
       inkscape:connector-curvature="0" /><path
       d="m 198.146,57.3745 39.196,-6.2071 6.21,39.1958 -39.196,6.207 z"
       style="fill:none;stroke:#000000;stroke-width:0.40180001;stroke-linecap:butt;stroke-linejoin:miter;stroke-miterlimit:10;stroke-dasharray:none;stroke-opacity:1"
       id="path82"
       inkscape:connector-curvature="0" /><path
       d="m 144.811,65.8205 39.196,-6.2071 6.21,39.1958 -39.196,6.2098 z"
       style="fill:none;stroke:#000000;stroke-width:0.40180001;stroke-linecap:butt;stroke-linejoin:miter;stroke-miterlimit:10;stroke-dasharray:none;stroke-opacity:1"
       id="path84"
       inkscape:connector-curvature="0" /><path
       d="m 91.4758,74.2693 39.1962,-6.2071 6.209,39.1958 -39.1954,6.207 z"
       style="fill:none;stroke:#000000;stroke-width:0.40180001;stroke-linecap:butt;stroke-linejoin:miter;stroke-miterlimit:10;stroke-dasharray:none;stroke-opacity:1"
       id="path86"
       inkscape:connector-curvature="0" /><path
       d="m 38.1406,82.7152 39.1959,-6.207 6.2098,39.1958 -39.1986,6.21 z"
       style="fill:none;stroke:#000000;stroke-width:0.40180001;stroke-linecap:butt;stroke-linejoin:miter;stroke-miterlimit:10;stroke-dasharray:none;stroke-opacity:1"
       id="path88"
       inkscape:connector-curvature="0" /><path
       d="m 313.265,93.8148 39.196,-6.2099 6.207,39.1991 -39.196,6.207 z"
       style="fill:none;stroke:#000000;stroke-width:0.40180001;stroke-linecap:butt;stroke-linejoin:miter;stroke-miterlimit:10;stroke-dasharray:none;stroke-opacity:1"
       id="path90"
       inkscape:connector-curvature="0" /><path
       d="m 259.93,102.261 39.196,-6.2073 6.207,39.1963 -39.196,6.209 z"
       style="fill:none;stroke:#000000;stroke-width:0.40180001;stroke-linecap:butt;stroke-linejoin:miter;stroke-miterlimit:10;stroke-dasharray:none;stroke-opacity:1"
       id="path92"
       inkscape:connector-curvature="0" /><path
       d="m 206.595,110.71 39.196,-6.208 6.207,39.196 -39.196,6.207 z"
       style="fill:none;stroke:#000000;stroke-width:0.40180001;stroke-linecap:butt;stroke-linejoin:miter;stroke-miterlimit:10;stroke-dasharray:none;stroke-opacity:1"
       id="path94"
       inkscape:connector-curvature="0" /><path
       d="m 370.823,112.035 39.196,-6.21 6.21,39.199 -39.199,6.207 z"
       style="fill:none;stroke:#000000;stroke-width:0.40180001;stroke-linecap:butt;stroke-linejoin:miter;stroke-miterlimit:10;stroke-dasharray:none;stroke-opacity:1"
       id="path96"
       inkscape:connector-curvature="0" /><path
       d="m 153.26,119.156 39.195,-6.208 6.208,39.196 -39.196,6.21 z"
       style="fill:none;stroke:#000000;stroke-width:0.40180001;stroke-linecap:butt;stroke-linejoin:miter;stroke-miterlimit:10;stroke-dasharray:none;stroke-opacity:1"
       id="path98"
       inkscape:connector-curvature="0" /><path
       d="m 99.9246,127.604 39.1954,-6.207 6.205,39.196 -39.193,6.207 z"
       style="fill:none;stroke:#000000;stroke-width:0.40180001;stroke-linecap:butt;stroke-linejoin:miter;stroke-miterlimit:10;stroke-dasharray:none;stroke-opacity:1"
       id="path100"
       inkscape:connector-curvature="0" /><path
       d="m 46.5894,136.05 39.1959,-6.207 6.207,39.196 -39.1957,6.21 z"
       style="fill:none;stroke:#000000;stroke-width:0.40180001;stroke-linecap:butt;stroke-linejoin:miter;stroke-miterlimit:10;stroke-dasharray:none;stroke-opacity:1"
       id="path102"
       inkscape:connector-curvature="0" /><path
       d="m 321.711,147.15 39.199,-6.207 6.207,39.196 -39.196,6.207 z"
       style="fill:none;stroke:#000000;stroke-width:0.40180001;stroke-linecap:butt;stroke-linejoin:miter;stroke-miterlimit:10;stroke-dasharray:none;stroke-opacity:1"
       id="path104"
       inkscape:connector-curvature="0" /><path
       d="m 268.376,155.596 39.196,-6.207 6.21,39.196 -39.196,6.209 z"
       style="fill:none;stroke:#000000;stroke-width:0.40180001;stroke-linecap:butt;stroke-linejoin:miter;stroke-miterlimit:10;stroke-dasharray:none;stroke-opacity:1"
       id="path106"
       inkscape:connector-curvature="0" /><path
       d="m 215.041,164.045 39.196,-6.207 6.209,39.195 -39.195,6.207 z"
       style="fill:none;stroke:#000000;stroke-width:0.40180001;stroke-linecap:butt;stroke-linejoin:miter;stroke-miterlimit:10;stroke-dasharray:none;stroke-opacity:1"
       id="path108"
       inkscape:connector-curvature="0" /><path
       d="m 161.706,172.491 39.195,-6.207 6.21,39.195 -39.195,6.21 z"
       style="fill:none;stroke:#000000;stroke-width:0.40180001;stroke-linecap:butt;stroke-linejoin:miter;stroke-miterlimit:10;stroke-dasharray:none;stroke-opacity:1"
       id="path110"
       inkscape:connector-curvature="0" /><path
       d="m 108.371,180.939 39.195,-6.207 6.21,39.196 -39.196,6.207 z"
       style="fill:none;stroke:#000000;stroke-width:0.40180001;stroke-linecap:butt;stroke-linejoin:miter;stroke-miterlimit:10;stroke-dasharray:none;stroke-opacity:1"
       id="path112"
       inkscape:connector-curvature="0" /><path
       d="m 55.0326,189.386 39.1986,-6.208 6.2098,39.196 -39.1956,6.21 z"
       style="fill:none;stroke:#000000;stroke-width:0.40180001;stroke-linecap:butt;stroke-linejoin:miter;stroke-miterlimit:10;stroke-dasharray:none;stroke-opacity:1"
       id="path114"
       inkscape:connector-curvature="0" /><path
       d="m 330.16,200.485 39.196,-6.207 6.207,39.196 -39.196,6.207 z"
       style="fill:none;stroke:#000000;stroke-width:0.40180001;stroke-linecap:butt;stroke-linejoin:miter;stroke-miterlimit:10;stroke-dasharray:none;stroke-opacity:1"
       id="path116"
       inkscape:connector-curvature="0" /><path
       d="m 276.825,208.931 39.195,-6.207 6.208,39.196 -39.196,6.21 z"
       style="fill:none;stroke:#000000;stroke-width:0.40180001;stroke-linecap:butt;stroke-linejoin:miter;stroke-miterlimit:10;stroke-dasharray:none;stroke-opacity:1"
       id="path118"
       inkscape:connector-curvature="0" /><path
       d="m 223.49,217.38 39.195,-6.207 6.207,39.196 -39.195,6.207 z"
       style="fill:none;stroke:#000000;stroke-width:0.40180001;stroke-linecap:butt;stroke-linejoin:miter;stroke-miterlimit:10;stroke-dasharray:none;stroke-opacity:1"
       id="path120"
       inkscape:connector-curvature="0" /><path
       d="m 170.154,225.826 39.196,-6.207 6.207,39.196 -39.195,6.209 z"
       style="fill:none;stroke:#000000;stroke-width:0.40180001;stroke-linecap:butt;stroke-linejoin:miter;stroke-miterlimit:10;stroke-dasharray:none;stroke-opacity:1"
       id="path122"
       inkscape:connector-curvature="0" /><path
       d="m 116.819,234.275 39.196,-6.208 6.207,39.196 -39.196,6.207 z"
       style="fill:none;stroke:#000000;stroke-width:0.40180001;stroke-linecap:butt;stroke-linejoin:miter;stroke-miterlimit:10;stroke-dasharray:none;stroke-opacity:1"
       id="path124"
       inkscape:connector-curvature="0" /><path
       d="m 63.4843,242.723 39.1957,-6.21 6.207,39.196 -39.1957,6.21 z"
       style="fill:none;stroke:#000000;stroke-width:0.40180001;stroke-linecap:butt;stroke-linejoin:miter;stroke-miterlimit:10;stroke-dasharray:none;stroke-opacity:1"
       id="path126"
       inkscape:connector-curvature="0" /><path
       d="m 47.6456,295.558 c 1.7209,0 3.1181,-1.397 3.1181,-3.118 0,-1.721 -1.3972,-3.118 -3.1181,-3.118 -1.7209,0 -3.1181,1.397 -3.1181,3.118 0,1.721 1.3972,3.118 3.1181,3.118 z"
       style="fill:none;stroke:#000000;stroke-width:0.30000001;stroke-linecap:butt;stroke-linejoin:miter;stroke-miterlimit:10;stroke-dasharray:none;stroke-opacity:1"
       id="path128"
       inkscape:connector-curvature="0" /><path
       d="m 19.8214,269.751 c 1.7209,0 3.1181,-1.397 3.1181,-3.118 0,-1.721 -1.3972,-3.118 -3.1181,-3.118 -1.7209,0 -3.1181,1.397 -3.1181,3.118 0,1.721 1.3972,3.118 3.1181,3.118 z"
       style="fill:none;stroke:#000000;stroke-width:0.30000001;stroke-linecap:butt;stroke-linejoin:miter;stroke-miterlimit:10;stroke-dasharray:none;stroke-opacity:1"
       id="path130"
       inkscape:connector-curvature="0" /><path
       d="m 19.8214,228.501 c 1.7209,0 3.1181,-1.397 3.1181,-3.118 0,-1.721 -1.3972,-3.118 -3.1181,-3.118 -1.7209,0 -3.1181,1.397 -3.1181,3.118 0,1.721 1.3972,3.118 3.1181,3.118 z"
       style="fill:none;stroke:#000000;stroke-width:0.30000001;stroke-linecap:butt;stroke-linejoin:miter;stroke-miterlimit:10;stroke-dasharray:none;stroke-opacity:1"
       id="path132"
       inkscape:connector-curvature="0" /><path
       d="m 476.191,256.236 c 1.721,0 3.118,-1.398 3.118,-3.118 0,-1.721 -1.397,-3.119 -3.118,-3.119 -1.721,0 -3.118,1.398 -3.118,3.119 0,1.72 1.397,3.118 3.118,3.118 z"
       style="fill:none;stroke:#000000;stroke-width:0.30000001;stroke-linecap:butt;stroke-linejoin:miter;stroke-miterlimit:10;stroke-dasharray:none;stroke-opacity:1"
       id="path134"
       inkscape:connector-curvature="0" /><path
       d="m 401.543,255.236 c 1.721,0 3.118,-1.398 3.118,-3.118 0,-1.721 -1.397,-3.119 -3.118,-3.119 -1.721,0 -3.118,1.398 -3.118,3.119 0,1.72 1.397,3.118 3.118,3.118 z"
       style="fill:none;stroke:#000000;stroke-width:0.30000001;stroke-linecap:butt;stroke-linejoin:miter;stroke-miterlimit:10;stroke-dasharray:none;stroke-opacity:1"
       id="path136"
       inkscape:connector-curvature="0" /><path
       d="m 476.781,24.6927 c 1.721,0 3.118,-1.3972 3.118,-3.1181 0,-1.7209 -1.397,-3.1181 -3.118,-3.1181 -1.721,0 -3.118,1.3972 -3.118,3.1181 0,1.7209 1.397,3.1181 3.118,3.1181 z"
       style="fill:none;stroke:#000000;stroke-width:0.30000001;stroke-linecap:butt;stroke-linejoin:miter;stroke-miterlimit:10;stroke-dasharray:none;stroke-opacity:1"
       id="path138"
       inkscape:connector-curvature="0" /><path
       d="m 402.133,24.6927 c 1.721,0 3.118,-1.3972 3.118,-3.1181 0,-1.7209 -1.397,-3.1181 -3.118,-3.1181 -1.721,0 -3.118,1.3972 -3.118,3.1181 0,1.7209 1.397,3.1181 3.118,3.1181 z"
       style="fill:none;stroke:#000000;stroke-width:0.30000001;stroke-linecap:butt;stroke-linejoin:miter;stroke-miterlimit:10;stroke-dasharray:none;stroke-opacity:1"
       id="path140"
       inkscape:connector-curvature="0" /><path
       d="m 854.269,290.558 c 1.721,0 3.118,-1.397 3.118,-3.118 0,-1.721 -1.397,-3.118 -3.118,-3.118 -1.721,0 -3.118,1.397 -3.118,3.118 0,1.721 1.397,3.118 3.118,3.118 z"
       style="fill:none;stroke:#000000;stroke-width:0.30000001;stroke-linecap:butt;stroke-linejoin:miter;stroke-miterlimit:10;stroke-dasharray:none;stroke-opacity:1"
       id="path142"
       inkscape:connector-curvature="0" /><path
       d="m 23.6456,78.212 c 1.7209,0 3.1181,-1.3971 3.1181,-3.1181 0,-1.7209 -1.3972,-3.1181 -3.1181,-3.1181 -1.7209,0 -3.1181,1.3972 -3.1181,3.1181 0,1.721 1.3972,3.1181 3.1181,3.1181 z"
       style="fill:none;stroke:#000000;stroke-width:0.30000001;stroke-linecap:butt;stroke-linejoin:miter;stroke-miterlimit:10;stroke-dasharray:none;stroke-opacity:1"
       id="path144"
       inkscape:connector-curvature="0" /><path
       d="m 854.269,78.212 c 1.721,0 3.118,-1.3971 3.118,-3.1181 0,-1.7209 -1.397,-3.1181 -3.118,-3.1181 -1.721,0 -3.118,1.3972 -3.118,3.1181 0,1.721 1.397,3.1181 3.118,3.1181 z"
       style="fill:none;stroke:#000000;stroke-width:0.30000001;stroke-linecap:butt;stroke-linejoin:miter;stroke-miterlimit:10;stroke-dasharray:none;stroke-opacity:1"
       id="path146"
       inkscape:connector-curvature="0" /><path
       d="m 858.944,201.92 c 1.721,0 3.119,-1.397 3.119,-3.118 0,-1.721 -1.398,-3.118 -3.119,-3.118 -1.721,0 -3.118,1.397 -3.118,3.118 0,1.721 1.397,3.118 3.118,3.118 z"
       style="fill:none;stroke:#000000;stroke-width:0.30000001;stroke-linecap:butt;stroke-linejoin:miter;stroke-miterlimit:10;stroke-dasharray:none;stroke-opacity:1"
       id="path148"
       inkscape:connector-curvature="0" /><path
       d="m 858.944,147.426 c 1.721,0 3.119,-1.397 3.119,-3.118 0,-1.721 -1.398,-3.118 -3.119,-3.118 -1.721,0 -3.118,1.397 -3.118,3.118 0,1.721 1.397,3.118 3.118,3.118 z"
       style="fill:none;stroke:#000000;stroke-width:0.30000001;stroke-linecap:butt;stroke-linejoin:miter;stroke-miterlimit:10;stroke-dasharray:none;stroke-opacity:1"
       id="path150"
       inkscape:connector-curvature="0" /></g></svg>