  0
SECTION
  2
HEADER
  9
$ACADVER
  1
AC1014
  9
$HANDSEED
  5
FFFF
  9
$MEASUREMENT
 70
     1
  0
ENDSEC
  0
SECTION
  2
TABLES
  0
TABLE
  2
VPORT
  5
8
330
0
100
AcDbSymbolTable
 70
     4
  0
VPORT
  5
2E
330
8
100
AcDbSymbolTableRecord
100
AcDbViewportTableRecord
  2
*ACTIVE
 70
     0
 10
0.0
 20
0.0
 11
1.0
 21
1.0
 12
210.0
 22
148.5
 13
0.0
 23
0.0
 14
10.0
 24
10.0
 15
10.0
 25
10.0
 16
0.0
 26
0.0
 36
1.0
 17
0.0
 27
0.0
 37
0.0
 40
341.0
 41
1.24
 42
50.0
 43
0.0
 44
0.0
 50
0.0
 51
0.0
 71
     0
 72
   100
 73
     1
 74
     3
 75
     0
 76
     0
 77
     0
 78
     0
  0
ENDTAB
  0
TABLE
  2
LTYPE
  5
5
330
0
100
AcDbSymbolTable
 70
     1
  0
LTYPE
  5
14
330
5
100
AcDbSymbolTableRecord
100
AcDbLinetypeTableRecord
  2
BYBLOCK
 70
     0
  3

 72
    65
 73
     0
 40
0.0
  0
LTYPE
  5
15
330
5
100
AcDbSymbolTableRecord
100
AcDbLinetypeTableRecord
  2
BYLAYER
 70
     0
  3

 72
    65
 73
     0
 40
0.0
  0
LTYPE
  5
16
330
5
100
AcDbSymbolTableRecord
100
AcDbLinetypeTableRecord
  2
CONTINUOUS
 70
     0
  3
Solid line
 72
    65
 73
     0
 40
0.0
  0
ENDTAB
  0
TABLE
  2
LAYER
  5
2
100
AcDbSymbolTable
 70
1
  0
LAYER
  5
50
100
AcDbSymbolTableRecord
100
AcDbLayerTableRecord
  2
0
 70
0
  6
CONTINUOUS
  0
ENDTAB
  0
TABLE
  2
STYLE
  5
3
330
0
100
AcDbSymbolTable
 70
     1
  0
STYLE
  5
11
330
3
100
AcDbSymbolTableRecord
100
AcDbTextStyleTableRecord
  2
STANDARD
 70
     0
 40
0.0
 41
1.0
 50
0.0
 71
     0
 42
2.5
  3
txt
  4

  0
ENDTAB
  0
TABLE
  2
VIEW
  5
6
330
0
100
AcDbSymbolTable
 70
     0
  0
ENDTAB
  0
TABLE
  2
UCS
  5
7
330
0
100
AcDbSymbolTable
 70
     0
  0
ENDTAB
  0
TABLE
  2
APPID
  5
9
330
0
100
AcDbSymbolTable
 70
     2
  0
APPID
  5
12
330
9
100
AcDbSymbolTableRecord
100
AcDbRegAppTableRecord
  2
ACAD
 70
     0
  0
ENDTAB
  0
TABLE
  2
DIMSTYLE
  5
A
330
0
100
AcDbSymbolTable
 70
     1
  0
DIMSTYLE
105
27
330
A
100
AcDbSymbolTableRecord
100
AcDbDimStyleTableRecord
  2
ISO-25
 70
     0
  3

  4

  5

  6

  7

 40
1.0
 41
2.5
 42
0.625
 43
3.75
 44
1.25
 45
0.0
 46
0.0
 47
0.0
 48
0.0
140
2.5
141
2.5
142
0.0
143
0.03937007874016
144
1.0
145
0.0
146
1.0
147
0.625
 71
     0
 72
     0
 73
     0
 74
     0
 75
     0
 76
     0
 77
     1
 78
     8
170
     0
171
     3
172
     1
173
     0
174
     0
175
     0
176
     0
177
     0
178
     0
270
     2
271
     2
272
     2
273
     2
274
     3
340
11
275
     0
280
     0
281
     0
282
     0
283
     0
284
     8
285
     0
286
     0
287
     3
288
     0
  0
ENDTAB
  0
TABLE
  2
BLOCK_RECORD
  5
1
330
0
100
AcDbSymbolTable
 70
     1
  0
BLOCK_RECORD
  5
1F
330
1
100
AcDbSymbolTableRecord
100
AcDbBlockTableRecord
  2
*MODEL_SPACE
  0
BLOCK_RECORD
  5
1B
330
1
100
AcDbSymbolTableRecord
100
AcDbBlockTableRecord
  2
*PAPER_SPACE
  0
ENDTAB
  0
ENDSEC
  0
SECTION
  2
BLOCKS
  0
BLOCK
  5
20
330
1F
100
AcDbEntity
  8
0
100
AcDbBlockBegin
  2
*MODEL_SPACE
 70
     0
 10
0.0
 20
0.0
 30
0.0
  3
*MODEL_SPACE
  1

  0
ENDBLK
  5
21
330
1F
100
AcDbEntity
  8
0
100
AcDbBlockEnd
  0
BLOCK
  5
1C
330
1B
100
AcDbEntity
 67
     1
  8
0
100
AcDbBlockBegin
  2
*PAPER_SPACE
  1

  0
ENDBLK
  5
1D
330
1B
100
AcDbEntity
 67
     1
  8
0
100
AcDbBlockEnd
  0
ENDSEC
  0
SECTION
  2
ENTITIES
  0
LINE
  5
100
100
AcDbEntity
  8
0
 62
7
100
AcDbLine
 10
4.999523
 20
90.850420
 30
0.0
 11
4.999523
 21
94.481551
 31
0.0
  0
LINE
  5
101
100
AcDbEntity
  8
0
 62
7
100
AcDbLine
 10
4.999523
 20
94.481551
 30
0.0
 11
5.002600
 21
95.357030
 31
0.0
  0
LINE
  5
102
100
AcDbEntity
  8
0
 62
7
100
AcDbLine
 10
5.002600
 20
95.357030
 30
0.0
 11
5.012644
 21
96.182977
 31
0.0
  0
LINE
  5
103
100
AcDbEntity
  8
0
 62
7
100
AcDbLine
 10
5.012644
 20
96.182977
 30
0.0
 11
5.030873
 21
96.960817
 31
0.0
  0
LINE
  5
104
100
AcDbEntity
  8
0
 62
7
100
AcDbLine
 10
5.030873
 20
96.960817
 30
0.0
 11
5.058504
 21
97.691976
 31
0.0
  0
LINE
  5
105
100
AcDbEntity
  8
0
 62
7
100
AcDbLine
 10
5.058504
 20
97.691976
 30
0.0
 11
5.096754
 21
98.377880
 31
0.0
  0
LINE
  5
106
100
AcDbEntity
  8
0
 62
7
100
AcDbLine
 10
5.096754
 20
98.377880
 30
0.0
 11
5.146843
 21
99.019955
 31
0.0
  0
LINE
  5
107
100
AcDbEntity
  8
0
 62
7
100
AcDbLine
 10
5.146843
 20
99.019955
 30
0.0
 11
5.209987
 21
99.619625
 31
0.0
  0
LINE
  5
108
100
AcDbEntity
  8
0
 62
7
100
AcDbLine
 10
5.209987
 20
99.619625
 30
0.0
 11
5.287403
 21
100.178318
 31
0.0
  0
LINE
  5
109
100
AcDbEntity
  8
0
 62
7
100
AcDbLine
 10
5.287403
 20
100.178318
 30
0.0
 11
5.331845
 21
100.442742
 31
0.0
  0
LINE
  5
10a
100
AcDbEntity
  8
0
 62
7
100
AcDbLine
 10
5.331845
 20
100.442742
 30
0.0
 11
5.380311
 21
100.697457
 31
0.0
  0
LINE
  5
10b
100
AcDbEntity
  8
0
 62
7
100
AcDbLine
 10
5.380311
 20
100.697457
 30
0.0
 11
5.432954
 21
100.942640
 31
0.0
  0
LINE
  5
10c
100
AcDbEntity
  8
0
 62
7
100
AcDbLine
 10
5.432954
 20
100.942640
 30
0.0
 11
5.489927
 21
101.178470
 31
0.0
  0
LINE
  5
10d
100
AcDbEntity
  8
0
 62
7
100
AcDbLine
 10
5.489927
 20
101.178470
 30
0.0
 11
5.551382
 21
101.405124
 31
0.0
  0
LINE
  5
10e
100
AcDbEntity
  8
0
 62
7
100
AcDbLine
 10
5.551382
 20
101.405124
 30
0.0
 11
5.617470
 21
101.622781
 31
0.0
  0
LINE
  5
10f
100
AcDbEntity
  8
0
 62
7
100
AcDbLine
 10
5.617470
 20
101.622781
 30
0.0
 11
5.688344
 21
101.831619
 31
0.0
  0
LINE
  5
110
100
AcDbEntity
  8
0
 62
7
100
AcDbLine
 10
5.688344
 20
101.831619
 30
0.0
 11
5.764156
 21
102.031817
 31
0.0
  0
LINE
  5
111
100
AcDbEntity
  8
0
 62
7
100
AcDbLine
 10
5.764156
 20
102.031817
 30
0.0
 11
5.845059
 21
102.223552
 31
0.0
  0
LINE
  5
112
100
AcDbEntity
  8
0
 62
7
100
AcDbLine
 10
5.845059
 20
102.223552
 30
0.0
 11
5.931204
 21
102.407002
 31
0.0
  0
LINE
  5
113
100
AcDbEntity
  8
0
 62
7
100
AcDbLine
 10
5.931204
 20
102.407002
 30
0.0
 11
6.022745
 21
102.582347
 31
0.0
  0
LINE
  5
114
100
AcDbEntity
  8
0
 62
7
100
AcDbLine
 10
6.022745
 20
102.582347
 30
0.0
 11
6.119832
 21
102.749763
 31
0.0
  0
LINE
  5
115
100
AcDbEntity
  8
0
 62
7
100
AcDbLine
 10
6.119832
 20
102.749763
 30
0.0
 11
6.222619
 21
102.909430
 31
0.0
  0
LINE
  5
116
100
AcDbEntity
  8
0
 62
7
100
AcDbLine
 10
6.222619
 20
102.909430
 30
0.0
 11
6.331257
 21
103.061526
 31
0.0
  0
LINE
  5
117
100
AcDbEntity
  8
0
 62
7
100
AcDbLine
 10
6.331257
 20
103.061526
 30
0.0
 11
6.445899
 21
103.206228
 31
0.0
  0
LINE
  5
118
100
AcDbEntity
  8
0
 62
7
100
AcDbLine
 10
6.445899
 20
103.206228
 30
0.0
 11
6.566696
 21
103.343715
 31
0.0
  0
LINE
  5
119
100
AcDbEntity
  8
0
 62
7
100
AcDbLine
 10
6.566696
 20
103.343715
 30
0.0
 11
6.693802
 21
103.474165
 31
0.0
  0
LINE
  5
11a
100
AcDbEntity
  8
0
 62
7
100
AcDbLine
 10
6.693802
 20
103.474165
 30
0.0
 11
6.827369
 21
103.597757
 31
0.0
  0
LINE
  5
11b
100
AcDbEntity
  8
0
 62
7
100
AcDbLine
 10
6.827369
 20
103.597757
 30
0.0
 11
6.967548
 21
103.714668
 31
0.0
  0
LINE
  5
11c
100
AcDbEntity
  8
0
 62
7
100
AcDbLine
 10
6.967548
 20
103.714668
 30
0.0
 11
7.114492
 21
103.825076
 31
0.0
  0
LINE
  5
11d
100
AcDbEntity
  8
0
 62
7
100
AcDbLine
 10
7.114492
 20
103.825076
 30
0.0
 11
7.268352
 21
103.929161
 31
0.0
  0
LINE
  5
11e
100
AcDbEntity
  8
0
 62
7
100
AcDbLine
 10
7.268352
 20
103.929161
 30
0.0
 11
7.429282
 21
104.027100
 31
0.0
  0
LINE
  5
11f
100
AcDbEntity
  8
0
 62
7
100
AcDbLine
 10
7.429282
 20
104.027100
 30
0.0
 11
7.597434
 21
104.119071
 31
0.0
  0
LINE
  5
120
100
AcDbEntity
  8
0
 62
7
100
AcDbLine
 10
7.597434
 20
104.119071
 30
0.0
 11
7.772959
 21
104.205253
 31
0.0
  0
LINE
  5
121
100
AcDbEntity
  8
0
 62
7
100
AcDbLine
 10
7.772959
 20
104.205253
 30
0.0
 11
7.956010
 21
104.285823
 31
0.0
  0
LINE
  5
122
100
AcDbEntity
  8
0
 62
7
100
AcDbLine
 10
7.956010
 20
104.285823
 30
0.0
 11
8.146739
 21
104.360961
 31
0.0
  0
LINE
  5
123
100
AcDbEntity
  8
0
 62
7
100
AcDbLine
 10
8.146739
 20
104.360961
 30
0.0
 11
8.345299
 21
104.430844
 31
0.0
  0
LINE
  5
124
100
AcDbEntity
  8
0
 62
7
100
AcDbLine
 10
8.345299
 20
104.430844
 30
0.0
 11
8.551841
 21
104.495650
 31
0.0
  0
LINE
  5
125
100
AcDbEntity
  8
0
 62
7
100
AcDbLine
 10
8.551841
 20
104.495650
 30
0.0
 11
8.766517
 21
104.555557
 31
0.0
  0
LINE
  5
126
100
AcDbEntity
  8
0
 62
7
100
AcDbLine
 10
8.766517
 20
104.555557
 30
0.0
 11
8.989481
 21
104.610745
 31
0.0
  0
LINE
  5
127
100
AcDbEntity
  8
0
 62
7
100
AcDbLine
 10
8.989481
 20
104.610745
 30
0.0
 11
9.220884
 21
104.661390
 31
0.0
  0
LINE
  5
128
100
AcDbEntity
  8
0
 62
7
100
AcDbLine
 10
9.220884
 20
104.661390
 30
0.0
 11
9.460878
 21
104.707672
 31
0.0
  0
LINE
  5
129
100
AcDbEntity
  8
0
 62
7
100
AcDbLine
 10
9.460878
 20
104.707672
 30
0.0
 11
9.709616
 21
104.749768
 31
0.0
  0
LINE
  5
12a
100
AcDbEntity
  8
0
 62
7
100
AcDbLine
 10
9.709616
 20
104.749768
 30
0.0
 11
9.967250
 21
104.787857
 31
0.0
  0
LINE
  5
12b
100
AcDbEntity
  8
0
 62
7
100
AcDbLine
 10
9.967250
 20
104.787857
 30
0.0
 11
10.509813
 21
104.852725
 31
0.0
  0
LINE
  5
12c
100
AcDbEntity
  8
0
 62
7
100
AcDbLine
 10
10.509813
 20
104.852725
 30
0.0
 11
11.089787
 21
104.903702
 31
0.0
  0
LINE
  5
12d
100
AcDbEntity
  8
0
 62
7
100
AcDbLine
 10
11.089787
 20
104.903702
 30
0.0
 11
11.708388
 21
104.942213
 31
0.0
  0
LINE
  5
12e
100
AcDbEntity
  8
0
 62
7
100
AcDbLine
 10
11.708388
 20
104.942213
 30
0.0
 11
12.366835
 21
104.969685
 31
0.0
  0
LINE
  5
12f
100
AcDbEntity
  8
0
 62
7
100
AcDbLine
 10
12.366835
 20
104.969685
 30
0.0
 11
13.066345
 21
104.987543
 31
0.0
  0
LINE
  5
130
100
AcDbEntity
  8
0
 62
7
100
AcDbLine
 10
13.066345
 20
104.987543
 30
0.0
 11
13.808135
 21
104.997212
 31
0.0
  0
LINE
  5
131
100
AcDbEntity
  8
0
 62
7
100
AcDbLine
 10
13.808135
 20
104.997212
 30
0.0
 11
14.593424
 21
105.000118
 31
0.0
  0
LINE
  5
132
100
AcDbEntity
  8
0
 62
7
100
AcDbLine
 10
14.593424
 20
105.000118
 30
0.0
 11
15.657810
 21
104.997418
 31
0.0
  0
LINE
  5
133
100
AcDbEntity
  8
0
 62
7
100
AcDbLine
 10
15.657810
 20
104.997418
 30
0.0
 11
16.729924
 21
104.989376
 31
0.0
  0
LINE
  5
134
100
AcDbEntity
  8
0
 62
7
100
AcDbLine
 10
16.729924
 20
104.989376
 30
0.0
 11
18.896646
 21
104.957607
 31
0.0
  0
LINE
  5
135
100
AcDbEntity
  8
0
 62
7
100
AcDbLine
 10
18.896646
 20
104.957607
 30
0.0
 11
21.092218
 21
104.905501
 31
0.0
  0
LINE
  5
136
100
AcDbEntity
  8
0
 62
7
100
AcDbLine
 10
21.092218
 20
104.905501
 30
0.0
 11
23.315264
 21
104.833745
 31
0.0
  0
LINE
  5
137
100
AcDbEntity
  8
0
 62
7
100
AcDbLine
 10
23.315264
 20
104.833745
 30
0.0
 11
25.564409
 21
104.743027
 31
0.0
  0
LINE
  5
138
100
AcDbEntity
  8
0
 62
7
100
AcDbLine
 10
25.564409
 20
104.743027
 30
0.0
 11
27.838281
 21
104.634036
 31
0.0
  0
LINE
  5
139
100
AcDbEntity
  8
0
 62
7
100
AcDbLine
 10
27.838281
 20
104.634036
 30
0.0
 11
30.135504
 21
104.507460
 31
0.0
  0
LINE
  5
13a
100
AcDbEntity
  8
0
 62
7
100
AcDbLine
 10
30.135504
 20
104.507460
 30
0.0
 11
32.454705
 21
104.363986
 31
0.0
  0
LINE
  5
13b
100
AcDbEntity
  8
0
 62
7
100
AcDbLine
 10
32.454705
 20
104.363986
 30
0.0
 11
34.794508
 21
104.204304
 31
0.0
  0
LINE
  5
13c
100
AcDbEntity
  8
0
 62
7
100
AcDbLine
 10
34.794508
 20
104.204304
 30
0.0
 11
37.153540
 21
104.029101
 31
0.0
  0
LINE
  5
13d
100
AcDbEntity
  8
0
 62
7
100
AcDbLine
 10
37.153540
 20
104.029101
 30
0.0
 11
39.530427
 21
103.839065
 31
0.0
  0
LINE
  5
13e
100
AcDbEntity
  8
0
 62
7
100
AcDbLine
 10
39.530427
 20
103.839065
 30
0.0
 11
41.923793
 21
103.634885
 31
0.0
  0
LINE
  5
13f
100
AcDbEntity
  8
0
 62
7
100
AcDbLine
 10
41.923793
 20
103.634885
 30
0.0
 11
44.332266
 21
103.417248
 31
0.0
  0
LINE
  5
140
100
AcDbEntity
  8
0
 62
7
100
AcDbLine
 10
44.332266
 20
103.417248
 30
0.0
 11
46.754469
 21
103.186844
 31
0.0
  0
LINE
  5
141
100
AcDbEntity
  8
0
 62
7
100
AcDbLine
 10
46.754469
 20
103.186844
 30
0.0
 11
49.189030
 21
102.944359
 31
0.0
  0
LINE
  5
142
100
AcDbEntity
  8
0
 62
7
100
AcDbLine
 10
49.189030
 20
102.944359
 30
0.0
 11
51.634574
 21
102.690483
 31
0.0
  0
LINE
  5
143
100
AcDbEntity
  8
0
 62
7
100
AcDbLine
 10
51.634574
 20
102.690483
 30
0.0
 11
54.089726
 21
102.425902
 31
0.0
  0
LINE
  5
144
100
AcDbEntity
  8
0
 62
7
100
AcDbLine
 10
54.089726
 20
102.425902
 30
0.0
 11
56.553113
 21
102.151307
 31
0.0
  0
LINE
  5
145
100
AcDbEntity
  8
0
 62
7
100
AcDbLine
 10
56.553113
 20
102.151307
 30
0.0
 11
59.023360
 21
101.867383
 31
0.0
  0
LINE
  5
146
100
AcDbEntity
  8
0
 62
7
100
AcDbLine
 10
59.023360
 20
101.867383
 30
0.0
 11
61.499092
 21
101.574821
 31
0.0
  0
LINE
  5
147
100
AcDbEntity
  8
0
 62
7
100
AcDbLine
 10
61.499092
 20
101.574821
 30
0.0
 11
63.978936
 21
101.274308
 31
0.0
  0
LINE
  5
148
100
AcDbEntity
  8
0
 62
7
100
AcDbLine
 10
63.978936
 20
101.274308
 30
0.0
 11
66.461517
 21
100.966531
 31
0.0
  0
LINE
  5
149
100
AcDbEntity
  8
0
 62
7
100
AcDbLine
 10
66.461517
 20
100.966531
 30
0.0
 11
68.945461
 21
100.652180
 31
0.0
  0
LINE
  5
14a
100
AcDbEntity
  8
0
 62
7
100
AcDbLine
 10
68.945461
 20
100.652180
 30
0.0
 11
71.429393
 21
100.331943
 31
0.0
  0
LINE
  5
14b
100
AcDbEntity
  8
0
 62
7
100
AcDbLine
 10
71.429393
 20
100.331943
 30
0.0
 11
76.391726
 21
99.676560
 31
0.0
  0
LINE
  5
14c
100
AcDbEntity
  8
0
 62
7
100
AcDbLine
 10
76.391726
 20
99.676560
 30
0.0
 11
81.337521
 21
99.005890
 31
0.0
  0
LINE
  5
14d
100
AcDbEntity
  8
0
 62
7
100
AcDbLine
 10
81.337521
 20
99.005890
 30
0.0
 11
86.255784
 21
98.325436
 31
0.0
  0
LINE
  5
14e
100
AcDbEntity
  8
0
 62
7
100
AcDbLine
 10
86.255784
 20
98.325436
 30
0.0
 11
91.135522
 21
97.640704
 31
0.0
  0
LINE
  5
14f
100
AcDbEntity
  8
0
 62
7
100
AcDbLine
 10
91.135522
 20
97.640704
 30
0.0
 11
100.735440
 21
96.280427
 31
0.0
  0
LINE
  5
150
100
AcDbEntity
  8
0
 62
7
100
AcDbLine
 10
100.735440
 20
96.280427
 30
0.0
 11
105.433633
 21
95.615893
 31
0.0
  0
LINE
  5
151
100
AcDbEntity
  8
0
 62
7
100
AcDbLine
 10
105.433633
 20
95.615893
 30
0.0
 11
110.049322
 21
94.969101
 31
0.0
  0
LINE
  5
152
100
AcDbEntity
  8
0
 62
7
100
AcDbLine
 10
110.049322
 20
94.969101
 30
0.0
 11
114.571513
 21
94.345559
 31
0.0
  0
LINE
  5
153
100
AcDbEntity
  8
0
 62
7
100
AcDbLine
 10
114.571513
 20
94.345559
 30
0.0
 11
118.989211
 21
93.750769
 31
0.0
  0
LINE
  5
154
100
AcDbEntity
  8
0
 62
7
100
AcDbLine
 10
118.989211
 20
93.750769
 30
0.0
 11
121.155440
 21
93.465878
 31
0.0
  0
LINE
  5
155
100
AcDbEntity
  8
0
 62
7
100
AcDbLine
 10
121.155440
 20
93.465878
 30
0.0
 11
123.291423
 21
93.190239
 31
0.0
  0
LINE
  5
156
100
AcDbEntity
  8
0
 62
7
100
AcDbLine
 10
123.291423
 20
93.190239
 30
0.0
 11
125.395786
 21
92.924541
 31
0.0
  0
LINE
  5
157
100
AcDbEntity
  8
0
 62
7
100
AcDbLine
 10
125.395786
 20
92.924541
 30
0.0
 11
127.467154
 21
92.669473
 31
0.0
  0
LINE
  5
158
100
AcDbEntity
  8
0
 62
7
100
AcDbLine
 10
127.467154
 20
92.669473
 30
0.0
 11
129.504153
 21
92.425722
 31
0.0
  0
LINE
  5
159
100
AcDbEntity
  8
0
 62
7
100
AcDbLine
 10
129.504153
 20
92.425722
 30
0.0
 11
131.505409
 21
92.193976
 31
0.0
  0
LINE
  5
15a
100
AcDbEntity
  8
0
 62
7
100
AcDbLine
 10
131.505409
 20
92.193976
 30
0.0
 11
133.469548
 21
91.974924
 31
0.0
  0
LINE
  5
15b
100
AcDbEntity
  8
0
 62
7
100
AcDbLine
 10
133.469548
 20
91.974924
 30
0.0
 11
135.395195
 21
91.769254
 31
0.0
  0
LINE
  5
15c
100
AcDbEntity
  8
0
 62
7
100
AcDbLine
 10
135.395195
 20
91.769254
 30
0.0
 11
137.280975
 21
91.577653
 31
0.0
  0
LINE
  5
15d
100
AcDbEntity
  8
0
 62
7
100
AcDbLine
 10
137.280975
 20
91.577653
 30
0.0
 11
139.125516
 21
91.400811
 31
0.0
  0
LINE
  5
15e
100
AcDbEntity
  8
0
 62
7
100
AcDbLine
 10
139.125516
 20
91.400811
 30
0.0
 11
140.927442
 21
91.239415
 31
0.0
  0
LINE
  5
15f
100
AcDbEntity
  8
0
 62
7
100
AcDbLine
 10
140.927442
 20
91.239415
 30
0.0
 11
142.685379
 21
91.094154
 31
0.0
  0
LINE
  5
160
100
AcDbEntity
  8
0
 62
7
100
AcDbLine
 10
142.685379
 20
91.094154
 30
0.0
 11
144.397952
 21
90.965715
 31
0.0
  0
LINE
  5
161
100
AcDbEntity
  8
0
 62
7
100
AcDbLine
 10
144.397952
 20
90.965715
 30
0.0
 11
146.063788
 21
90.854787
 31
0.0
  0
LINE
  5
162
100
AcDbEntity
  8
0
 62
7
100
AcDbLine
 10
146.063788
 20
90.854787
 30
0.0
 11
147.681513
 21
90.762058
 31
0.0
  0
LINE
  5
163
100
AcDbEntity
  8
0
 62
7
100
AcDbLine
 10
147.681513
 20
90.762058
 30
0.0
 11
149.249751
 21
90.688216
 31
0.0
  0
LINE
  5
164
100
AcDbEntity
  8
0
 62
7
100
AcDbLine
 10
149.249751
 20
90.688216
 30
0.0
 11
150.767129
 21
90.633949
 31
0.0
  0
LINE
  5
165
100
AcDbEntity
  8
0
 62
7
100
AcDbLine
 10
150.767129
 20
90.633949
 30
0.0
 11
152.232272
 21
90.599946
 31
0.0
  0
LINE
  5
166
100
AcDbEntity
  8
0
 62
7
100
AcDbLine
 10
152.232272
 20
90.599946
 30
0.0
 11
153.643806
 21
90.586894
 31
0.0
  0
LINE
  5
167
100
AcDbEntity
  8
0
 62
7
100
AcDbLine
 10
153.643806
 20
90.586894
 30
0.0
 11
154.329040
 21
90.588440
 31
0.0
  0
LINE
  5
168
100
AcDbEntity
  8
0
 62
7
100
AcDbLine
 10
154.329040
 20
90.588440
 30
0.0
 11
155.000357
 21
90.595482
 31
0.0
  0
LINE
  5
169
100
AcDbEntity
  8
0
 62
7
100
AcDbLine
 10
155.000357
 20
90.595482
 30
0.0
 11
156.357982
 21
90.625013
 31
0.0
  0
LINE
  5
16a
100
AcDbEntity
  8
0
 62
7
100
AcDbLine
 10
156.357982
 20
90.625013
 30
0.0
 11
157.772795
 21
90.673783
 31
0.0
  0
LINE
  5
16b
100
AcDbEntity
  8
0
 62
7
100
AcDbLine
 10
157.772795
 20
90.673783
 30
0.0
 11
159.243313
 21
90.741161
 31
0.0
  0
LINE
  5
16c
100
AcDbEntity
  8
0
 62
7
100
AcDbLine
 10
159.243313
 20
90.741161
 30
0.0
 11
160.768054
 21
90.826516
 31
0.0
  0
LINE
  5
16d
100
AcDbEntity
  8
0
 62
7
100
AcDbLine
 10
160.768054
 20
90.826516
 30
0.0
 11
162.345535
 21
90.929219
 31
0.0
  0
LINE
  5
16e
100
AcDbEntity
  8
0
 62
7
100
AcDbLine
 10
162.345535
 20
90.929219
 30
0.0
 11
163.974272
 21
91.048638
 31
0.0
  0
LINE
  5
16f
100
AcDbEntity
  8
0
 62
7
100
AcDbLine
 10
163.974272
 20
91.048638
 30
0.0
 11
165.652784
 21
91.184143
 31
0.0
  0
LINE
  5
170
100
AcDbEntity
  8
0
 62
7
100
AcDbLine
 10
165.652784
 20
91.184143
 30
0.0
 11
167.379587
 21
91.335104
 31
0.0
  0
LINE
  5
171
100
AcDbEntity
  8
0
 62
7
100
AcDbLine
 10
167.379587
 20
91.335104
 30
0.0
 11
169.153198
 21
91.500889
 31
0.0
  0
LINE
  5
172
100
AcDbEntity
  8
0
 62
7
100
AcDbLine
 10
169.153198
 20
91.500889
 30
0.0
 11
170.972136
 21
91.680869
 31
0.0
  0
LINE
  5
173
100
AcDbEntity
  8
0
 62
7
100
AcDbLine
 10
170.972136
 20
91.680869
 30
0.0
 11
172.834916
 21
91.874413
 31
0.0
  0
LINE
  5
174
100
AcDbEntity
  8
0
 62
7
100
AcDbLine
 10
172.834916
 20
91.874413
 30
0.0
 11
174.740056
 21
92.080890
 31
0.0
  0
LINE
  5
175
100
AcDbEntity
  8
0
 62
7
100
AcDbLine
 10
174.740056
 20
92.080890
 30
0.0
 11
176.686074
 21
92.299670
 31
0.0
  0
LINE
  5
176
100
AcDbEntity
  8
0
 62
7
100
AcDbLine
 10
176.686074
 20
92.299670
 30
0.0
 11
178.671487
 21
92.530122
 31
0.0
  0
LINE
  5
177
100
AcDbEntity
  8
0
 62
7
100
AcDbLine
 10
178.671487
 20
92.530122
 30
0.0
 11
180.694811
 21
92.771616
 31
0.0
  0
LINE
  5
178
100
AcDbEntity
  8
0
 62
7
100
AcDbLine
 10
180.694811
 20
92.771616
 30
0.0
 11
182.754564
 21
93.023521
 31
0.0
  0
LINE
  5
179
100
AcDbEntity
  8
0
 62
7
100
AcDbLine
 10
182.754564
 20
93.023521
 30
0.0
 11
186.977426
 21
93.556043
 31
0.0
  0
LINE
  5
17a
100
AcDbEntity
  8
0
 62
7
100
AcDbLine
 10
186.977426
 20
93.556043
 30
0.0
 11
191.328211
 21
94.122643
 31
0.0
  0
LINE
  5
17b
100
AcDbEntity
  8
0
 62
7
100
AcDbLine
 10
191.328211
 20
94.122643
 30
0.0
 11
195.795055
 21
94.718278
 31
0.0
  0
LINE
  5
17c
100
AcDbEntity
  8
0
 62
7
100
AcDbLine
 10
195.795055
 20
94.718278
 30
0.0
 11
200.366097
 21
95.337902
 31
0.0
  0
LINE
  5
17d
100
AcDbEntity
  8
0
 62
7
100
AcDbLine
 10
200.366097
 20
95.337902
 30
0.0
 11
209.773325
 21
96.628944
 31
0.0
  0
LINE
  5
17e
100
AcDbEntity
  8
0
 62
7
100
AcDbLine
 10
209.773325
 20
96.628944
 30
0.0
 11
219.454995
 21
97.955414
 31
0.0
  0
LINE
  5
17f
100
AcDbEntity
  8
0
 62
7
100
AcDbLine
 10
219.454995
 20
97.955414
 30
0.0
 11
224.369089
 21
98.619324
 31
0.0
  0
LINE
  5
180
100
AcDbEntity
  8
0
 62
7
100
AcDbLine
 10
224.369089
 20
98.619324
 30
0.0
 11
229.316208
 21
99.276958
 31
0.0
  0
LINE
  5
181
100
AcDbEntity
  8
0
 62
7
100
AcDbLine
 10
229.316208
 20
99.276958
 30
0.0
 11
234.284487
 21
99.923273
 31
0.0
  0
LINE
  5
182
100
AcDbEntity
  8
0
 62
7
100
AcDbLine
 10
234.284487
 20
99.923273
 30
0.0
 11
239.262065
 21
100.553223
 31
0.0
  0
LINE
  5
183
100
AcDbEntity
  8
0
 62
7
100
AcDbLine
 10
239.262065
 20
100.553223
 30
0.0
 11
241.750634
 21
100.860486
 31
0.0
  0
LINE
  5
184
100
AcDbEntity
  8
0
 62
7
100
AcDbLine
 10
241.750634
 20
100.860486
 30
0.0
 11
244.237080
 21
101.161765
 31
0.0
  0
LINE
  5
185
100
AcDbEntity
  8
0
 62
7
100
AcDbLine
 10
244.237080
 20
101.161765
 30
0.0
 11
246.719919
 21
101.456432
 31
0.0
  0
LINE
  5
186
100
AcDbEntity
  8
0
 62
7
100
AcDbLine
 10
246.719919
 20
101.456432
 30
0.0
 11
249.197668
 21
101.743855
 31
0.0
  0
LINE
  5
187
100
AcDbEntity
  8
0
 62
7
100
AcDbLine
 10
249.197668
 20
101.743855
 30
0.0
 11
251.668846
 21
102.023403
 31
0.0
  0
LINE
  5
188
100
AcDbEntity
  8
0
 62
7
100
AcDbLine
 10
251.668846
 20
102.023403
 30
0.0
 11
254.131968
 21
102.294447
 31
0.0
  0
LINE
  5
189
100
AcDbEntity
  8
0
 62
7
100
AcDbLine
 10
254.131968
 20
102.294447
 30
0.0
 11
256.585553
 21
102.556356
 31
0.0
  0
LINE
  5
18a
100
AcDbEntity
  8
0
 62
7
100
AcDbLine
 10
256.585553
 20
102.556356
 30
0.0
 11
259.028118
 21
102.808499
 31
0.0
  0
LINE
  5
18b
100
AcDbEntity
  8
0
 62
7
100
AcDbLine
 10
259.028118
 20
102.808499
 30
0.0
 11
261.458179
 21
103.050245
 31
0.0
  0
LINE
  5
18c
100
AcDbEntity
  8
0
 62
7
100
AcDbLine
 10
261.458179
 20
103.050245
 30
0.0
 11
263.874254
 21
103.280965
 31
0.0
  0
LINE
  5
18d
100
AcDbEntity
  8
0
 62
7
100
AcDbLine
 10
263.874254
 20
103.280965
 30
0.0
 11
266.274860
 21
103.500027
 31
0.0
  0
LINE
  5
18e
100
AcDbEntity
  8
0
 62
7
100
AcDbLine
 10
266.274860
 20
103.500027
 30
0.0
 11
268.658515
 21
103.706801
 31
0.0
  0
LINE
  5
18f
100
AcDbEntity
  8
0
 62
7
100
AcDbLine
 10
268.658515
 20
103.706801
 30
0.0
 11
271.023735
 21
103.900657
 31
0.0
  0
LINE
  5
190
100
AcDbEntity
  8
0
 62
7
100
AcDbLine
 10
271.023735
 20
103.900657
 30
0.0
 11
273.369037
 21
104.080964
 31
0.0
  0
LINE
  5
191
100
AcDbEntity
  8
0
 62
7
100
AcDbLine
 10
273.369037
 20
104.080964
 30
0.0
 11
275.692940
 21
104.247091
 31
0.0
  0
LINE
  5
192
100
AcDbEntity
  8
0
 62
7
100
AcDbLine
 10
275.692940
 20
104.247091
 30
0.0
 11
277.993960
 21
104.398408
 31
0.0
  0
LINE
  5
193
100
AcDbEntity
  8
0
 62
7
100
AcDbLine
 10
277.993960
 20
104.398408
 30
0.0
 11
280.270615
 21
104.534284
 31
0.0
  0
LINE
  5
194
100
AcDbEntity
  8
0
 62
7
100
AcDbLine
 10
280.270615
 20
104.534284
 30
0.0
 11
282.521420
 21
104.654090
 31
0.0
  0
LINE
  5
195
100
AcDbEntity
  8
0
 62
7
100
AcDbLine
 10
282.521420
 20
104.654090
 30
0.0
 11
284.744895
 21
104.757193
 31
0.0
  0
LINE
  5
196
100
AcDbEntity
  8
0
 62
7
100
AcDbLine
 10
284.744895
 20
104.757193
 30
0.0
 11
286.939556
 21
104.842965
 31
0.0
  0
LINE
  5
197
100
AcDbEntity
  8
0
 62
7
100
AcDbLine
 10
286.939556
 20
104.842965
 30
0.0
 11
289.103919
 21
104.910774
 31
0.0
  0
LINE
  5
198
100
AcDbEntity
  8
0
 62
7
100
AcDbLine
 10
289.103919
 20
104.910774
 30
0.0
 11
291.236504
 21
104.959989
 31
0.0
  0
LINE
  5
199
100
AcDbEntity
  8
0
 62
7
100
AcDbLine
 10
291.236504
 20
104.959989
 30
0.0
 11
293.335825
 21
104.989981
 31
0.0
  0
LINE
  5
19a
100
AcDbEntity
  8
0
 62
7
100
AcDbLine
 10
293.335825
 20
104.989981
 30
0.0
 11
295.400402
 21
105.000118
 31
0.0
  0
LINE
  5
19b
100
AcDbEntity
  8
0
 62
7
100
AcDbLine
 10
295.400402
 20
105.000118
 30
0.0
 11
296.065614
 21
104.997908
 31
0.0
  0
LINE
  5
19c
100
AcDbEntity
  8
0
 62
7
100
AcDbLine
 10
296.065614
 20
104.997908
 30
0.0
 11
296.699824
 21
104.990705
 31
0.0
  0
LINE
  5
19d
100
AcDbEntity
  8
0
 62
7
100
AcDbLine
 10
296.699824
 20
104.990705
 30
0.0
 11
297.303758
 21
104.977646
 31
0.0
  0
LINE
  5
19e
100
AcDbEntity
  8
0
 62
7
100
AcDbLine
 10
297.303758
 20
104.977646
 30
0.0
 11
297.878140
 21
104.957870
 31
0.0
  0
LINE
  5
19f
100
AcDbEntity
  8
0
 62
7
100
AcDbLine
 10
297.878140
 20
104.957870
 30
0.0
 11
298.423695
 21
104.930517
 31
0.0
  0
LINE
  5
1a0
100
AcDbEntity
  8
0
 62
7
100
AcDbLine
 10
298.423695
 20
104.930517
 30
0.0
 11
298.941149
 21
104.894723
 31
0.0
  0
LINE
  5
1a1
100
AcDbEntity
  8
0
 62
7
100
AcDbLine
 10
298.941149
 20
104.894723
 30
0.0
 11
299.431225
 21
104.849629
 31
0.0
  0
LINE
  5
1a2
100
AcDbEntity
  8
0
 62
7
100
AcDbLine
 10
299.431225
 20
104.849629
 30
0.0
 11
299.894650
 21
104.794372
 31
0.0
  0
LINE
  5
1a3
100
AcDbEntity
  8
0
 62
7
100
AcDbLine
 10
299.894650
 20
104.794372
 30
0.0
 11
300.332147
 21
104.728092
 31
0.0
  0
LINE
  5
1a4
100
AcDbEntity
  8
0
 62
7
100
AcDbLine
 10
300.332147
 20
104.728092
 30
0.0
 11
300.744442
 21
104.649926
 31
0.0
  0
LINE
  5
1a5
100
AcDbEntity
  8
0
 62
7
100
AcDbLine
 10
300.744442
 20
104.649926
 30
0.0
 11
301.132259
 21
104.559013
 31
0.0
  0
LINE
  5
1a6
100
AcDbEntity
  8
0
 62
7
100
AcDbLine
 10
301.132259
 20
104.559013
 30
0.0
 11
301.496325
 21
104.454492
 31
0.0
  0
LINE
  5
1a7
100
AcDbEntity
  8
0
 62
7
100
AcDbLine
 10
301.496325
 20
104.454492
 30
0.0
 11
301.669676
 21
104.396859
 31
0.0
  0
LINE
  5
1a8
100
AcDbEntity
  8
0
 62
7
100
AcDbLine
 10
301.669676
 20
104.396859
 30
0.0
 11
301.837362
 21
104.335501
 31
0.0
  0
LINE
  5
1a9
100
AcDbEntity
  8
0
 62
7
100
AcDbLine
 10
301.837362
 20
104.335501
 30
0.0
 11
301.999472
 21
104.270310
 31
0.0
  0
LINE
  5
1aa
100
AcDbEntity
  8
0
 62
7
100
AcDbLine
 10
301.999472
 20
104.270310
 30
0.0
 11
302.156097
 21
104.201179
 31
0.0
  0
LINE
  5
1ab
100
AcDbEntity
  8
0
 62
7
100
AcDbLine
 10
302.156097
 20
104.201179
 30
0.0
 11
302.307327
 21
104.128000
 31
0.0
  0
LINE
  5
1ac
100
AcDbEntity
  8
0
 62
7
100
AcDbLine
 10
302.307327
 20
104.128000
 30
0.0
 11
302.453254
 21
104.050665
 31
0.0
  0
LINE
  5
1ad
100
AcDbEntity
  8
0
 62
7
100
AcDbLine
 10
302.453254
 20
104.050665
 30
0.0
 11
302.593967
 21
103.969066
 31
0.0
  0
LINE
  5
1ae
100
AcDbEntity
  8
0
 62
7
100
AcDbLine
 10
302.593967
 20
103.969066
 30
0.0
 11
302.729558
 21
103.883097
 31
0.0
  0
LINE
  5
1af
100
AcDbEntity
  8
0
 62
7
100
AcDbLine
 10
302.729558
 20
103.883097
 30
0.0
 11
302.904097
 21
103.760318
 31
0.0
  0
LINE
  5
1b0
100
AcDbEntity
  8
0
 62
7
100
AcDbLine
 10
302.904097
 20
103.760318
 30
0.0
 11
303.069745
 21
103.629167
 31
0.0
  0
LINE
  5
1b1
100
AcDbEntity
  8
0
 62
7
100
AcDbLine
 10
303.069745
 20
103.629167
 30
0.0
 11
303.226722
 21
103.489379
 31
0.0
  0
LINE
  5
1b2
100
AcDbEntity
  8
0
 62
7
100
AcDbLine
 10
303.226722
 20
103.489379
 30
0.0
 11
303.375249
 21
103.340694
 31
0.0
  0
LINE
  5
1b3
100
AcDbEntity
  8
0
 62
7
100
AcDbLine
 10
303.375249
 20
103.340694
 30
0.0
 11
303.515547
 21
103.182848
 31
0.0
  0
LINE
  5
1b4
100
AcDbEntity
  8
0
 62
7
100
AcDbLine
 10
303.515547
 20
103.182848
 30
0.0
 11
303.647837
 21
103.015579
 31
0.0
  0
LINE
  5
1b5
100
AcDbEntity
  8
0
 62
7
100
AcDbLine
 10
303.647837
 20
103.015579
 30
0.0
 11
303.772338
 21
102.838624
 31
0.0
  0
LINE
  5
1b6
100
AcDbEntity
  8
0
 62
7
100
AcDbLine
 10
303.772338
 20
102.838624
 30
0.0
 11
303.889273
 21
102.651722
 31
0.0
  0
LINE
  5
1b7
100
AcDbEntity
  8
0
 62
7
100
AcDbLine
 10
303.889273
 20
102.651722
 30
0.0
 11
303.998862
 21
102.454610
 31
0.0
  0
LINE
  5
1b8
100
AcDbEntity
  8
0
 62
7
100
AcDbLine
 10
303.998862
 20
102.454610
 30
0.0
 11
304.101326
 21
102.247025
 31
0.0
  0
LINE
  5
1b9
100
AcDbEntity
  8
0
 62
7
100
AcDbLine
 10
304.101326
 20
102.247025
 30
0.0
 11
304.196886
 21
102.028705
 31
0.0
  0
LINE
  5
1ba
100
AcDbEntity
  8
0
 62
7
100
AcDbLine
 10
304.196886
 20
102.028705
 30
0.0
 11
304.285762
 21
101.799388
 31
0.0
  0
LINE
  5
1bb
100
AcDbEntity
  8
0
 62
7
100
AcDbLine
 10
304.285762
 20
101.799388
 30
0.0
 11
304.368175
 21
101.558811
 31
0.0
  0
LINE
  5
1bc
100
AcDbEntity
  8
0
 62
7
100
AcDbLine
 10
304.368175
 20
101.558811
 30
0.0
 11
304.444347
 21
101.306711
 31
0.0
  0
LINE
  5
1bd
100
AcDbEntity
  8
0
 62
7
100
AcDbLine
 10
304.444347
 20
101.306711
 30
0.0
 11
304.514498
 21
101.042827
 31
0.0
  0
LINE
  5
1be
100
AcDbEntity
  8
0
 62
7
100
AcDbLine
 10
304.514498
 20
101.042827
 30
0.0
 11
304.578848
 21
100.766896
 31
0.0
  0
LINE
  5
1bf
100
AcDbEntity
  8
0
 62
7
100
AcDbLine
 10
304.578848
 20
100.766896
 30
0.0
 11
304.637619
 21
100.478655
 31
0.0
  0
LINE
  5
1c0
100
AcDbEntity
  8
0
 62
7
100
AcDbLine
 10
304.637619
 20
100.478655
 30
0.0
 11
304.691031
 21
100.177843
 31
0.0
  0
LINE
  5
1c1
100
AcDbEntity
  8
0
 62
7
100
AcDbLine
 10
304.691031
 20
100.177843
 30
0.0
 11
304.739306
 21
99.864196
 31
0.0
  0
LINE
  5
1c2
100
AcDbEntity
  8
0
 62
7
100
AcDbLine
 10
304.739306
 20
99.864196
 30
0.0
 11
304.782664
 21
99.537452
 31
0.0
  0
LINE
  5
1c3
100
AcDbEntity
  8
0
 62
7
100
AcDbLine
 10
304.782664
 20
99.537452
 30
0.0
 11
304.821326
 21
99.197349
 31
0.0
  0
LINE
  5
1c4
100
AcDbEntity
  8
0
 62
7
100
AcDbLine
 10
304.821326
 20
99.197349
 30
0.0
 11
304.855512
 21
98.843625
 31
0.0
  0
LINE
  5
1c5
100
AcDbEntity
  8
0
 62
7
100
AcDbLine
 10
304.855512
 20
98.843625
 30
0.0
 11
304.911342
 21
98.094262
 31
0.0
  0
LINE
  5
1c6
100
AcDbEntity
  8
0
 62
7
100
AcDbLine
 10
304.911342
 20
98.094262
 30
0.0
 11
304.951921
 21
97.287264
 31
0.0
  0
LINE
  5
1c7
100
AcDbEntity
  8
0
 62
7
100
AcDbLine
 10
304.951921
 20
97.287264
 30
0.0
 11
304.979016
 21
96.420531
 31
0.0
  0
LINE
  5
1c8
100
AcDbEntity
  8
0
 62
7
100
AcDbLine
 10
304.979016
 20
96.420531
 30
0.0
 11
304.994392
 21
95.491965
 31
0.0
  0
LINE
  5
1c9
100
AcDbEntity
  8
0
 62
7
100
AcDbLine
 10
304.994392
 20
95.491965
 30
0.0
 11
304.999817
 21
94.499465
 31
0.0
  0
LINE
  5
1ca
100
AcDbEntity
  8
0
 62
7
100
AcDbLine
 10
304.999817
 20
94.499465
 30
0.0
 11
305.004468
 21
81.530189
 31
0.0
  0
LINE
  5
1cb
100
AcDbEntity
  8
0
 62
7
100
AcDbLine
 10
305.004468
 20
81.530189
 30
0.0
 11
305.003951
 21
62.249927
 31
0.0
  0
LINE
  5
1cc
100
AcDbEntity
  8
0
 62
7
100
AcDbLine
 10
305.003951
 20
62.249927
 30
0.0
 11
304.999817
 21
30.000388
 31
0.0
  0
LINE
  5
1cd
100
AcDbEntity
  8
0
 62
7
100
AcDbLine
 10
304.999817
 20
30.000388
 30
0.0
 11
304.990724
 21
29.504746
 31
0.0
  0
LINE
  5
1ce
100
AcDbEntity
  8
0
 62
7
100
AcDbLine
 10
304.990724
 20
29.504746
 30
0.0
 11
304.963553
 21
29.029594
 31
0.0
  0
LINE
  5
1cf
100
AcDbEntity
  8
0
 62
7
100
AcDbLine
 10
304.963553
 20
29.029594
 30
0.0
 11
304.918465
 21
28.574471
 31
0.0
  0
LINE
  5
1d0
100
AcDbEntity
  8
0
 62
7
100
AcDbLine
 10
304.918465
 20
28.574471
 30
0.0
 11
304.855623
 21
28.138914
 31
0.0
  0
LINE
  5
1d1
100
AcDbEntity
  8
0
 62
7
100
AcDbLine
 10
304.855623
 20
28.138914
 30
0.0
 11
304.775190
 21
27.722459
 31
0.0
  0
LINE
  5
1d2
100
AcDbEntity
  8
0
 62
7
100
AcDbLine
 10
304.775190
 20
27.722459
 30
0.0
 11
304.728426
 21
27.521251
 31
0.0
  0
LINE
  5
1d3
100
AcDbEntity
  8
0
 62
7
100
AcDbLine
 10
304.728426
 20
27.521251
 30
0.0
 11
304.677326
 21
27.324646
 31
0.0
  0
LINE
  5
1d4
100
AcDbEntity
  8
0
 62
7
100
AcDbLine
 10
304.677326
 20
27.324646
 30
0.0
 11
304.621908
 21
27.132584
 31
0.0
  0
LINE
  5
1d5
100
AcDbEntity
  8
0
 62
7
100
AcDbLine
 10
304.621908
 20
27.132584
 30
0.0
 11
304.562193
 21
26.945010
 31
0.0
  0
LINE
  5
1d6
100
AcDbEntity
  8
0
 62
7
100
AcDbLine
 10
304.562193
 20
26.945010
 30
0.0
 11
304.498202
 21
26.761864
 31
0.0
  0
LINE
  5
1d7
100
AcDbEntity
  8
0
 62
7
100
AcDbLine
 10
304.498202
 20
26.761864
 30
0.0
 11
304.429955
 21
26.583090
 31
0.0
  0
LINE
  5
1d8
100
AcDbEntity
  8
0
 62
7
100
AcDbLine
 10
304.429955
 20
26.583090
 30
0.0
 11
304.357471
 21
26.408629
 31
0.0
  0
LINE
  5
1d9
100
AcDbEntity
  8
0
 62
7
100
AcDbLine
 10
304.357471
 20
26.408629
 30
0.0
 11
304.280772
 21
26.238423
 31
0.0
  0
LINE
  5
1da
100
AcDbEntity
  8
0
 62
7
100
AcDbLine
 10
304.280772
 20
26.238423
 30
0.0
 11
304.199877
 21
26.072415
 31
0.0
  0
LINE
  5
1db
100
AcDbEntity
  8
0
 62
7
100
AcDbLine
 10
304.199877
 20
26.072415
 30
0.0
 11
304.114807
 21
25.910546
 31
0.0
  0
LINE
  5
1dc
100
AcDbEntity
  8
0
 62
7
100
AcDbLine
 10
304.114807
 20
25.910546
 30
0.0
 11
304.025582
 21
25.752760
 31
0.0
  0
LINE
  5
1dd
100
AcDbEntity
  8
0
 62
7
100
AcDbLine
 10
304.025582
 20
25.752760
 30
0.0
 11
303.932222
 21
25.598998
 31
0.0
  0
LINE
  5
1de
100
AcDbEntity
  8
0
 62
7
100
AcDbLine
 10
303.932222
 20
25.598998
 30
0.0
 11
303.834748
 21
25.449202
 31
0.0
  0
LINE
  5
1df
100
AcDbEntity
  8
0
 62
7
100
AcDbLine
 10
303.834748
 20
25.449202
 30
0.0
 11
303.733179
 21
25.303315
 31
0.0
  0
LINE
  5
1e0
100
AcDbEntity
  8
0
 62
7
100
AcDbLine
 10
303.733179
 20
25.303315
 30
0.0
 11
303.627536
 21
25.161278
 31
0.0
  0
LINE
  5
1e1
100
AcDbEntity
  8
0
 62
7
100
AcDbLine
 10
303.627536
 20
25.161278
 30
0.0
 11
303.517839
 21
25.023035
 31
0.0
  0
LINE
  5
1e2
100
AcDbEntity
  8
0
 62
7
100
AcDbLine
 10
303.517839
 20
25.023035
 30
0.0
 11
303.404109
 21
24.888527
 31
0.0
  0
LINE
  5
1e3
100
AcDbEntity
  8
0
 62
7
100
AcDbLine
 10
303.404109
 20
24.888527
 30
0.0
 11
303.286365
 21
24.757696
 31
0.0
  0
LINE
  5
1e4
100
AcDbEntity
  8
0
 62
7
100
AcDbLine
 10
303.286365
 20
24.757696
 30
0.0
 11
303.164629
 21
24.630484
 31
0.0
  0
LINE
  5
1e5
100
AcDbEntity
  8
0
 62
7
100
AcDbLine
 10
303.164629
 20
24.630484
 30
0.0
 11
303.038919
 21
24.506834
 31
0.0
  0
LINE
  5
1e6
100
AcDbEntity
  8
0
 62
7
100
AcDbLine
 10
303.038919
 20
24.506834
 30
0.0
 11
302.775663
 21
24.269988
 31
0.0
  0
LINE
  5
1e7
100
AcDbEntity
  8
0
 62
7
100
AcDbLine
 10
302.775663
 20
24.269988
 30
0.0
 11
302.496758
 21
24.046695
 31
0.0
  0
LINE
  5
1e8
100
AcDbEntity
  8
0
 62
7
100
AcDbLine
 10
302.496758
 20
24.046695
 30
0.0
 11
302.202367
 21
23.836492
 31
0.0
  0
LINE
  5
1e9
100
AcDbEntity
  8
0
 62
7
100
AcDbLine
 10
302.202367
 20
23.836492
 30
0.0
 11
301.892652
 21
23.638918
 31
0.0
  0
LINE
  5
1ea
100
AcDbEntity
  8
0
 62
7
100
AcDbLine
 10
301.892652
 20
23.638918
 30
0.0
 11
301.567774
 21
23.453509
 31
0.0
  0
LINE
  5
1eb
100
AcDbEntity
  8
0
 62
7
100
AcDbLine
 10
301.567774
 20
23.453509
 30
0.0
 11
301.227896
 21
23.279802
 31
0.0
  0
LINE
  5
1ec
100
AcDbEntity
  8
0
 62
7
100
AcDbLine
 10
301.227896
 20
23.279802
 30
0.0
 11
300.873180
 21
23.117336
 31
0.0
  0
LINE
  5
1ed
100
AcDbEntity
  8
0
 62
7
100
AcDbLine
 10
300.873180
 20
23.117336
 30
0.0
 11
300.503788
 21
22.965648
 31
0.0
  0
LINE
  5
1ee
100
AcDbEntity
  8
0
 62
7
100
AcDbLine
 10
300.503788
 20
22.965648
 30
0.0
 11
300.119881
 21
22.824275
 31
0.0
  0
LINE
  5
1ef
100
AcDbEntity
  8
0
 62
7
100
AcDbLine
 10
300.119881
 20
22.824275
 30
0.0
 11
299.721622
 21
22.692755
 31
0.0
  0
LINE
  5
1f0
100
AcDbEntity
  8
0
 62
7
100
AcDbLine
 10
299.721622
 20
22.692755
 30
0.0
 11
299.309172
 21
22.570626
 31
0.0
  0
LINE
  5
1f1
100
AcDbEntity
  8
0
 62
7
100
AcDbLine
 10
299.309172
 20
22.570626
 30
0.0
 11
298.882695
 21
22.457424
 31
0.0
  0
LINE
  5
1f2
100
AcDbEntity
  8
0
 62
7
100
AcDbLine
 10
298.882695
 20
22.457424
 30
0.0
 11
298.442351
 21
22.352687
 31
0.0
  0
LINE
  5
1f3
100
AcDbEntity
  8
0
 62
7
100
AcDbLine
 10
298.442351
 20
22.352687
 30
0.0
 11
297.988302
 21
22.255954
 31
0.0
  0
LINE
  5
1f4
100
AcDbEntity
  8
0
 62
7
100
AcDbLine
 10
297.988302
 20
22.255954
 30
0.0
 11
297.520711
 21
22.166760
 31
0.0
  0
LINE
  5
1f5
100
AcDbEntity
  8
0
 62
7
100
AcDbLine
 10
297.520711
 20
22.166760
 30
0.0
 11
297.039740
 21
22.084645
 31
0.0
  0
LINE
  5
1f6
100
AcDbEntity
  8
0
 62
7
100
AcDbLine
 10
297.039740
 20
22.084645
 30
0.0
 11
296.545550
 21
22.009144
 31
0.0
  0
LINE
  5
1f7
100
AcDbEntity
  8
0
 62
7
100
AcDbLine
 10
296.545550
 20
22.009144
 30
0.0
 11
293.740663
 21
21.600260
 31
0.0
  0
LINE
  5
1f8
100
AcDbEntity
  8
0
 62
7
100
AcDbLine
 10
293.740663
 20
21.600260
 30
0.0
 11
290.656458
 21
21.143655
 31
0.0
  0
LINE
  5
1f9
100
AcDbEntity
  8
0
 62
7
100
AcDbLine
 10
290.656458
 20
21.143655
 30
0.0
 11
283.720061
 21
20.103210
 31
0.0
  0
LINE
  5
1fa
100
AcDbEntity
  8
0
 62
7
100
AcDbLine
 10
283.720061
 20
20.103210
 30
0.0
 11
275.876285
 21
18.919653
 31
0.0
  0
LINE
  5
1fb
100
AcDbEntity
  8
0
 62
7
100
AcDbLine
 10
275.876285
 20
18.919653
 30
0.0
 11
267.265061
 21
17.624830
 31
0.0
  0
LINE
  5
1fc
100
AcDbEntity
  8
0
 62
7
100
AcDbLine
 10
267.265061
 20
17.624830
 30
0.0
 11
258.026314
 21
16.250586
 31
0.0
  0
LINE
  5
1fd
100
AcDbEntity
  8
0
 62
7
100
AcDbLine
 10
258.026314
 20
16.250586
 30
0.0
 11
253.215348
 21
15.543634
 31
0.0
  0
LINE
  5
1fe
100
AcDbEntity
  8
0
 62
7
100
AcDbLine
 10
253.215348
 20
15.543634
 30
0.0
 11
248.299975
 21
14.828768
 31
0.0
  0
LINE
  5
1ff
100
AcDbEntity
  8
0
 62
7
100
AcDbLine
 10
248.299975
 20
14.828768
 30
0.0
 11
243.297685
 21
14.109971
 31
0.0
  0
LINE
  5
200
100
AcDbEntity
  8
0
 62
7
100
AcDbLine
 10
243.297685
 20
14.109971
 30
0.0
 11
238.225969
 21
13.391222
 31
0.0
  0
LINE
  5
201
100
AcDbEntity
  8
0
 62
7
100
AcDbLine
 10
238.225969
 20
13.391222
 30
0.0
 11
233.102320
 21
12.676502
 31
0.0
  0
LINE
  5
202
100
AcDbEntity
  8
0
 62
7
100
AcDbLine
 10
233.102320
 20
12.676502
 30
0.0
 11
227.944227
 21
11.969791
 31
0.0
  0
LINE
  5
203
100
AcDbEntity
  8
0
 62
7
100
AcDbLine
 10
227.944227
 20
11.969791
 30
0.0
 11
222.769182
 21
11.275072
 31
0.0
  0
LINE
  5
204
100
AcDbEntity
  8
0
 62
7
100
AcDbLine
 10
222.769182
 20
11.275072
 30
0.0
 11
217.594676
 21
10.596323
 31
0.0
  0
LINE
  5
205
100
AcDbEntity
  8
0
 62
7
100
AcDbLine
 10
217.594676
 20
10.596323
 30
0.0
 11
212.438199
 21
9.937527
 31
0.0
  0
LINE
  5
206
100
AcDbEntity
  8
0
 62
7
100
AcDbLine
 10
212.438199
 20
9.937527
 30
0.0
 11
207.317243
 21
9.302663
 31
0.0
  0
LINE
  5
207
100
AcDbEntity
  8
0
 62
7
100
AcDbLine
 10
207.317243
 20
9.302663
 30
0.0
 11
204.775551
 21
8.995450
 31
0.0
  0
LINE
  5
208
100
AcDbEntity
  8
0
 62
7
100
AcDbLine
 10
204.775551
 20
8.995450
 30
0.0
 11
202.249299
 21
8.695713
 31
0.0
  0
LINE
  5
209
100
AcDbEntity
  8
0
 62
7
100
AcDbLine
 10
202.249299
 20
8.695713
 30
0.0
 11
199.740672
 21
8.403949
 31
0.0
  0
LINE
  5
20a
100
AcDbEntity
  8
0
 62
7
100
AcDbLine
 10
199.740672
 20
8.403949
 30
0.0
 11
197.251857
 21
8.120656
 31
0.0
  0
LINE
  5
20b
100
AcDbEntity
  8
0
 62
7
100
AcDbLine
 10
197.251857
 20
8.120656
 30
0.0
 11
194.785041
 21
7.846332
 31
0.0
  0
LINE
  5
20c
100
AcDbEntity
  8
0
 62
7
100
AcDbLine
 10
194.785041
 20
7.846332
 30
0.0
 11
192.342409
 21
7.581474
 31
0.0
  0
LINE
  5
20d
100
AcDbEntity
  8
0
 62
7
100
AcDbLine
 10
192.342409
 20
7.581474
 30
0.0
 11
189.926149
 21
7.326581
 31
0.0
  0
LINE
  5
20e
100
AcDbEntity
  8
0
 62
7
100
AcDbLine
 10
189.926149
 20
7.326581
 30
0.0
 11
187.538446
 21
7.082148
 31
0.0
  0
LINE
  5
20f
100
AcDbEntity
  8
0
 62
7
100
AcDbLine
 10
187.538446
 20
7.082148
 30
0.0
 11
185.181488
 21
6.848675
 31
0.0
  0
LINE
  5
210
100
AcDbEntity
  8
0
 62
7
100
AcDbLine
 10
185.181488
 20
6.848675
 30
0.0
 11
182.857459
 21
6.626658
 31
0.0
  0
LINE
  5
211
100
AcDbEntity
  8
0
 62
7
100
AcDbLine
 10
182.857459
 20
6.626658
 30
0.0
 11
180.568548
 21
6.416596
 31
0.0
  0
LINE
  5
212
100
AcDbEntity
  8
0
 62
7
100
AcDbLine
 10
180.568548
 20
6.416596
 30
0.0
 11
178.316939
 21
6.218985
 31
0.0
  0
LINE
  5
213
100
AcDbEntity
  8
0
 62
7
100
AcDbLine
 10
178.316939
 20
6.218985
 30
0.0
 11
176.104820
 21
6.034324
 31
0.0
  0
LINE
  5
214
100
AcDbEntity
  8
0
 62
7
100
AcDbLine
 10
176.104820
 20
6.034324
 30
0.0
 11
173.934376
 21
5.863109
 31
0.0
  0
LINE
  5
215
100
AcDbEntity
  8
0
 62
7
100
AcDbLine
 10
173.934376
 20
5.863109
 30
0.0
 11
171.807795
 21
5.705839
 31
0.0
  0
LINE
  5
216
100
AcDbEntity
  8
0
 62
7
100
AcDbLine
 10
171.807795
 20
5.705839
 30
0.0
 11
169.727262
 21
5.563012
 31
0.0
  0
LINE
  5
217
100
AcDbEntity
  8
0
 62
7
100
AcDbLine
 10
169.727262
 20
5.563012
 30
0.0
 11
167.694965
 21
5.435124
 31
0.0
  0
LINE
  5
218
100
AcDbEntity
  8
0
 62
7
100
AcDbLine
 10
167.694965
 20
5.435124
 30
0.0
 11
165.713088
 21
5.322673
 31
0.0
  0
LINE
  5
219
100
AcDbEntity
  8
0
 62
7
100
AcDbLine
 10
165.713088
 20
5.322673
 30
0.0
 11
163.783820
 21
5.226158
 31
0.0
  0
LINE
  5
21a
100
AcDbEntity
  8
0
 62
7
100
AcDbLine
 10
163.783820
 20
5.226158
 30
0.0
 11
161.909345
 21
5.146074
 31
0.0
  0
LINE
  5
21b
100
AcDbEntity
  8
0
 62
7
100
AcDbLine
 10
161.909345
 20
5.146074
 30
0.0
 11
160.091851
 21
5.082921
 31
0.0
  0
LINE
  5
21c
100
AcDbEntity
  8
0
 62
7
100
AcDbLine
 10
160.091851
 20
5.082921
 30
0.0
 11
158.333524
 21
5.037196
 31
0.0
  0
LINE
  5
21d
100
AcDbEntity
  8
0
 62
7
100
AcDbLine
 10
158.333524
 20
5.037196
 30
0.0
 11
156.636550
 21
5.009396
 31
0.0
  0
LINE
  5
21e
100
AcDbEntity
  8
0
 62
7
100
AcDbLine
 10
156.636550
 20
5.009396
 30
0.0
 11
155.003115
 21
5.000019
 31
0.0
  0
LINE
  5
21f
100
AcDbEntity
  8
0
 62
7
100
AcDbLine
 10
155.003115
 20
5.000019
 30
0.0
 11
155.000364
 21
5.000019
 31
0.0
  0
LINE
  5
220
100
AcDbEntity
  8
0
 62
7
100
AcDbLine
 10
155.000364
 20
5.000019
 30
0.0
 11
153.616359
 21
5.009396
 31
0.0
  0
LINE
  5
221
100
AcDbEntity
  8
0
 62
7
100
AcDbLine
 10
153.616359
 20
5.009396
 30
0.0
 11
152.153100
 21
5.037196
 31
0.0
  0
LINE
  5
222
100
AcDbEntity
  8
0
 62
7
100
AcDbLine
 10
152.153100
 20
5.037196
 30
0.0
 11
150.613150
 21
5.082921
 31
0.0
  0
LINE
  5
223
100
AcDbEntity
  8
0
 62
7
100
AcDbLine
 10
150.613150
 20
5.082921
 30
0.0
 11
148.999072
 21
5.146074
 31
0.0
  0
LINE
  5
224
100
AcDbEntity
  8
0
 62
7
100
AcDbLine
 10
148.999072
 20
5.146074
 30
0.0
 11
147.313430
 21
5.226158
 31
0.0
  0
LINE
  5
225
100
AcDbEntity
  8
0
 62
7
100
AcDbLine
 10
147.313430
 20
5.226158
 30
0.0
 11
145.558787
 21
5.322673
 31
0.0
  0
LINE
  5
226
100
AcDbEntity
  8
0
 62
7
100
AcDbLine
 10
145.558787
 20
5.322673
 30
0.0
 11
143.737708
 21
5.435124
 31
0.0
  0
LINE
  5
227
100
AcDbEntity
  8
0
 62
7
100
AcDbLine
 10
143.737708
 20
5.435124
 30
0.0
 11
141.852755
 21
5.563012
 31
0.0
  0
LINE
  5
228
100
AcDbEntity
  8
0
 62
7
100
AcDbLine
 10
141.852755
 20
5.563012
 30
0.0
 11
139.906492
 21
5.705839
 31
0.0
  0
LINE
  5
229
100
AcDbEntity
  8
0
 62
7
100
AcDbLine
 10
139.906492
 20
5.705839
 30
0.0
 11
137.901484
 21
5.863109
 31
0.0
  0
LINE
  5
22a
100
AcDbEntity
  8
0
 62
7
100
AcDbLine
 10
137.901484
 20
5.863109
 30
0.0
 11
135.840292
 21
6.034324
 31
0.0
  0
LINE
  5
22b
100
AcDbEntity
  8
0
 62
7
100
AcDbLine
 10
135.840292
 20
6.034324
 30
0.0
 11
133.725482
 21
6.218985
 31
0.0
  0
LINE
  5
22c
100
AcDbEntity
  8
0
 62
7
100
AcDbLine
 10
133.725482
 20
6.218985
 30
0.0
 11
131.559616
 21
6.416596
 31
0.0
  0
LINE
  5
22d
100
AcDbEntity
  8
0
 62
7
100
AcDbLine
 10
131.559616
 20
6.416596
 30
0.0
 11
129.345259
 21
6.626658
 31
0.0
  0
LINE
  5
22e
100
AcDbEntity
  8
0
 62
7
100
AcDbLine
 10
129.345259
 20
6.626658
 30
0.0
 11
127.084973
 21
6.848675
 31
0.0
  0
LINE
  5
22f
100
AcDbEntity
  8
0
 62
7
100
AcDbLine
 10
127.084973
 20
6.848675
 30
0.0
 11
124.781322
 21
7.082148
 31
0.0
  0
LINE
  5
230
100
AcDbEntity
  8
0
 62
7
100
AcDbLine
 10
124.781322
 20
7.082148
 30
0.0
 11
122.436870
 21
7.326581
 31
0.0
  0
LINE
  5
231
100
AcDbEntity
  8
0
 62
7
100
AcDbLine
 10
122.436870
 20
7.326581
 30
0.0
 11
120.054181
 21
7.581474
 31
0.0
  0
LINE
  5
232
100
AcDbEntity
  8
0
 62
7
100
AcDbLine
 10
120.054181
 20
7.581474
 30
0.0
 11
117.635817
 21
7.846332
 31
0.0
  0
LINE
  5
233
100
AcDbEntity
  8
0
 62
7
100
AcDbLine
 10
117.635817
 20
7.846332
 30
0.0
 11
115.184343
 21
8.120656
 31
0.0
  0
LINE
  5
234
100
AcDbEntity
  8
0
 62
7
100
AcDbLine
 10
115.184343
 20
8.120656
 30
0.0
 11
110.192318
 21
8.695713
 31
0.0
  0
LINE
  5
235
100
AcDbEntity
  8
0
 62
7
100
AcDbLine
 10
110.192318
 20
8.695713
 30
0.0
 11
105.098614
 21
9.302663
 31
0.0
  0
LINE
  5
236
100
AcDbEntity
  8
0
 62
7
100
AcDbLine
 10
105.098614
 20
9.302663
 30
0.0
 11
99.923740
 21
9.937527
 31
0.0
  0
LINE
  5
237
100
AcDbEntity
  8
0
 62
7
100
AcDbLine
 10
99.923740
 20
9.937527
 30
0.0
 11
94.688204
 21
10.596323
 31
0.0
  0
LINE
  5
238
100
AcDbEntity
  8
0
 62
7
100
AcDbLine
 10
94.688204
 20
10.596323
 30
0.0
 11
89.412515
 21
11.275072
 31
0.0
  0
LINE
  5
239
100
AcDbEntity
  8
0
 62
7
100
AcDbLine
 10
89.412515
 20
11.275072
 30
0.0
 11
84.117181
 21
11.969791
 31
0.0
  0
LINE
  5
23a
100
AcDbEntity
  8
0
 62
7
100
AcDbLine
 10
84.117181
 20
11.969791
 30
0.0
 11
78.822711
 21
12.676502
 31
0.0
  0
LINE
  5
23b
100
AcDbEntity
  8
0
 62
7
100
AcDbLine
 10
78.822711
 20
12.676502
 30
0.0
 11
73.549613
 21
13.391222
 31
0.0
  0
LINE
  5
23c
100
AcDbEntity
  8
0
 62
7
100
AcDbLine
 10
73.549613
 20
13.391222
 30
0.0
 11
68.318397
 21
14.109971
 31
0.0
  0
LINE
  5
23d
100
AcDbEntity
  8
0
 62
7
100
AcDbLine
 10
68.318397
 20
14.109971
 30
0.0
 11
63.149571
 21
14.828768
 31
0.0
  0
LINE
  5
23e
100
AcDbEntity
  8
0
 62
7
100
AcDbLine
 10
63.149571
 20
14.828768
 30
0.0
 11
58.063642
 21
15.543634
 31
0.0
  0
LINE
  5
23f
100
AcDbEntity
  8
0
 62
7
100
AcDbLine
 10
58.063642
 20
15.543634
 30
0.0
 11
53.081121
 21
16.250586
 31
0.0
  0
LINE
  5
240
100
AcDbEntity
  8
0
 62
7
100
AcDbLine
 10
53.081121
 20
16.250586
 30
0.0
 11
43.508333
 21
17.624830
 31
0.0
  0
LINE
  5
241
100
AcDbEntity
  8
0
 62
7
100
AcDbLine
 10
43.508333
 20
17.624830
 30
0.0
 11
34.595276
 21
18.919653
 31
0.0
  0
LINE
  5
242
100
AcDbEntity
  8
0
 62
7
100
AcDbLine
 10
34.595276
 20
18.919653
 30
0.0
 11
26.506017
 21
20.103210
 31
0.0
  0
LINE
  5
243
100
AcDbEntity
  8
0
 62
7
100
AcDbLine
 10
26.506017
 20
20.103210
 30
0.0
 11
19.404626
 21
21.143655
 31
0.0
  0
LINE
  5
244
100
AcDbEntity
  8
0
 62
7
100
AcDbLine
 10
19.404626
 20
21.143655
 30
0.0
 11
13.455172
 21
22.009144
 31
0.0
  0
LINE
  5
245
100
AcDbEntity
  8
0
 62
7
100
AcDbLine
 10
13.455172
 20
22.009144
 30
0.0
 11
11.879975
 21
22.228341
 31
0.0
  0
LINE
  5
246
100
AcDbEntity
  8
0
 62
7
100
AcDbLine
 10
11.879975
 20
22.228341
 30
0.0
 11
11.107450
 21
22.347989
 31
0.0
  0
LINE
  5
247
100
AcDbEntity
  8
0
 62
7
100
AcDbLine
 10
11.107450
 20
22.347989
 30
0.0
 11
10.727679
 21
22.415272
 31
0.0
  0
LINE
  5
248
100
AcDbEntity
  8
0
 62
7
100
AcDbLine
 10
10.727679
 20
22.415272
 30
0.0
 11
10.353273
 21
22.489412
 31
0.0
  0
LINE
  5
249
100
AcDbEntity
  8
0
 62
7
100
AcDbLine
 10
10.353273
 20
22.489412
 30
0.0
 11
9.985009
 21
22.571822
 31
0.0
  0
LINE
  5
24a
100
AcDbEntity
  8
0
 62
7
100
AcDbLine
 10
9.985009
 20
22.571822
 30
0.0
 11
9.623666
 21
22.663916
 31
0.0
  0
LINE
  5
24b
100
AcDbEntity
  8
0
 62
7
100
AcDbLine
 10
9.623666
 20
22.663916
 30
0.0
 11
9.270021
 21
22.767106
 31
0.0
  0
LINE
  5
24c
100
AcDbEntity
  8
0
 62
7
100
AcDbLine
 10
9.270021
 20
22.767106
 30
0.0
 11
8.924853
 21
22.882807
 31
0.0
  0
LINE
  5
24d
100
AcDbEntity
  8
0
 62
7
100
AcDbLine
 10
8.924853
 20
22.882807
 30
0.0
 11
8.588939
 21
23.012431
 31
0.0
  0
LINE
  5
24e
100
AcDbEntity
  8
0
 62
7
100
AcDbLine
 10
8.588939
 20
23.012431
 30
0.0
 11
8.263057
 21
23.157391
 31
0.0
  0
LINE
  5
24f
100
AcDbEntity
  8
0
 62
7
100
AcDbLine
 10
8.263057
 20
23.157391
 30
0.0
 11
7.947985
 21
23.319102
 31
0.0
  0
LINE
  5
250
100
AcDbEntity
  8
0
 62
7
100
AcDbLine
 10
7.947985
 20
23.319102
 30
0.0
 11
7.794746
 21
23.406680
 31
0.0
  0
LINE
  5
251
100
AcDbEntity
  8
0
 62
7
100
AcDbLine
 10
7.794746
 20
23.406680
 30
0.0
 11
7.644502
 21
23.498976
 31
0.0
  0
LINE
  5
252
100
AcDbEntity
  8
0
 62
7
100
AcDbLine
 10
7.644502
 20
23.498976
 30
0.0
 11
7.497349
 21
23.596165
 31
0.0
  0
LINE
  5
253
100
AcDbEntity
  8
0
 62
7
100
AcDbLine
 10
7.497349
 20
23.596165
 30
0.0
 11
7.353384
 21
23.698426
 31
0.0
  0
LINE
  5
254
100
AcDbEntity
  8
0
 62
7
100
AcDbLine
 10
7.353384
 20
23.698426
 30
0.0
 11
7.212706
 21
23.805934
 31
0.0
  0
LINE
  5
255
100
AcDbEntity
  8
0
 62
7
100
AcDbLine
 10
7.212706
 20
23.805934
 30
0.0
 11
7.075411
 21
23.918866
 31
0.0
  0
LINE
  5
256
100
AcDbEntity
  8
0
 62
7
100
AcDbLine
 10
7.075411
 20
23.918866
 30
0.0
 11
6.941596
 21
24.037399
 31
0.0
  0
LINE
  5
257
100
AcDbEntity
  8
0
 62
7
100
AcDbLine
 10
6.941596
 20
24.037399
 30
0.0
 11
6.811359
 21
24.161709
 31
0.0
  0
LINE
  5
258
100
AcDbEntity
  8
0
 62
7
100
AcDbLine
 10
6.811359
 20
24.161709
 30
0.0
 11
6.684797
 21
24.291973
 31
0.0
  0
LINE
  5
259
100
AcDbEntity
  8
0
 62
7
100
AcDbLine
 10
6.684797
 20
24.291973
 30
0.0
 11
6.562007
 21
24.428368
 31
0.0
  0
LINE
  5
25a
100
AcDbEntity
  8
0
 62
7
100
AcDbLine
 10
6.562007
 20
24.428368
 30
0.0
 11
6.443086
 21
24.571071
 31
0.0
  0
LINE
  5
25b
100
AcDbEntity
  8
0
 62
7
100
AcDbLine
 10
6.443086
 20
24.571071
 30
0.0
 11
6.328133
 21
24.720257
 31
0.0
  0
LINE
  5
25c
100
AcDbEntity
  8
0
 62
7
100
AcDbLine
 10
6.328133
 20
24.720257
 30
0.0
 11
6.217243
 21
24.876104
 31
0.0
  0
LINE
  5
25d
100
AcDbEntity
  8
0
 62
7
100
AcDbLine
 10
6.217243
 20
24.876104
 30
0.0
 11
6.110514
 21
25.038789
 31
0.0
  0
LINE
  5
25e
100
AcDbEntity
  8
0
 62
7
100
AcDbLine
 10
6.110514
 20
25.038789
 30
0.0
 11
6.008044
 21
25.208488
 31
0.0
  0
LINE
  5
25f
100
AcDbEntity
  8
0
 62
7
100
AcDbLine
 10
6.008044
 20
25.208488
 30
0.0
 11
5.909929
 21
25.385377
 31
0.0
  0
LINE
  5
260
100
AcDbEntity
  8
0
 62
7
100
AcDbLine
 10
5.909929
 20
25.385377
 30
0.0
 11
5.816267
 21
25.569634
 31
0.0
  0
LINE
  5
261
100
AcDbEntity
  8
0
 62
7
100
AcDbLine
 10
5.816267
 20
25.569634
 30
0.0
 11
5.727155
 21
25.761435
 31
0.0
  0
LINE
  5
262
100
AcDbEntity
  8
0
 62
7
100
AcDbLine
 10
5.727155
 20
25.761435
 30
0.0
 11
5.642691
 21
25.960956
 31
0.0
  0
LINE
  5
263
100
AcDbEntity
  8
0
 62
7
100
AcDbLine
 10
5.642691
 20
25.960956
 30
0.0
 11
5.562971
 21
26.168375
 31
0.0
  0
LINE
  5
264
100
AcDbEntity
  8
0
 62
7
100
AcDbLine
 10
5.562971
 20
26.168375
 30
0.0
 11
5.488093
 21
26.383867
 31
0.0
  0
LINE
  5
265
100
AcDbEntity
  8
0
 62
7
100
AcDbLine
 10
5.488093
 20
26.383867
 30
0.0
 11
5.418154
 21
26.607611
 31
0.0
  0
LINE
  5
266
100
AcDbEntity
  8
0
 62
7
100
AcDbLine
 10
5.418154
 20
26.607611
 30
0.0
 11
5.353252
 21
26.839782
 31
0.0
  0
LINE
  5
267
100
AcDbEntity
  8
0
 62
7
100
AcDbLine
 10
5.353252
 20
26.839782
 30
0.0
 11
5.293482
 21
27.080556
 31
0.0
  0
LINE
  5
268
100
AcDbEntity
  8
0
 62
7
100
AcDbLine
 10
5.293482
 20
27.080556
 30
0.0
 11
5.238944
 21
27.330112
 31
0.0
  0
LINE
  5
269
100
AcDbEntity
  8
0
 62
7
100
AcDbLine
 10
5.238944
 20
27.330112
 30
0.0
 11
5.189734
 21
27.588624
 31
0.0
  0
LINE
  5
26a
100
AcDbEntity
  8
0
 62
7
100
AcDbLine
 10
5.189734
 20
27.588624
 30
0.0
 11
5.145949
 21
27.856271
 31
0.0
  0
LINE
  5
26b
100
AcDbEntity
  8
0
 62
7
100
AcDbLine
 10
5.145949
 20
27.856271
 30
0.0
 11
5.107686
 21
28.133228
 31
0.0
  0
LINE
  5
26c
100
AcDbEntity
  8
0
 62
7
100
AcDbLine
 10
5.107686
 20
28.133228
 30
0.0
 11
5.075044
 21
28.419673
 31
0.0
  0
LINE
  5
26d
100
AcDbEntity
  8
0
 62
7
100
AcDbLine
 10
5.075044
 20
28.419673
 30
0.0
 11
5.048118
 21
28.715781
 31
0.0
  0
LINE
  5
26e
100
AcDbEntity
  8
0
 62
7
100
AcDbLine
 10
5.048118
 20
28.715781
 30
0.0
 11
5.027006
 21
29.021730
 31
0.0
  0
LINE
  5
26f
100
AcDbEntity
  8
0
 62
7
100
AcDbLine
 10
5.027006
 20
29.021730
 30
0.0
 11
5.011806
 21
29.337697
 31
0.0
  0
LINE
  5
270
100
AcDbEntity
  8
0
 62
7
100
AcDbLine
 10
5.011806
 20
29.337697
 30
0.0
 11
5.002615
 21
29.663857
 31
0.0
  0
LINE
  5
271
100
AcDbEntity
  8
0
 62
7
100
AcDbLine
 10
5.002615
 20
29.663857
 30
0.0
 11
4.999530
 21
30.000388
 31
0.0
  0
LINE
  5
272
100
AcDbEntity
  8
0
 62
7
100
AcDbLine
 10
4.999530
 20
30.000388
 30
0.0
 11
4.999530
 21
83.104468
 31
0.0
  0
LINE
  5
273
100
AcDbEntity
  8
0
 62
7
100
AcDbLine
 10
4.999530
 20
83.104468
 30
0.0
 11
4.999523
 21
90.850420
 31
0.0
  0
LINE
  5
274
100
AcDbEntity
  8
0
 62
7
100
AcDbLine
 10
186.449946
 20
25.851115
 30
0.0
 11
188.639648
 21
12.023879
 31
0.0
  0
LINE
  5
275
100
AcDbEntity
  8
0
 62
7
100
AcDbLine
 10
188.639648
 20
12.023879
 30
0.0
 11
202.468262
 21
14.213582
 31
0.0
  0
LINE
  5
276
100
AcDbEntity
  8
0
 62
7
100
AcDbLine
 10
202.468262
 20
14.213582
 30
0.0
 11
200.278559
 21
28.040817
 31
0.0
  0
LINE
  5
277
100
AcDbEntity
  8
0
 62
7
100
AcDbLine
 10
200.278559
 20
28.040817
 30
0.0
 11
186.449946
 21
25.851115
 31
0.0
  0
LINE
  5
278
100
AcDbEntity
  8
0
 62
7
100
AcDbLine
 10
166.890072
 20
27.575040
 30
0.0
 11
169.079774
 21
13.746427
 31
0.0
  0
LINE
  5
279
100
AcDbEntity
  8
0
 62
7
100
AcDbLine
 10
169.079774
 20
13.746427
 30
0.0
 11
182.907010
 21
15.936130
 31
0.0
  0
LINE
  5
27a
100
AcDbEntity
  8
0
 62
7
100
AcDbLine
 10
182.907010
 20
15.936130
 30
0.0
 11
180.717307
 21
29.764743
 31
0.0
  0
LINE
  5
27b
100
AcDbEntity
  8
0
 62
7
100
AcDbLine
 10
180.717307
 20
29.764743
 30
0.0
 11
166.890072
 21
27.575040
 31
0.0
  0
LINE
  5
27c
100
AcDbEntity
  8
0
 62
7
100
AcDbLine
 10
205.264301
 20
28.831811
 30
0.0
 11
207.455382
 21
15.003198
 31
0.0
  0
LINE
  5
27d
100
AcDbEntity
  8
0
 62
7
100
AcDbLine
 10
207.455382
 20
15.003198
 30
0.0
 11
221.282617
 21
17.194279
 31
0.0
  0
LINE
  5
27e
100
AcDbEntity
  8
0
 62
7
100
AcDbLine
 10
221.282617
 20
17.194279
 30
0.0
 11
219.092914
 21
31.021514
 31
0.0
  0
LINE
  5
27f
100
AcDbEntity
  8
0
 62
7
100
AcDbLine
 10
219.092914
 20
31.021514
 30
0.0
 11
205.264301
 21
28.831811
 31
0.0
  0
LINE
  5
280
100
AcDbEntity
  8
0
 62
7
100
AcDbLine
 10
224.080035
 20
31.811130
 30
0.0
 11
226.271115
 21
17.983895
 31
0.0
  0
LINE
  5
281
100
AcDbEntity
  8
0
 62
7
100
AcDbLine
 10
226.271115
 20
17.983895
 30
0.0
 11
240.098351
 21
20.173597
 31
0.0
  0
LINE
  5
282
100
AcDbEntity
  8
0
 62
7
100
AcDbLine
 10
240.098351
 20
20.173597
 30
0.0
 11
237.908648
 21
34.000832
 31
0.0
  0
LINE
  5
283
100
AcDbEntity
  8
0
 62
7
100
AcDbLine
 10
237.908648
 20
34.000832
 30
0.0
 11
224.080035
 21
31.811130
 31
0.0
  0
LINE
  5
284
100
AcDbEntity
  8
0
 62
7
100
AcDbLine
 10
242.895768
 20
34.791826
 30
0.0
 11
245.086849
 21
20.963213
 31
0.0
  0
LINE
  5
285
100
AcDbEntity
  8
0
 62
7
100
AcDbLine
 10
245.086849
 20
20.963213
 30
0.0
 11
258.914084
 21
23.154294
 31
0.0
  0
LINE
  5
286
100
AcDbEntity
  8
0
 62
7
100
AcDbLine
 10
258.914084
 20
23.154294
 30
0.0
 11
256.724381
 21
36.981529
 31
0.0
  0
LINE
  5
287
100
AcDbEntity
  8
0
 62
7
100
AcDbLine
 10
256.724381
 20
36.981529
 30
0.0
 11
242.895768
 21
34.791826
 31
0.0
  0
LINE
  5
288
100
AcDbEntity
  8
0
 62
7
100
AcDbLine
 10
261.712880
 20
37.771145
 30
0.0
 11
263.902582
 21
23.943910
 31
0.0
  0
LINE
  5
289
100
AcDbEntity
  8
0
 62
7
100
AcDbLine
 10
263.902582
 20
23.943910
 30
0.0
 11
277.729818
 21
26.133612
 31
0.0
  0
LINE
  5
28a
100
AcDbEntity
  8
0
 62
7
100
AcDbLine
 10
277.729818
 20
26.133612
 30
0.0
 11
275.540115
 21
39.962226
 31
0.0
  0
LINE
  5
28b
100
AcDbEntity
  8
0
 62
7
100
AcDbLine
 10
275.540115
 20
39.962226
 30
0.0
 11
261.712880
 21
37.771145
 31
0.0
  0
LINE
  5
28c
100
AcDbEntity
  8
0
 62
7
100
AcDbLine
 10
280.527235
 20
40.751842
 30
0.0
 11
282.716938
 21
26.923228
 31
0.0
  0
LINE
  5
28d
100
AcDbEntity
  8
0
 62
7
100
AcDbLine
 10
282.716938
 20
26.923228
 30
0.0
 11
296.545551
 21
29.114309
 31
0.0
  0
LINE
  5
28e
100
AcDbEntity
  8
0
 62
7
100
AcDbLine
 10
296.545551
 20
29.114309
 30
0.0
 11
294.354470
 21
42.941544
 31
0.0
  0
LINE
  5
28f
100
AcDbEntity
  8
0
 62
7
100
AcDbLine
 10
294.354470
 20
42.941544
 30
0.0
 11
280.527235
 21
40.751842
 31
0.0
  0
LINE
  5
290
100
AcDbEntity
  8
0
 62
7
100
AcDbLine
 10
183.469249
 20
44.666848
 30
0.0
 11
185.658952
 21
30.838235
 31
0.0
  0
LINE
  5
291
100
AcDbEntity
  8
0
 62
7
100
AcDbLine
 10
185.658952
 20
30.838235
 30
0.0
 11
199.487565
 21
33.027937
 31
0.0
  0
LINE
  5
292
100
AcDbEntity
  8
0
 62
7
100
AcDbLine
 10
199.487565
 20
33.027937
 30
0.0
 11
197.297862
 21
46.856551
 31
0.0
  0
LINE
  5
293
100
AcDbEntity
  8
0
 62
7
100
AcDbLine
 10
197.297862
 20
46.856551
 30
0.0
 11
183.469249
 21
44.666848
 31
0.0
  0
LINE
  5
294
100
AcDbEntity
  8
0
 62
7
100
AcDbLine
 10
202.284983
 20
47.647545
 30
0.0
 11
204.474685
 21
33.818931
 31
0.0
  0
LINE
  5
295
100
AcDbEntity
  8
0
 62
7
100
AcDbLine
 10
204.474685
 20
33.818931
 30
0.0
 11
218.303299
 21
36.008634
 31
0.0
  0
LINE
  5
296
100
AcDbEntity
  8
0
 62
7
100
AcDbLine
 10
218.303299
 20
36.008634
 30
0.0
 11
216.112218
 21
49.837247
 31
0.0
  0
LINE
  5
297
100
AcDbEntity
  8
0
 62
7
100
AcDbLine
 10
216.112218
 20
49.837247
 30
0.0
 11
202.284983
 21
47.647545
 31
0.0
  0
LINE
  5
298
100
AcDbEntity
  8
0
 62
7
100
AcDbLine
 10
221.100716
 20
50.626863
 30
0.0
 11
223.290419
 21
36.799628
 31
0.0
  0
LINE
  5
299
100
AcDbEntity
  8
0
 62
7
100
AcDbLine
 10
223.290419
 20
36.799628
 30
0.0
 11
237.119032
 21
38.989331
 31
0.0
  0
LINE
  5
29a
100
AcDbEntity
  8
0
 62
7
100
AcDbLine
 10
237.119032
 20
38.989331
 30
0.0
 11
234.927951
 21
52.816566
 31
0.0
  0
LINE
  5
29b
100
AcDbEntity
  8
0
 62
7
100
AcDbLine
 10
234.927951
 20
52.816566
 30
0.0
 11
221.100716
 21
50.626863
 31
0.0
  0
LINE
  5
29c
100
AcDbEntity
  8
0
 62
7
100
AcDbLine
 10
163.165234
 20
51.094018
 30
0.0
 11
165.354937
 21
37.266783
 31
0.0
  0
LINE
  5
29d
100
AcDbEntity
  8
0
 62
7
100
AcDbLine
 10
165.354937
 20
37.266783
 30
0.0
 11
179.182172
 21
39.456486
 31
0.0
  0
LINE
  5
29e
100
AcDbEntity
  8
0
 62
7
100
AcDbLine
 10
179.182172
 20
39.456486
 30
0.0
 11
176.992470
 21
53.283721
 31
0.0
  0
LINE
  5
29f
100
AcDbEntity
  8
0
 62
7
100
AcDbLine
 10
176.992470
 20
53.283721
 30
0.0
 11
163.165234
 21
51.094018
 31
0.0
  0
LINE
  5
2a0
100
AcDbEntity
  8
0
 62
7
100
AcDbLine
 10
239.916450
 20
53.607560
 30
0.0
 11
242.106152
 21
39.778947
 31
0.0
  0
LINE
  5
2a1
100
AcDbEntity
  8
0
 62
7
100
AcDbLine
 10
242.106152
 20
39.778947
 30
0.0
 11
255.934766
 21
41.968649
 31
0.0
  0
LINE
  5
2a2
100
AcDbEntity
  8
0
 62
7
100
AcDbLine
 10
255.934766
 20
41.968649
 30
0.0
 11
253.743685
 21
55.797263
 31
0.0
  0
LINE
  5
2a3
100
AcDbEntity
  8
0
 62
7
100
AcDbLine
 10
253.743685
 20
55.797263
 30
0.0
 11
239.916450
 21
53.607560
 31
0.0
  0
LINE
  5
2a4
100
AcDbEntity
  8
0
 62
7
100
AcDbLine
 10
258.732183
 20
56.586878
 30
0.0
 11
260.921886
 21
42.759643
 31
0.0
  0
LINE
  5
2a5
100
AcDbEntity
  8
0
 62
7
100
AcDbLine
 10
260.921886
 20
42.759643
 30
0.0
 11
274.749121
 21
44.949346
 31
0.0
  0
LINE
  5
2a6
100
AcDbEntity
  8
0
 62
7
100
AcDbLine
 10
274.749121
 20
44.949346
 30
0.0
 11
272.559418
 21
58.777959
 31
0.0
  0
LINE
  5
2a7
100
AcDbEntity
  8
0
 62
7
100
AcDbLine
 10
272.559418
 20
58.777959
 30
0.0
 11
258.732183
 21
56.586878
 31
0.0
  0
LINE
  5
2a8
100
AcDbEntity
  8
0
 62
7
100
AcDbLine
 10
277.546539
 20
59.567575
 30
0.0
 11
279.736241
 21
45.738962
 31
0.0
  0
LINE
  5
2a9
100
AcDbEntity
  8
0
 62
7
100
AcDbLine
 10
279.736241
 20
45.738962
 30
0.0
 11
293.564855
 21
47.930043
 31
0.0
  0
LINE
  5
2aa
100
AcDbEntity
  8
0
 62
7
100
AcDbLine
 10
293.564855
 20
47.930043
 30
0.0
 11
291.375152
 21
61.757278
 31
0.0
  0
LINE
  5
2ab
100
AcDbEntity
  8
0
 62
7
100
AcDbLine
 10
291.375152
 20
61.757278
 30
0.0
 11
277.546539
 21
59.567575
 31
0.0
  0
LINE
  5
2ac
100
AcDbEntity
  8
0
 62
7
100
AcDbLine
 10
180.489931
 20
63.481204
 30
0.0
 11
182.679633
 21
49.653968
 31
0.0
  0
LINE
  5
2ad
100
AcDbEntity
  8
0
 62
7
100
AcDbLine
 10
182.679633
 20
49.653968
 30
0.0
 11
196.506869
 21
51.843671
 31
0.0
  0
LINE
  5
2ae
100
AcDbEntity
  8
0
 62
7
100
AcDbLine
 10
196.506869
 20
51.843671
 30
0.0
 11
194.317166
 21
65.670906
 31
0.0
  0
LINE
  5
2af
100
AcDbEntity
  8
0
 62
7
100
AcDbLine
 10
194.317166
 20
65.670906
 30
0.0
 11
180.489931
 21
63.481204
 31
0.0
  0
LINE
  5
2b0
100
AcDbEntity
  8
0
 62
7
100
AcDbLine
 10
199.305664
 20
66.461900
 30
0.0
 11
201.495367
 21
52.633287
 31
0.0
  0
LINE
  5
2b1
100
AcDbEntity
  8
0
 62
7
100
AcDbLine
 10
201.495367
 20
52.633287
 30
0.0
 11
215.322602
 21
54.824368
 31
0.0
  0
LINE
  5
2b2
100
AcDbEntity
  8
0
 62
7
100
AcDbLine
 10
215.322602
 20
54.824368
 30
0.0
 11
213.132899
 21
68.651603
 31
0.0
  0
LINE
  5
2b3
100
AcDbEntity
  8
0
 62
7
100
AcDbLine
 10
213.132899
 20
68.651603
 30
0.0
 11
199.305664
 21
66.461900
 31
0.0
  0
LINE
  5
2b4
100
AcDbEntity
  8
0
 62
7
100
AcDbLine
 10
218.120020
 20
69.441219
 30
0.0
 11
220.311100
 21
55.613984
 31
0.0
  0
LINE
  5
2b5
100
AcDbEntity
  8
0
 62
7
100
AcDbLine
 10
220.311100
 20
55.613984
 30
0.0
 11
234.138336
 21
57.803686
 31
0.0
  0
LINE
  5
2b6
100
AcDbEntity
  8
0
 62
7
100
AcDbLine
 10
234.138336
 20
57.803686
 30
0.0
 11
231.948633
 21
71.632299
 31
0.0
  0
LINE
  5
2b7
100
AcDbEntity
  8
0
 62
7
100
AcDbLine
 10
231.948633
 20
71.632299
 30
0.0
 11
218.120020
 21
69.441219
 31
0.0
  0
LINE
  5
2b8
100
AcDbEntity
  8
0
 62
7
100
AcDbLine
 10
236.935753
 20
72.421915
 30
0.0
 11
239.126834
 21
58.593302
 31
0.0
  0
LINE
  5
2b9
100
AcDbEntity
  8
0
 62
7
100
AcDbLine
 10
239.126834
 20
58.593302
 30
0.0
 11
252.954069
 21
60.784383
 31
0.0
  0
LINE
  5
2ba
100
AcDbEntity
  8
0
 62
7
100
AcDbLine
 10
252.954069
 20
60.784383
 30
0.0
 11
250.764366
 21
74.611618
 31
0.0
  0
LINE
  5
2bb
100
AcDbEntity
  8
0
 62
7
100
AcDbLine
 10
250.764366
 20
74.611618
 30
0.0
 11
236.935753
 21
72.421915
 31
0.0
  0
LINE
  5
2bc
100
AcDbEntity
  8
0
 62
7
100
AcDbLine
 10
255.751487
 20
75.402612
 30
0.0
 11
257.942567
 21
61.573999
 31
0.0
  0
LINE
  5
2bd
100
AcDbEntity
  8
0
 62
7
100
AcDbLine
 10
257.942567
 20
61.573999
 30
0.0
 11
271.769803
 21
63.763701
 31
0.0
  0
LINE
  5
2be
100
AcDbEntity
  8
0
 62
7
100
AcDbLine
 10
271.769803
 20
63.763701
 30
0.0
 11
269.580100
 21
77.592315
 31
0.0
  0
LINE
  5
2bf
100
AcDbEntity
  8
0
 62
7
100
AcDbLine
 10
269.580100
 20
77.592315
 30
0.0
 11
255.751487
 21
75.402612
 31
0.0
  0
LINE
  5
2c0
100
AcDbEntity
  8
0
 62
7
100
AcDbLine
 10
274.567220
 20
78.383309
 30
0.0
 11
276.756923
 21
64.554695
 31
0.0
  0
LINE
  5
2c1
100
AcDbEntity
  8
0
 62
7
100
AcDbLine
 10
276.756923
 20
64.554695
 30
0.0
 11
290.584158
 21
66.744398
 31
0.0
  0
LINE
  5
2c2
100
AcDbEntity
  8
0
 62
7
100
AcDbLine
 10
290.584158
 20
66.744398
 30
0.0
 11
288.394455
 21
80.573011
 31
0.0
  0
LINE
  5
2c3
100
AcDbEntity
  8
0
 62
7
100
AcDbLine
 10
288.394455
 20
80.573011
 30
0.0
 11
274.567220
 21
78.383309
 31
0.0
  0
LINE
  5
2c4
100
AcDbEntity
  8
0
 62
7
100
AcDbLine
 10
177.510612
 20
82.296937
 30
0.0
 11
179.700315
 21
68.469702
 31
0.0
  0
LINE
  5
2c5
100
AcDbEntity
  8
0
 62
7
100
AcDbLine
 10
179.700315
 20
68.469702
 30
0.0
 11
193.526172
 21
70.659405
 31
0.0
  0
LINE
  5
2c6
100
AcDbEntity
  8
0
 62
7
100
AcDbLine
 10
193.526172
 20
70.659405
 30
0.0
 11
191.336469
 21
84.486640
 31
0.0
  0
LINE
  5
2c7
100
AcDbEntity
  8
0
 62
7
100
AcDbLine
 10
191.336469
 20
84.486640
 30
0.0
 11
177.510612
 21
82.296937
 31
0.0
  0
LINE
  5
2c8
100
AcDbEntity
  8
0
 62
7
100
AcDbLine
 10
196.324967
 20
85.277634
 30
0.0
 11
198.514670
 21
71.449020
 31
0.0
  0
LINE
  5
2c9
100
AcDbEntity
  8
0
 62
7
100
AcDbLine
 10
198.514670
 20
71.449020
 30
0.0
 11
212.341905
 21
73.640101
 31
0.0
  0
LINE
  5
2ca
100
AcDbEntity
  8
0
 62
7
100
AcDbLine
 10
212.341905
 20
73.640101
 30
0.0
 11
210.152203
 21
87.467336
 31
0.0
  0
LINE
  5
2cb
100
AcDbEntity
  8
0
 62
7
100
AcDbLine
 10
210.152203
 20
87.467336
 30
0.0
 11
196.324967
 21
85.277634
 31
0.0
  0
LINE
  5
2cc
100
AcDbEntity
  8
0
 62
7
100
AcDbLine
 10
215.140701
 20
88.256952
 30
0.0
 11
217.330404
 21
74.429717
 31
0.0
  0
LINE
  5
2cd
100
AcDbEntity
  8
0
 62
7
100
AcDbLine
 10
217.330404
 20
74.429717
 30
0.0
 11
231.157639
 21
76.619420
 31
0.0
  0
LINE
  5
2ce
100
AcDbEntity
  8
0
 62
7
100
AcDbLine
 10
231.157639
 20
76.619420
 30
0.0
 11
228.967936
 21
90.448033
 31
0.0
  0
LINE
  5
2cf
100
AcDbEntity
  8
0
 62
7
100
AcDbLine
 10
228.967936
 20
90.448033
 30
0.0
 11
215.140701
 21
88.256952
 31
0.0
  0
LINE
  5
2d0
100
AcDbEntity
  8
0
 62
7
100
AcDbLine
 10
233.956434
 20
91.237649
 30
0.0
 11
236.146137
 21
77.409036
 31
0.0
  0
LINE
  5
2d1
100
AcDbEntity
  8
0
 62
7
100
AcDbLine
 10
236.146137
 20
77.409036
 30
0.0
 11
249.974750
 21
79.600116
 31
0.0
  0
LINE
  5
2d2
100
AcDbEntity
  8
0
 62
7
100
AcDbLine
 10
249.974750
 20
79.600116
 30
0.0
 11
247.783670
 21
93.427352
 31
0.0
  0
LINE
  5
2d3
100
AcDbEntity
  8
0
 62
7
100
AcDbLine
 10
247.783670
 20
93.427352
 30
0.0
 11
233.956434
 21
91.237649
 31
0.0
  0
LINE
  5
2d4
100
AcDbEntity
  8
0
 62
7
100
AcDbLine
 10
252.772168
 20
94.216967
 30
0.0
 11
254.961871
 21
80.389732
 31
0.0
  0
LINE
  5
2d5
100
AcDbEntity
  8
0
 62
7
100
AcDbLine
 10
254.961871
 20
80.389732
 30
0.0
 11
268.790484
 21
82.579435
 31
0.0
  0
LINE
  5
2d6
100
AcDbEntity
  8
0
 62
7
100
AcDbLine
 10
268.790484
 20
82.579435
 30
0.0
 11
266.599403
 21
96.408048
 31
0.0
  0
LINE
  5
2d7
100
AcDbEntity
  8
0
 62
7
100
AcDbLine
 10
266.599403
 20
96.408048
 30
0.0
 11
252.772168
 21
94.216967
 31
0.0
  0
LINE
  5
2d8
100
AcDbEntity
  8
0
 62
7
100
AcDbLine
 10
271.586523
 20
97.197664
 30
0.0
 11
273.776226
 21
83.370429
 31
0.0
  0
LINE
  5
2d9
100
AcDbEntity
  8
0
 62
7
100
AcDbLine
 10
273.776226
 20
83.370429
 30
0.0
 11
287.604839
 21
85.560131
 31
0.0
  0
LINE
  5
2da
100
AcDbEntity
  8
0
 62
7
100
AcDbLine
 10
287.604839
 20
85.560131
 30
0.0
 11
285.415137
 21
99.387367
 31
0.0
  0
LINE
  5
2db
100
AcDbEntity
  8
0
 62
7
100
AcDbLine
 10
285.415137
 20
99.387367
 30
0.0
 11
271.586523
 21
97.197664
 31
0.0
  0
LINE
  5
2dc
100
AcDbEntity
  8
0
 62
7
100
AcDbLine
 10
107.532454
 20
14.213582
 30
0.0
 11
121.359690
 21
12.022501
 31
0.0
  0
LINE
  5
2dd
100
AcDbEntity
  8
0
 62
7
100
AcDbLine
 10
121.359690
 20
12.022501
 30
0.0
 11
123.550770
 21
25.851115
 31
0.0
  0
LINE
  5
2de
100
AcDbEntity
  8
0
 62
7
100
AcDbLine
 10
123.550770
 20
25.851115
 30
0.0
 11
109.723535
 21
28.040817
 31
0.0
  0
LINE
  5
2df
100
AcDbEntity
  8
0
 62
7
100
AcDbLine
 10
109.723535
 20
28.040817
 30
0.0
 11
107.532454
 21
14.213582
 31
0.0
  0
LINE
  5
2e0
100
AcDbEntity
  8
0
 62
7
100
AcDbLine
 10
127.093707
 20
15.937508
 30
0.0
 11
140.920942
 21
13.747805
 31
0.0
  0
LINE
  5
2e1
100
AcDbEntity
  8
0
 62
7
100
AcDbLine
 10
140.920942
 20
13.747805
 30
0.0
 11
143.110645
 21
27.575040
 31
0.0
  0
LINE
  5
2e2
100
AcDbEntity
  8
0
 62
7
100
AcDbLine
 10
143.110645
 20
27.575040
 30
0.0
 11
129.283409
 21
29.764743
 31
0.0
  0
LINE
  5
2e3
100
AcDbEntity
  8
0
 62
7
100
AcDbLine
 10
129.283409
 20
29.764743
 30
0.0
 11
127.093707
 21
15.937508
 31
0.0
  0
LINE
  5
2e4
100
AcDbEntity
  8
0
 62
7
100
AcDbLine
 10
88.716721
 20
17.192901
 30
0.0
 11
102.543956
 21
15.004576
 31
0.0
  0
LINE
  5
2e5
100
AcDbEntity
  8
0
 62
7
100
AcDbLine
 10
102.543956
 20
15.004576
 30
0.0
 11
104.735037
 21
28.830433
 31
0.0
  0
LINE
  5
2e6
100
AcDbEntity
  8
0
 62
7
100
AcDbLine
 10
104.735037
 20
28.830433
 30
0.0
 11
90.907802
 21
31.021514
 31
0.0
  0
LINE
  5
2e7
100
AcDbEntity
  8
0
 62
7
100
AcDbLine
 10
90.907802
 20
31.021514
 30
0.0
 11
88.716721
 21
17.192901
 31
0.0
  0
LINE
  5
2e8
100
AcDbEntity
  8
0
 62
7
100
AcDbLine
 10
69.900987
 20
20.173597
 30
0.0
 11
83.729601
 21
17.983895
 31
0.0
  0
LINE
  5
2e9
100
AcDbEntity
  8
0
 62
7
100
AcDbLine
 10
83.729601
 20
17.983895
 30
0.0
 11
85.919303
 21
31.811130
 31
0.0
  0
LINE
  5
2ea
100
AcDbEntity
  8
0
 62
7
100
AcDbLine
 10
85.919303
 20
31.811130
 30
0.0
 11
72.092068
 21
34.000832
 31
0.0
  0
LINE
  5
2eb
100
AcDbEntity
  8
0
 62
7
100
AcDbLine
 10
72.092068
 20
34.000832
 30
0.0
 11
69.900987
 21
20.173597
 31
0.0
  0
LINE
  5
2ec
100
AcDbEntity
  8
0
 62
7
100
AcDbLine
 10
51.086632
 20
23.152916
 30
0.0
 11
64.913867
 21
20.963213
 31
0.0
  0
LINE
  5
2ed
100
AcDbEntity
  8
0
 62
7
100
AcDbLine
 10
64.913867
 20
20.963213
 30
0.0
 11
67.104948
 21
34.790448
 31
0.0
  0
LINE
  5
2ee
100
AcDbEntity
  8
0
 62
7
100
AcDbLine
 10
67.104948
 20
34.790448
 30
0.0
 11
53.276335
 21
36.981529
 31
0.0
  0
LINE
  5
2ef
100
AcDbEntity
  8
0
 62
7
100
AcDbLine
 10
53.276335
 20
36.981529
 30
0.0
 11
51.086632
 21
23.152916
 31
0.0
  0
LINE
  5
2f0
100
AcDbEntity
  8
0
 62
7
100
AcDbLine
 10
32.270898
 20
26.133612
 30
0.0
 11
46.098134
 21
23.943910
 31
0.0
  0
LINE
  5
2f1
100
AcDbEntity
  8
0
 62
7
100
AcDbLine
 10
46.098134
 20
23.943910
 30
0.0
 11
48.289214
 21
37.771145
 31
0.0
  0
LINE
  5
2f2
100
AcDbEntity
  8
0
 62
7
100
AcDbLine
 10
48.289214
 20
37.771145
 30
0.0
 11
34.461979
 21
39.960848
 31
0.0
  0
LINE
  5
2f3
100
AcDbEntity
  8
0
 62
7
100
AcDbLine
 10
34.461979
 20
39.960848
 30
0.0
 11
32.270898
 21
26.133612
 31
0.0
  0
LINE
  5
2f4
100
AcDbEntity
  8
0
 62
7
100
AcDbLine
 10
13.455165
 20
29.112931
 30
0.0
 11
27.282400
 21
26.923228
 31
0.0
  0
LINE
  5
2f5
100
AcDbEntity
  8
0
 62
7
100
AcDbLine
 10
27.282400
 20
26.923228
 30
0.0
 11
29.473481
 21
40.750464
 31
0.0
  0
LINE
  5
2f6
100
AcDbEntity
  8
0
 62
7
100
AcDbLine
 10
29.473481
 20
40.750464
 30
0.0
 11
15.644868
 21
42.941544
 31
0.0
  0
LINE
  5
2f7
100
AcDbEntity
  8
0
 62
7
100
AcDbLine
 10
15.644868
 20
42.941544
 30
0.0
 11
13.455165
 21
29.112931
 31
0.0
  0
LINE
  5
2f8
100
AcDbEntity
  8
0
 62
7
100
AcDbLine
 10
110.513151
 20
33.029316
 30
0.0
 11
124.340386
 21
30.838235
 31
0.0
  0
LINE
  5
2f9
100
AcDbEntity
  8
0
 62
7
100
AcDbLine
 10
124.340386
 20
30.838235
 30
0.0
 11
126.530089
 21
44.666848
 31
0.0
  0
LINE
  5
2fa
100
AcDbEntity
  8
0
 62
7
100
AcDbLine
 10
126.530089
 20
44.666848
 30
0.0
 11
112.702854
 21
46.856551
 31
0.0
  0
LINE
  5
2fb
100
AcDbEntity
  8
0
 62
7
100
AcDbLine
 10
112.702854
 20
46.856551
 30
0.0
 11
110.513151
 21
33.029316
 31
0.0
  0
LINE
  5
2fc
100
AcDbEntity
  8
0
 62
7
100
AcDbLine
 10
91.697418
 20
36.008634
 30
0.0
 11
105.524653
 21
33.818931
 31
0.0
  0
LINE
  5
2fd
100
AcDbEntity
  8
0
 62
7
100
AcDbLine
 10
105.524653
 20
33.818931
 30
0.0
 11
107.714355
 21
47.646167
 31
0.0
  0
LINE
  5
2fe
100
AcDbEntity
  8
0
 62
7
100
AcDbLine
 10
107.714355
 20
47.646167
 30
0.0
 11
93.887120
 21
49.837247
 31
0.0
  0
LINE
  5
2ff
100
AcDbEntity
  8
0
 62
7
100
AcDbLine
 10
93.887120
 20
49.837247
 30
0.0
 11
91.697418
 21
36.008634
 31
0.0
  0
LINE
  5
300
100
AcDbEntity
  8
0
 62
7
100
AcDbLine
 10
72.881684
 20
38.989331
 30
0.0
 11
86.708919
 21
36.799628
 31
0.0
  0
LINE
  5
301
100
AcDbEntity
  8
0
 62
7
100
AcDbLine
 10
86.708919
 20
36.799628
 30
0.0
 11
88.898622
 21
50.626863
 31
0.0
  0
LINE
  5
302
100
AcDbEntity
  8
0
 62
7
100
AcDbLine
 10
88.898622
 20
50.626863
 30
0.0
 11
75.071387
 21
52.816566
 31
0.0
  0
LINE
  5
303
100
AcDbEntity
  8
0
 62
7
100
AcDbLine
 10
75.071387
 20
52.816566
 30
0.0
 11
72.881684
 21
38.989331
 31
0.0
  0
LINE
  5
304
100
AcDbEntity
  8
0
 62
7
100
AcDbLine
 10
130.818544
 20
39.456486
 30
0.0
 11
144.645779
 21
37.265405
 31
0.0
  0
LINE
  5
305
100
AcDbEntity
  8
0
 62
7
100
AcDbLine
 10
144.645779
 20
37.265405
 30
0.0
 11
146.836860
 21
51.094018
 31
0.0
  0
LINE
  5
306
100
AcDbEntity
  8
0
 62
7
100
AcDbLine
 10
146.836860
 20
51.094018
 30
0.0
 11
133.008247
 21
53.283721
 31
0.0
  0
LINE
  5
307
100
AcDbEntity
  8
0
 62
7
100
AcDbLine
 10
133.008247
 20
53.283721
 30
0.0
 11
130.818544
 21
39.456486
 31
0.0
  0
LINE
  5
308
100
AcDbEntity
  8
0
 62
7
100
AcDbLine
 10
54.067329
 20
41.968649
 30
0.0
 11
67.893186
 21
39.778947
 31
0.0
  0
LINE
  5
309
100
AcDbEntity
  8
0
 62
7
100
AcDbLine
 10
67.893186
 20
39.778947
 30
0.0
 11
70.084266
 21
53.606182
 31
0.0
  0
LINE
  5
30a
100
AcDbEntity
  8
0
 62
7
100
AcDbLine
 10
70.084266
 20
53.606182
 30
0.0
 11
56.257031
 21
55.797263
 31
0.0
  0
LINE
  5
30b
100
AcDbEntity
  8
0
 62
7
100
AcDbLine
 10
56.257031
 20
55.797263
 30
0.0
 11
54.067329
 21
41.968649
 31
0.0
  0
LINE
  5
30c
100
AcDbEntity
  8
0
 62
7
100
AcDbLine
 10
35.251595
 20
44.949346
 30
0.0
 11
49.078830
 21
42.759643
 31
0.0
  0
LINE
  5
30d
100
AcDbEntity
  8
0
 62
7
100
AcDbLine
 10
49.078830
 20
42.759643
 30
0.0
 11
51.267155
 21
56.586878
 31
0.0
  0
LINE
  5
30e
100
AcDbEntity
  8
0
 62
7
100
AcDbLine
 10
51.267155
 20
56.586878
 30
0.0
 11
37.441298
 21
58.776581
 31
0.0
  0
LINE
  5
30f
100
AcDbEntity
  8
0
 62
7
100
AcDbLine
 10
37.441298
 20
58.776581
 30
0.0
 11
35.251595
 21
44.949346
 31
0.0
  0
LINE
  5
310
100
AcDbEntity
  8
0
 62
7
100
AcDbLine
 10
16.435862
 20
47.928664
 30
0.0
 11
30.263097
 21
45.738962
 31
0.0
  0
LINE
  5
311
100
AcDbEntity
  8
0
 62
7
100
AcDbLine
 10
30.263097
 20
45.738962
 30
0.0
 11
32.452799
 21
59.566197
 31
0.0
  0
LINE
  5
312
100
AcDbEntity
  8
0
 62
7
100
AcDbLine
 10
32.452799
 20
59.566197
 30
0.0
 11
18.625564
 21
61.757278
 31
0.0
  0
LINE
  5
313
100
AcDbEntity
  8
0
 62
7
100
AcDbLine
 10
18.625564
 20
61.757278
 30
0.0
 11
16.435862
 21
47.928664
 31
0.0
  0
LINE
  5
314
100
AcDbEntity
  8
0
 62
7
100
AcDbLine
 10
113.492470
 20
51.845049
 30
0.0
 11
127.321083
 21
49.655346
 31
0.0
  0
LINE
  5
315
100
AcDbEntity
  8
0
 62
7
100
AcDbLine
 10
127.321083
 20
49.655346
 30
0.0
 11
129.510786
 21
63.482582
 31
0.0
  0
LINE
  5
316
100
AcDbEntity
  8
0
 62
7
100
AcDbLine
 10
129.510786
 20
63.482582
 30
0.0
 11
115.683550
 21
65.672284
 31
0.0
  0
LINE
  5
317
100
AcDbEntity
  8
0
 62
7
100
AcDbLine
 10
115.683550
 20
65.672284
 30
0.0
 11
113.492470
 21
51.845049
 31
0.0
  0
LINE
  5
318
100
AcDbEntity
  8
0
 62
7
100
AcDbLine
 10
94.676736
 20
54.824368
 30
0.0
 11
108.503971
 21
52.634665
 31
0.0
  0
LINE
  5
319
100
AcDbEntity
  8
0
 62
7
100
AcDbLine
 10
108.503971
 20
52.634665
 30
0.0
 11
110.695052
 21
66.461900
 31
0.0
  0
LINE
  5
31a
100
AcDbEntity
  8
0
 62
7
100
AcDbLine
 10
110.695052
 20
66.461900
 30
0.0
 11
96.867817
 21
68.652981
 31
0.0
  0
LINE
  5
31b
100
AcDbEntity
  8
0
 62
7
100
AcDbLine
 10
96.867817
 20
68.652981
 30
0.0
 11
94.676736
 21
54.824368
 31
0.0
  0
LINE
  5
31c
100
AcDbEntity
  8
0
 62
7
100
AcDbLine
 10
75.861003
 20
57.805064
 30
0.0
 11
89.689616
 21
55.615362
 31
0.0
  0
LINE
  5
31d
100
AcDbEntity
  8
0
 62
7
100
AcDbLine
 10
89.689616
 20
55.615362
 30
0.0
 11
91.879319
 21
69.442597
 31
0.0
  0
LINE
  5
31e
100
AcDbEntity
  8
0
 62
7
100
AcDbLine
 10
91.879319
 20
69.442597
 30
0.0
 11
78.052083
 21
71.632299
 31
0.0
  0
LINE
  5
31f
100
AcDbEntity
  8
0
 62
7
100
AcDbLine
 10
78.052083
 20
71.632299
 30
0.0
 11
75.861003
 21
57.805064
 31
0.0
  0
LINE
  5
320
100
AcDbEntity
  8
0
 62
7
100
AcDbLine
 10
57.046647
 20
60.784383
 30
0.0
 11
70.873882
 21
58.594680
 31
0.0
  0
LINE
  5
321
100
AcDbEntity
  8
0
 62
7
100
AcDbLine
 10
70.873882
 20
58.594680
 30
0.0
 11
73.063585
 21
72.421915
 31
0.0
  0
LINE
  5
322
100
AcDbEntity
  8
0
 62
7
100
AcDbLine
 10
73.063585
 20
72.421915
 30
0.0
 11
59.236350
 21
74.612996
 31
0.0
  0
LINE
  5
323
100
AcDbEntity
  8
0
 62
7
100
AcDbLine
 10
59.236350
 20
74.612996
 30
0.0
 11
57.046647
 21
60.784383
 31
0.0
  0
LINE
  5
324
100
AcDbEntity
  8
0
 62
7
100
AcDbLine
 10
38.230914
 20
63.765079
 30
0.0
 11
52.058149
 21
61.575377
 31
0.0
  0
LINE
  5
325
100
AcDbEntity
  8
0
 62
7
100
AcDbLine
 10
52.058149
 20
61.575377
 30
0.0
 11
54.249230
 21
75.402612
 31
0.0
  0
LINE
  5
326
100
AcDbEntity
  8
0
 62
7
100
AcDbLine
 10
54.249230
 20
75.402612
 30
0.0
 11
40.420616
 21
77.592315
 31
0.0
  0
LINE
  5
327
100
AcDbEntity
  8
0
 62
7
100
AcDbLine
 10
40.420616
 20
77.592315
 30
0.0
 11
38.230914
 21
63.765079
 31
0.0
  0
LINE
  5
328
100
AcDbEntity
  8
0
 62
7
100
AcDbLine
 10
19.413802
 20
66.744398
 30
0.0
 11
33.242415
 21
64.554695
 31
0.0
  0
LINE
  5
329
100
AcDbEntity
  8
0
 62
7
100
AcDbLine
 10
33.242415
 20
64.554695
 30
0.0
 11
35.433496
 21
78.381931
 31
0.0
  0
LINE
  5
32a
100
AcDbEntity
  8
0
 62
7
100
AcDbLine
 10
35.433496
 20
78.381931
 30
0.0
 11
21.606261
 21
80.573011
 31
0.0
  0
LINE
  5
32b
100
AcDbEntity
  8
0
 62
7
100
AcDbLine
 10
21.606261
 20
80.573011
 30
0.0
 11
19.413802
 21
66.744398
 31
0.0
  0
LINE
  5
32c
100
AcDbEntity
  8
0
 62
7
100
AcDbLine
 10
116.473166
 20
70.659405
 30
0.0
 11
130.300401
 21
68.469702
 31
0.0
  0
LINE
  5
32d
100
AcDbEntity
  8
0
 62
7
100
AcDbLine
 10
130.300401
 20
68.469702
 30
0.0
 11
132.490104
 21
82.298315
 31
0.0
  0
LINE
  5
32e
100
AcDbEntity
  8
0
 62
7
100
AcDbLine
 10
132.490104
 20
82.298315
 30
0.0
 11
118.662869
 21
84.488018
 31
0.0
  0
LINE
  5
32f
100
AcDbEntity
  8
0
 62
7
100
AcDbLine
 10
118.662869
 20
84.488018
 30
0.0
 11
116.473166
 21
70.659405
 31
0.0
  0
LINE
  5
330
100
AcDbEntity
  8
0
 62
7
100
AcDbLine
 10
97.657433
 20
73.640101
 30
0.0
 11
111.484668
 21
71.450398
 31
0.0
  0
LINE
  5
331
100
AcDbEntity
  8
0
 62
7
100
AcDbLine
 10
111.484668
 20
71.450398
 30
0.0
 11
113.674371
 21
85.277634
 31
0.0
  0
LINE
  5
332
100
AcDbEntity
  8
0
 62
7
100
AcDbLine
 10
113.674371
 20
85.277634
 30
0.0
 11
99.847135
 21
87.468714
 31
0.0
  0
LINE
  5
333
100
AcDbEntity
  8
0
 62
7
100
AcDbLine
 10
99.847135
 20
87.468714
 30
0.0
 11
97.657433
 21
73.640101
 31
0.0
  0
LINE
  5
334
100
AcDbEntity
  8
0
 62
7
100
AcDbLine
 10
78.841699
 20
76.620798
 30
0.0
 11
92.668934
 21
74.431095
 31
0.0
  0
LINE
  5
335
100
AcDbEntity
  8
0
 62
7
100
AcDbLine
 10
92.668934
 20
74.431095
 30
0.0
 11
94.858637
 21
88.258330
 31
0.0
  0
LINE
  5
336
100
AcDbEntity
  8
0
 62
7
100
AcDbLine
 10
94.858637
 20
88.258330
 30
0.0
 11
81.031402
 21
90.448033
 31
0.0
  0
LINE
  5
337
100
AcDbEntity
  8
0
 62
7
100
AcDbLine
 10
81.031402
 20
90.448033
 30
0.0
 11
78.841699
 21
76.620798
 31
0.0
  0
LINE
  5
338
100
AcDbEntity
  8
0
 62
7
100
AcDbLine
 10
60.025966
 20
79.600116
 30
0.0
 11
73.854579
 21
77.410414
 31
0.0
  0
LINE
  5
339
100
AcDbEntity
  8
0
 62
7
100
AcDbLine
 10
73.854579
 20
77.410414
 30
0.0
 11
76.044282
 21
91.237649
 31
0.0
  0
LINE
  5
33a
100
AcDbEntity
  8
0
 62
7
100
AcDbLine
 10
76.044282
 20
91.237649
 30
0.0
 11
62.217046
 21
93.427352
 31
0.0
  0
LINE
  5
33b
100
AcDbEntity
  8
0
 62
7
100
AcDbLine
 10
62.217046
 20
93.427352
 30
0.0
 11
60.025966
 21
79.600116
 31
0.0
  0
LINE
  5
33c
100
AcDbEntity
  8
0
 62
7
100
AcDbLine
 10
41.211610
 20
82.580813
 30
0.0
 11
55.038845
 21
80.391110
 31
0.0
  0
LINE
  5
33d
100
AcDbEntity
  8
0
 62
7
100
AcDbLine
 10
55.038845
 20
80.391110
 30
0.0
 11
57.228548
 21
94.218345
 31
0.0
  0
LINE
  5
33e
100
AcDbEntity
  8
0
 62
7
100
AcDbLine
 10
57.228548
 20
94.218345
 30
0.0
 11
43.401313
 21
96.408048
 31
0.0
  0
LINE
  5
33f
100
AcDbEntity
  8
0
 62
7
100
AcDbLine
 10
43.401313
 20
96.408048
 30
0.0
 11
41.211610
 21
82.580813
 31
0.0
  0
LINE
  5
340
100
AcDbEntity
  8
0
 62
7
100
AcDbLine
 10
22.395877
 20
85.560131
 30
0.0
 11
36.223112
 21
83.370429
 31
0.0
  0
LINE
  5
341
100
AcDbEntity
  8
0
 62
7
100
AcDbLine
 10
36.223112
 20
83.370429
 30
0.0
 11
38.412815
 21
97.197664
 31
0.0
  0
LINE
  5
342
100
AcDbEntity
  8
0
 62
7
100
AcDbLine
 10
38.412815
 20
97.197664
 30
0.0
 11
24.585579
 21
99.388745
 31
0.0
  0
LINE
  5
343
100
AcDbEntity
  8
0
 62
7
100
AcDbLine
 10
24.585579
 20
99.388745
 30
0.0
 11
22.395877
 21
85.560131
 31
0.0
  0
LINE
  5
344
100
AcDbEntity
  8
0
 62
7
100
AcDbLine
 10
16.807932
 20
104.199476
 30
0.0
 11
16.920445
 21
104.193788
 31
0.0
  0
LINE
  5
345
100
AcDbEntity
  8
0
 62
7
100
AcDbLine
 10
16.920445
 20
104.193788
 30
0.0
 11
17.029723
 21
104.177094
 31
0.0
  0
LINE
  5
346
100
AcDbEntity
  8
0
 62
7
100
AcDbLine
 10
17.029723
 20
104.177094
 30
0.0
 11
17.135210
 21
104.149952
 31
0.0
  0
LINE
  5
347
100
AcDbEntity
  8
0
 62
7
100
AcDbLine
 10
17.135210
 20
104.149952
 30
0.0
 11
17.236351
 21
104.112918
 31
0.0
  0
LINE
  5
348
100
AcDbEntity
  8
0
 62
7
100
AcDbLine
 10
17.236351
 20
104.112918
 30
0.0
 11
17.332591
 21
104.066551
 31
0.0
  0
LINE
  5
349
100
AcDbEntity
  8
0
 62
7
100
AcDbLine
 10
17.332591
 20
104.066551
 30
0.0
 11
17.423374
 21
104.011406
 31
0.0
  0
LINE
  5
34a
100
AcDbEntity
  8
0
 62
7
100
AcDbLine
 10
17.423374
 20
104.011406
 30
0.0
 11
17.508146
 21
103.948042
 31
0.0
  0
LINE
  5
34b
100
AcDbEntity
  8
0
 62
7
100
AcDbLine
 10
17.508146
 20
103.948042
 30
0.0
 11
17.586351
 21
103.877015
 31
0.0
  0
LINE
  5
34c
100
AcDbEntity
  8
0
 62
7
100
AcDbLine
 10
17.586351
 20
103.877015
 30
0.0
 11
17.657435
 21
103.798883
 31
0.0
  0
LINE
  5
34d
100
AcDbEntity
  8
0
 62
7
100
AcDbLine
 10
17.657435
 20
103.798883
 30
0.0
 11
17.720842
 21
103.714202
 31
0.0
  0
LINE
  5
34e
100
AcDbEntity
  8
0
 62
7
100
AcDbLine
 10
17.720842
 20
103.714202
 30
0.0
 11
17.776017
 21
103.623530
 31
0.0
  0
LINE
  5
34f
100
AcDbEntity
  8
0
 62
7
100
AcDbLine
 10
17.776017
 20
103.623530
 30
0.0
 11
17.822405
 21
103.527424
 31
0.0
  0
LINE
  5
350
100
AcDbEntity
  8
0
 62
7
100
AcDbLine
 10
17.822405
 20
103.527424
 30
0.0
 11
17.859451
 21
103.426441
 31
0.0
  0
LINE
  5
351
100
AcDbEntity
  8
0
 62
7
100
AcDbLine
 10
17.859451
 20
103.426441
 30
0.0
 11
17.886599
 21
103.321138
 31
0.0
  0
LINE
  5
352
100
AcDbEntity
  8
0
 62
7
100
AcDbLine
 10
17.886599
 20
103.321138
 30
0.0
 11
17.903296
 21
103.212073
 31
0.0
  0
LINE
  5
353
100
AcDbEntity
  8
0
 62
7
100
AcDbLine
 10
17.903296
 20
103.212073
 30
0.0
 11
17.908984
 21
103.099802
 31
0.0
  0
LINE
  5
354
100
AcDbEntity
  8
0
 62
7
100
AcDbLine
 10
17.908984
 20
103.099802
 30
0.0
 11
17.903296
 21
102.987303
 31
0.0
  0
LINE
  5
355
100
AcDbEntity
  8
0
 62
7
100
AcDbLine
 10
17.903296
 20
102.987303
 30
0.0
 11
17.886599
 21
102.878069
 31
0.0
  0
LINE
  5
356
100
AcDbEntity
  8
0
 62
7
100
AcDbLine
 10
17.886599
 20
102.878069
 30
0.0
 11
17.859451
 21
102.772650
 31
0.0
  0
LINE
  5
357
100
AcDbEntity
  8
0
 62
7
100
AcDbLine
 10
17.859451
 20
102.772650
 30
0.0
 11
17.822405
 21
102.671598
 31
0.0
  0
LINE
  5
358
100
AcDbEntity
  8
0
 62
7
100
AcDbLine
 10
17.822405
 20
102.671598
 30
0.0
 11
17.776017
 21
102.575462
 31
0.0
  0
LINE
  5
359
100
AcDbEntity
  8
0
 62
7
100
AcDbLine
 10
17.776017
 20
102.575462
 30
0.0
 11
17.720842
 21
102.484796
 31
0.0
  0
LINE
  5
35a
100
AcDbEntity
  8
0
 62
7
100
AcDbLine
 10
17.720842
 20
102.484796
 30
0.0
 11
17.657435
 21
102.400148
 31
0.0
  0
LINE
  5
35b
100
AcDbEntity
  8
0
 62
7
100
AcDbLine
 10
17.657435
 20
102.400148
 30
0.0
 11
17.586351
 21
102.322071
 31
0.0
  0
LINE
  5
35c
100
AcDbEntity
  8
0
 62
7
100
AcDbLine
 10
17.586351
 20
102.322071
 30
0.0
 11
17.508146
 21
102.251116
 31
0.0
  0
LINE
  5
35d
100
AcDbEntity
  8
0
 62
7
100
AcDbLine
 10
17.508146
 20
102.251116
 30
0.0
 11
17.423374
 21
102.187834
 31
0.0
  0
LINE
  5
35e
100
AcDbEntity
  8
0
 62
7
100
AcDbLine
 10
17.423374
 20
102.187834
 30
0.0
 11
17.332591
 21
102.132775
 31
0.0
  0
LINE
  5
35f
100
AcDbEntity
  8
0
 62
7
100
AcDbLine
 10
17.332591
 20
102.132775
 30
0.0
 11
17.236351
 21
102.086491
 31
0.0
  0
LINE
  5
360
100
AcDbEntity
  8
0
 62
7
100
AcDbLine
 10
17.236351
 20
102.086491
 30
0.0
 11
17.135210
 21
102.049534
 31
0.0
  0
LINE
  5
361
100
AcDbEntity
  8
0
 62
7
100
AcDbLine
 10
17.135210
 20
102.049534
 30
0.0
 11
17.029723
 21
102.022453
 31
0.0
  0
LINE
  5
362
100
AcDbEntity
  8
0
 62
7
100
AcDbLine
 10
17.029723
 20
102.022453
 30
0.0
 11
16.920445
 21
102.005800
 31
0.0
  0
LINE
  5
363
100
AcDbEntity
  8
0
 62
7
100
AcDbLine
 10
16.920445
 20
102.005800
 30
0.0
 11
16.807932
 21
102.000127
 31
0.0
  0
LINE
  5
364
100
AcDbEntity
  8
0
 62
7
100
AcDbLine
 10
16.807932
 20
102.000127
 30
0.0
 11
16.695661
 21
102.005800
 31
0.0
  0
LINE
  5
365
100
AcDbEntity
  8
0
 62
7
100
AcDbLine
 10
16.695661
 20
102.005800
 30
0.0
 11
16.586595
 21
102.022453
 31
0.0
  0
LINE
  5
366
100
AcDbEntity
  8
0
 62
7
100
AcDbLine
 10
16.586595
 20
102.022453
 30
0.0
 11
16.481292
 21
102.049534
 31
0.0
  0
LINE
  5
367
100
AcDbEntity
  8
0
 62
7
100
AcDbLine
 10
16.481292
 20
102.049534
 30
0.0
 11
16.380309
 21
102.086491
 31
0.0
  0
LINE
  5
368
100
AcDbEntity
  8
0
 62
7
100
AcDbLine
 10
16.380309
 20
102.086491
 30
0.0
 11
16.284203
 21
102.132775
 31
0.0
  0
LINE
  5
369
100
AcDbEntity
  8
0
 62
7
100
AcDbLine
 10
16.284203
 20
102.132775
 30
0.0
 11
16.193531
 21
102.187834
 31
0.0
  0
LINE
  5
36a
100
AcDbEntity
  8
0
 62
7
100
AcDbLine
 10
16.193531
 20
102.187834
 30
0.0
 11
16.108851
 21
102.251116
 31
0.0
  0
LINE
  5
36b
100
AcDbEntity
  8
0
 62
7
100
AcDbLine
 10
16.108851
 20
102.251116
 30
0.0
 11
16.030718
 21
102.322071
 31
0.0
  0
LINE
  5
36c
100
AcDbEntity
  8
0
 62
7
100
AcDbLine
 10
16.030718
 20
102.322071
 30
0.0
 11
15.959691
 21
102.400148
 31
0.0
  0
LINE
  5
36d
100
AcDbEntity
  8
0
 62
7
100
AcDbLine
 10
15.959691
 20
102.400148
 30
0.0
 11
15.896327
 21
102.484796
 31
0.0
  0
LINE
  5
36e
100
AcDbEntity
  8
0
 62
7
100
AcDbLine
 10
15.896327
 20
102.484796
 30
0.0
 11
15.841183
 21
102.575462
 31
0.0
  0
LINE
  5
36f
100
AcDbEntity
  8
0
 62
7
100
AcDbLine
 10
15.841183
 20
102.575462
 30
0.0
 11
15.794815
 21
102.671598
 31
0.0
  0
LINE
  5
370
100
AcDbEntity
  8
0
 62
7
100
AcDbLine
 10
15.794815
 20
102.671598
 30
0.0
 11
15.757782
 21
102.772650
 31
0.0
  0
LINE
  5
371
100
AcDbEntity
  8
0
 62
7
100
AcDbLine
 10
15.757782
 20
102.772650
 30
0.0
 11
15.730640
 21
102.878069
 31
0.0
  0
LINE
  5
372
100
AcDbEntity
  8
0
 62
7
100
AcDbLine
 10
15.730640
 20
102.878069
 30
0.0
 11
15.713946
 21
102.987303
 31
0.0
  0
LINE
  5
373
100
AcDbEntity
  8
0
 62
7
100
AcDbLine
 10
15.713946
 20
102.987303
 30
0.0
 11
15.708257
 21
103.099802
 31
0.0
  0
LINE
  5
374
100
AcDbEntity
  8
0
 62
7
100
AcDbLine
 10
15.708257
 20
103.099802
 30
0.0
 11
15.713946
 21
103.212073
 31
0.0
  0
LINE
  5
375
100
AcDbEntity
  8
0
 62
7
100
AcDbLine
 10
15.713946
 20
103.212073
 30
0.0
 11
15.730640
 21
103.321138
 31
0.0
  0
LINE
  5
376
100
AcDbEntity
  8
0
 62
7
100
AcDbLine
 10
15.730640
 20
103.321138
 30
0.0
 11
15.757782
 21
103.426441
 31
0.0
  0
LINE
  5
377
100
AcDbEntity
  8
0
 62
7
100
AcDbLine
 10
15.757782
 20
103.426441
 30
0.0
 11
15.794815
 21
103.527424
 31
0.0
  0
LINE
  5
378
100
AcDbEntity
  8
0
 62
7
100
AcDbLine
 10
15.794815
 20
103.527424
 30
0.0
 11
15.841183
 21
103.623530
 31
0.0
  0
LINE
  5
379
100
AcDbEntity
  8
0
 62
7
100
AcDbLine
 10
15.841183
 20
103.623530
 30
0.0
 11
15.896327
 21
103.714202
 31
0.0
  0
LINE
  5
37a
100
AcDbEntity
  8
0
 62
7
100
AcDbLine
 10
15.896327
 20
103.714202
 30
0.0
 11
15.959691
 21
103.798883
 31
0.0
  0
LINE
  5
37b
100
AcDbEntity
  8
0
 62
7
100
AcDbLine
 10
15.959691
 20
103.798883
 30
0.0
 11
16.030718
 21
103.877015
 31
0.0
  0
LINE
  5
37c
100
AcDbEntity
  8
0
 62
7
100
AcDbLine
 10
16.030718
 20
103.877015
 30
0.0
 11
16.108851
 21
103.948042
 31
0.0
  0
LINE
  5
37d
100
AcDbEntity
  8
0
 62
7
100
AcDbLine
 10
16.108851
 20
103.948042
 30
0.0
 11
16.193531
 21
104.011406
 31
0.0
  0
LINE
  5
37e
100
AcDbEntity
  8
0
 62
7
100
AcDbLine
 10
16.193531
 20
104.011406
 30
0.0
 11
16.284203
 21
104.066551
 31
0.0
  0
LINE
  5
37f
100
AcDbEntity
  8
0
 62
7
100
AcDbLine
 10
16.284203
 20
104.066551
 30
0.0
 11
16.380309
 21
104.112918
 31
0.0
  0
LINE
  5
380
100
AcDbEntity
  8
0
 62
7
100
AcDbLine
 10
16.380309
 20
104.112918
 30
0.0
 11
16.481292
 21
104.149952
 31
0.0
  0
LINE
  5
381
100
AcDbEntity
  8
0
 62
7
100
AcDbLine
 10
16.481292
 20
104.149952
 30
0.0
 11
16.586595
 21
104.177094
 31
0.0
  0
LINE
  5
382
100
AcDbEntity
  8
0
 62
7
100
AcDbLine
 10
16.586595
 20
104.177094
 30
0.0
 11
16.695661
 21
104.193788
 31
0.0
  0
LINE
  5
383
100
AcDbEntity
  8
0
 62
7
100
AcDbLine
 10
16.695661
 20
104.193788
 30
0.0
 11
16.807932
 21
104.199476
 31
0.0
  0
LINE
  5
384
100
AcDbEntity
  8
0
 62
7
100
AcDbLine
 10
16.807932
 20
104.199476
 30
0.0
 11
16.807932
 21
104.199476
 31
0.0
  0
LINE
  5
385
100
AcDbEntity
  8
0
 62
7
100
AcDbLine
 10
6.992166
 20
95.096156
 30
0.0
 11
7.104664
 21
95.090467
 31
0.0
  0
LINE
  5
386
100
AcDbEntity
  8
0
 62
7
100
AcDbLine
 10
7.104664
 20
95.090467
 30
0.0
 11
7.213898
 21
95.073771
 31
0.0
  0
LINE
  5
387
100
AcDbEntity
  8
0
 62
7
100
AcDbLine
 10
7.213898
 20
95.073771
 30
0.0
 11
7.319317
 21
95.046622
 31
0.0
  0
LINE
  5
388
100
AcDbEntity
  8
0
 62
7
100
AcDbLine
 10
7.319317
 20
95.046622
 30
0.0
 11
7.420370
 21
95.009576
 31
0.0
  0
LINE
  5
389
100
AcDbEntity
  8
0
 62
7
100
AcDbLine
 10
7.420370
 20
95.009576
 30
0.0
 11
7.516505
 21
94.963188
 31
0.0
  0
LINE
  5
38a
100
AcDbEntity
  8
0
 62
7
100
AcDbLine
 10
7.516505
 20
94.963188
 30
0.0
 11
7.607172
 21
94.908013
 31
0.0
  0
LINE
  5
38b
100
AcDbEntity
  8
0
 62
7
100
AcDbLine
 10
7.607172
 20
94.908013
 30
0.0
 11
7.691819
 21
94.844606
 31
0.0
  0
LINE
  5
38c
100
AcDbEntity
  8
0
 62
7
100
AcDbLine
 10
7.691819
 20
94.844606
 30
0.0
 11
7.769896
 21
94.773523
 31
0.0
  0
LINE
  5
38d
100
AcDbEntity
  8
0
 62
7
100
AcDbLine
 10
7.769896
 20
94.773523
 30
0.0
 11
7.840851
 21
94.695317
 31
0.0
  0
LINE
  5
38e
100
AcDbEntity
  8
0
 62
7
100
AcDbLine
 10
7.840851
 20
94.695317
 30
0.0
 11
7.904134
 21
94.610545
 31
0.0
  0
LINE
  5
38f
100
AcDbEntity
  8
0
 62
7
100
AcDbLine
 10
7.904134
 20
94.610545
 30
0.0
 11
7.959192
 21
94.519762
 31
0.0
  0
LINE
  5
390
100
AcDbEntity
  8
0
 62
7
100
AcDbLine
 10
7.959192
 20
94.519762
 30
0.0
 11
8.005476
 21
94.423522
 31
0.0
  0
LINE
  5
391
100
AcDbEntity
  8
0
 62
7
100
AcDbLine
 10
8.005476
 20
94.423522
 30
0.0
 11
8.042434
 21
94.322382
 31
0.0
  0
LINE
  5
392
100
AcDbEntity
  8
0
 62
7
100
AcDbLine
 10
8.042434
 20
94.322382
 30
0.0
 11
8.069514
 21
94.216895
 31
0.0
  0
LINE
  5
393
100
AcDbEntity
  8
0
 62
7
100
AcDbLine
 10
8.069514
 20
94.216895
 30
0.0
 11
8.086167
 21
94.107617
 31
0.0
  0
LINE
  5
394
100
AcDbEntity
  8
0
 62
7
100
AcDbLine
 10
8.086167
 20
94.107617
 30
0.0
 11
8.091840
 21
93.995103
 31
0.0
  0
LINE
  5
395
100
AcDbEntity
  8
0
 62
7
100
AcDbLine
 10
8.091840
 20
93.995103
 30
0.0
 11
8.086167
 21
93.882832
 31
0.0
  0
LINE
  5
396
100
AcDbEntity
  8
0
 62
7
100
AcDbLine
 10
8.086167
 20
93.882832
 30
0.0
 11
8.069514
 21
93.773767
 31
0.0
  0
LINE
  5
397
100
AcDbEntity
  8
0
 62
7
100
AcDbLine
 10
8.069514
 20
93.773767
 30
0.0
 11
8.042434
 21
93.668464
 31
0.0
  0
LINE
  5
398
100
AcDbEntity
  8
0
 62
7
100
AcDbLine
 10
8.042434
 20
93.668464
 30
0.0
 11
8.005476
 21
93.567481
 31
0.0
  0
LINE
  5
399
100
AcDbEntity
  8
0
 62
7
100
AcDbLine
 10
8.005476
 20
93.567481
 30
0.0
 11
7.959192
 21
93.471375
 31
0.0
  0
LINE
  5
39a
100
AcDbEntity
  8
0
 62
7
100
AcDbLine
 10
7.959192
 20
93.471375
 30
0.0
 11
7.904134
 21
93.380703
 31
0.0
  0
LINE
  5
39b
100
AcDbEntity
  8
0
 62
7
100
AcDbLine
 10
7.904134
 20
93.380703
 30
0.0
 11
7.840851
 21
93.296022
 31
0.0
  0
LINE
  5
39c
100
AcDbEntity
  8
0
 62
7
100
AcDbLine
 10
7.840851
 20
93.296022
 30
0.0
 11
7.769896
 21
93.217890
 31
0.0
  0
LINE
  5
39d
100
AcDbEntity
  8
0
 62
7
100
AcDbLine
 10
7.769896
 20
93.217890
 30
0.0
 11
7.691819
 21
93.146863
 31
0.0
  0
LINE
  5
39e
100
AcDbEntity
  8
0
 62
7
100
AcDbLine
 10
7.691819
 20
93.146863
 30
0.0
 11
7.607172
 21
93.083499
 31
0.0
  0
LINE
  5
39f
100
AcDbEntity
  8
0
 62
7
100
AcDbLine
 10
7.607172
 20
93.083499
 30
0.0
 11
7.516505
 21
93.028354
 31
0.0
  0
LINE
  5
3a0
100
AcDbEntity
  8
0
 62
7
100
AcDbLine
 10
7.516505
 20
93.028354
 30
0.0
 11
7.420370
 21
92.981987
 31
0.0
  0
LINE
  5
3a1
100
AcDbEntity
  8
0
 62
7
100
AcDbLine
 10
7.420370
 20
92.981987
 30
0.0
 11
7.319317
 21
92.944953
 31
0.0
  0
LINE
  5
3a2
100
AcDbEntity
  8
0
 62
7
100
AcDbLine
 10
7.319317
 20
92.944953
 30
0.0
 11
7.213898
 21
92.917811
 31
0.0
  0
LINE
  5
3a3
100
AcDbEntity
  8
0
 62
7
100
AcDbLine
 10
7.213898
 20
92.917811
 30
0.0
 11
7.104664
 21
92.901117
 31
0.0
  0
LINE
  5
3a4
100
AcDbEntity
  8
0
 62
7
100
AcDbLine
 10
7.104664
 20
92.901117
 30
0.0
 11
6.992166
 21
92.895429
 31
0.0
  0
LINE
  5
3a5
100
AcDbEntity
  8
0
 62
7
100
AcDbLine
 10
6.992166
 20
92.895429
 30
0.0
 11
6.879895
 21
92.901117
 31
0.0
  0
LINE
  5
3a6
100
AcDbEntity
  8
0
 62
7
100
AcDbLine
 10
6.879895
 20
92.901117
 30
0.0
 11
6.770829
 21
92.917811
 31
0.0
  0
LINE
  5
3a7
100
AcDbEntity
  8
0
 62
7
100
AcDbLine
 10
6.770829
 20
92.917811
 30
0.0
 11
6.665526
 21
92.944953
 31
0.0
  0
LINE
  5
3a8
100
AcDbEntity
  8
0
 62
7
100
AcDbLine
 10
6.665526
 20
92.944953
 30
0.0
 11
6.564543
 21
92.981987
 31
0.0
  0
LINE
  5
3a9
100
AcDbEntity
  8
0
 62
7
100
AcDbLine
 10
6.564543
 20
92.981987
 30
0.0
 11
6.468437
 21
93.028354
 31
0.0
  0
LINE
  5
3aa
100
AcDbEntity
  8
0
 62
7
100
AcDbLine
 10
6.468437
 20
93.028354
 30
0.0
 11
6.377765
 21
93.083499
 31
0.0
  0
LINE
  5
3ab
100
AcDbEntity
  8
0
 62
7
100
AcDbLine
 10
6.377765
 20
93.083499
 30
0.0
 11
6.293085
 21
93.146863
 31
0.0
  0
LINE
  5
3ac
100
AcDbEntity
  8
0
 62
7
100
AcDbLine
 10
6.293085
 20
93.146863
 30
0.0
 11
6.214952
 21
93.217890
 31
0.0
  0
LINE
  5
3ad
100
AcDbEntity
  8
0
 62
7
100
AcDbLine
 10
6.214952
 20
93.217890
 30
0.0
 11
6.143925
 21
93.296022
 31
0.0
  0
LINE
  5
3ae
100
AcDbEntity
  8
0
 62
7
100
AcDbLine
 10
6.143925
 20
93.296022
 30
0.0
 11
6.080561
 21
93.380703
 31
0.0
  0
LINE
  5
3af
100
AcDbEntity
  8
0
 62
7
100
AcDbLine
 10
6.080561
 20
93.380703
 30
0.0
 11
6.025417
 21
93.471375
 31
0.0
  0
LINE
  5
3b0
100
AcDbEntity
  8
0
 62
7
100
AcDbLine
 10
6.025417
 20
93.471375
 30
0.0
 11
5.979049
 21
93.567481
 31
0.0
  0
LINE
  5
3b1
100
AcDbEntity
  8
0
 62
7
100
AcDbLine
 10
5.979049
 20
93.567481
 30
0.0
 11
5.942016
 21
93.668464
 31
0.0
  0
LINE
  5
3b2
100
AcDbEntity
  8
0
 62
7
100
AcDbLine
 10
5.942016
 20
93.668464
 30
0.0
 11
5.914874
 21
93.773767
 31
0.0
  0
LINE
  5
3b3
100
AcDbEntity
  8
0
 62
7
100
AcDbLine
 10
5.914874
 20
93.773767
 30
0.0
 11
5.898180
 21
93.882832
 31
0.0
  0
LINE
  5
3b4
100
AcDbEntity
  8
0
 62
7
100
AcDbLine
 10
5.898180
 20
93.882832
 30
0.0
 11
5.892491
 21
93.995103
 31
0.0
  0
LINE
  5
3b5
100
AcDbEntity
  8
0
 62
7
100
AcDbLine
 10
5.892491
 20
93.995103
 30
0.0
 11
5.898180
 21
94.107617
 31
0.0
  0
LINE
  5
3b6
100
AcDbEntity
  8
0
 62
7
100
AcDbLine
 10
5.898180
 20
94.107617
 30
0.0
 11
5.914874
 21
94.216895
 31
0.0
  0
LINE
  5
3b7
100
AcDbEntity
  8
0
 62
7
100
AcDbLine
 10
5.914874
 20
94.216895
 30
0.0
 11
5.942016
 21
94.322382
 31
0.0
  0
LINE
  5
3b8
100
AcDbEntity
  8
0
 62
7
100
AcDbLine
 10
5.942016
 20
94.322382
 30
0.0
 11
5.979049
 21
94.423522
 31
0.0
  0
LINE
  5
3b9
100
AcDbEntity
  8
0
 62
7
100
AcDbLine
 10
5.979049
 20
94.423522
 30
0.0
 11
6.025417
 21
94.519762
 31
0.0
  0
LINE
  5
3ba
100
AcDbEntity
  8
0
 62
7
100
AcDbLine
 10
6.025417
 20
94.519762
 30
0.0
 11
6.080561
 21
94.610545
 31
0.0
  0
LINE
  5
3bb
100
AcDbEntity
  8
0
 62
7
100
AcDbLine
 10
6.080561
 20
94.610545
 30
0.0
 11
6.143925
 21
94.695317
 31
0.0
  0
LINE
  5
3bc
100
AcDbEntity
  8
0
 62
7
100
AcDbLine
 10
6.143925
 20
94.695317
 30
0.0
 11
6.214952
 21
94.773523
 31
0.0
  0
LINE
  5
3bd
100
AcDbEntity
  8
0
 62
7
100
AcDbLine
 10
6.214952
 20
94.773523
 30
0.0
 11
6.293085
 21
94.844606
 31
0.0
  0
LINE
  5
3be
100
AcDbEntity
  8
0
 62
7
100
AcDbLine
 10
6.293085
 20
94.844606
 30
0.0
 11
6.377765
 21
94.908013
 31
0.0
  0
LINE
  5
3bf
100
AcDbEntity
  8
0
 62
7
100
AcDbLine
 10
6.377765
 20
94.908013
 30
0.0
 11
6.468437
 21
94.963188
 31
0.0
  0
LINE
  5
3c0
100
AcDbEntity
  8
0
 62
7
100
AcDbLine
 10
6.468437
 20
94.963188
 30
0.0
 11
6.564543
 21
95.009576
 31
0.0
  0
LINE
  5
3c1
100
AcDbEntity
  8
0
 62
7
100
AcDbLine
 10
6.564543
 20
95.009576
 30
0.0
 11
6.665526
 21
95.046622
 31
0.0
  0
LINE
  5
3c2
100
AcDbEntity
  8
0
 62
7
100
AcDbLine
 10
6.665526
 20
95.046622
 30
0.0
 11
6.770829
 21
95.073771
 31
0.0
  0
LINE
  5
3c3
100
AcDbEntity
  8
0
 62
7
100
AcDbLine
 10
6.770829
 20
95.073771
 30
0.0
 11
6.879895
 21
95.090467
 31
0.0
  0
LINE
  5
3c4
100
AcDbEntity
  8
0
 62
7
100
AcDbLine
 10
6.879895
 20
95.090467
 30
0.0
 11
6.992166
 21
95.096156
 31
0.0
  0
LINE
  5
3c5
100
AcDbEntity
  8
0
 62
7
100
AcDbLine
 10
6.992166
 20
95.096156
 30
0.0
 11
6.992166
 21
95.096156
 31
0.0
  0
LINE
  5
3c6
100
AcDbEntity
  8
0
 62
7
100
AcDbLine
 10
6.992166
 20
80.544072
 30
0.0
 11
7.104664
 21
80.538384
 31
0.0
  0
LINE
  5
3c7
100
AcDbEntity
  8
0
 62
7
100
AcDbLine
 10
7.104664
 20
80.538384
 30
0.0
 11
7.213898
 21
80.521687
 31
0.0
  0
LINE
  5
3c8
100
AcDbEntity
  8
0
 62
7
100
AcDbLine
 10
7.213898
 20
80.521687
 30
0.0
 11
7.319317
 21
80.494539
 31
0.0
  0
LINE
  5
3c9
100
AcDbEntity
  8
0
 62
7
100
AcDbLine
 10
7.319317
 20
80.494539
 30
0.0
 11
7.420370
 21
80.457493
 31
0.0
  0
LINE
  5
3ca
100
AcDbEntity
  8
0
 62
7
100
AcDbLine
 10
7.420370
 20
80.457493
 30
0.0
 11
7.516505
 21
80.411105
 31
0.0
  0
LINE
  5
3cb
100
AcDbEntity
  8
0
 62
7
100
AcDbLine
 10
7.516505
 20
80.411105
 30
0.0
 11
7.607172
 21
80.355930
 31
0.0
  0
LINE
  5
3cc
100
AcDbEntity
  8
0
 62
7
100
AcDbLine
 10
7.607172
 20
80.355930
 30
0.0
 11
7.691819
 21
80.292523
 31
0.0
  0
LINE
  5
3cd
100
AcDbEntity
  8
0
 62
7
100
AcDbLine
 10
7.691819
 20
80.292523
 30
0.0
 11
7.769896
 21
80.221439
 31
0.0
  0
LINE
  5
3ce
100
AcDbEntity
  8
0
 62
7
100
AcDbLine
 10
7.769896
 20
80.221439
 30
0.0
 11
7.840851
 21
80.143234
 31
0.0
  0
LINE
  5
3cf
100
AcDbEntity
  8
0
 62
7
100
AcDbLine
 10
7.840851
 20
80.143234
 30
0.0
 11
7.904134
 21
80.058462
 31
0.0
  0
LINE
  5
3d0
100
AcDbEntity
  8
0
 62
7
100
AcDbLine
 10
7.904134
 20
80.058462
 30
0.0
 11
7.959192
 21
79.967679
 31
0.0
  0
LINE
  5
3d1
100
AcDbEntity
  8
0
 62
7
100
AcDbLine
 10
7.959192
 20
79.967679
 30
0.0
 11
8.005476
 21
79.871439
 31
0.0
  0
LINE
  5
3d2
100
AcDbEntity
  8
0
 62
7
100
AcDbLine
 10
8.005476
 20
79.871439
 30
0.0
 11
8.042434
 21
79.770298
 31
0.0
  0
LINE
  5
3d3
100
AcDbEntity
  8
0
 62
7
100
AcDbLine
 10
8.042434
 20
79.770298
 30
0.0
 11
8.069514
 21
79.664811
 31
0.0
  0
LINE
  5
3d4
100
AcDbEntity
  8
0
 62
7
100
AcDbLine
 10
8.069514
 20
79.664811
 30
0.0
 11
8.086167
 21
79.555534
 31
0.0
  0
LINE
  5
3d5
100
AcDbEntity
  8
0
 62
7
100
AcDbLine
 10
8.086167
 20
79.555534
 30
0.0
 11
8.091840
 21
79.443020
 31
0.0
  0
LINE
  5
3d6
100
AcDbEntity
  8
0
 62
7
100
AcDbLine
 10
8.091840
 20
79.443020
 30
0.0
 11
8.086167
 21
79.330749
 31
0.0
  0
LINE
  5
3d7
100
AcDbEntity
  8
0
 62
7
100
AcDbLine
 10
8.086167
 20
79.330749
 30
0.0
 11
8.069514
 21
79.221683
 31
0.0
  0
LINE
  5
3d8
100
AcDbEntity
  8
0
 62
7
100
AcDbLine
 10
8.069514
 20
79.221683
 30
0.0
 11
8.042434
 21
79.116381
 31
0.0
  0
LINE
  5
3d9
100
AcDbEntity
  8
0
 62
7
100
AcDbLine
 10
8.042434
 20
79.116381
 30
0.0
 11
8.005476
 21
79.015397
 31
0.0
  0
LINE
  5
3da
100
AcDbEntity
  8
0
 62
7
100
AcDbLine
 10
8.005476
 20
79.015397
 30
0.0
 11
7.959192
 21
78.919291
 31
0.0
  0
LINE
  5
3db
100
AcDbEntity
  8
0
 62
7
100
AcDbLine
 10
7.959192
 20
78.919291
 30
0.0
 11
7.904134
 21
78.828619
 31
0.0
  0
LINE
  5
3dc
100
AcDbEntity
  8
0
 62
7
100
AcDbLine
 10
7.904134
 20
78.828619
 30
0.0
 11
7.840851
 21
78.743939
 31
0.0
  0
LINE
  5
3dd
100
AcDbEntity
  8
0
 62
7
100
AcDbLine
 10
7.840851
 20
78.743939
 30
0.0
 11
7.769896
 21
78.665806
 31
0.0
  0
LINE
  5
3de
100
AcDbEntity
  8
0
 62
7
100
AcDbLine
 10
7.769896
 20
78.665806
 30
0.0
 11
7.691819
 21
78.594780
 31
0.0
  0
LINE
  5
3df
100
AcDbEntity
  8
0
 62
7
100
AcDbLine
 10
7.691819
 20
78.594780
 30
0.0
 11
7.607172
 21
78.531415
 31
0.0
  0
LINE
  5
3e0
100
AcDbEntity
  8
0
 62
7
100
AcDbLine
 10
7.607172
 20
78.531415
 30
0.0
 11
7.516505
 21
78.476271
 31
0.0
  0
LINE
  5
3e1
100
AcDbEntity
  8
0
 62
7
100
AcDbLine
 10
7.516505
 20
78.476271
 30
0.0
 11
7.420370
 21
78.429904
 31
0.0
  0
LINE
  5
3e2
100
AcDbEntity
  8
0
 62
7
100
AcDbLine
 10
7.420370
 20
78.429904
 30
0.0
 11
7.319317
 21
78.392870
 31
0.0
  0
LINE
  5
3e3
100
AcDbEntity
  8
0
 62
7
100
AcDbLine
 10
7.319317
 20
78.392870
 30
0.0
 11
7.213898
 21
78.365728
 31
0.0
  0
LINE
  5
3e4
100
AcDbEntity
  8
0
 62
7
100
AcDbLine
 10
7.213898
 20
78.365728
 30
0.0
 11
7.104664
 21
78.349034
 31
0.0
  0
LINE
  5
3e5
100
AcDbEntity
  8
0
 62
7
100
AcDbLine
 10
7.104664
 20
78.349034
 30
0.0
 11
6.992166
 21
78.343345
 31
0.0
  0
LINE
  5
3e6
100
AcDbEntity
  8
0
 62
7
100
AcDbLine
 10
6.992166
 20
78.343345
 30
0.0
 11
6.879895
 21
78.349034
 31
0.0
  0
LINE
  5
3e7
100
AcDbEntity
  8
0
 62
7
100
AcDbLine
 10
6.879895
 20
78.349034
 30
0.0
 11
6.770829
 21
78.365728
 31
0.0
  0
LINE
  5
3e8
100
AcDbEntity
  8
0
 62
7
100
AcDbLine
 10
6.770829
 20
78.365728
 30
0.0
 11
6.665526
 21
78.392870
 31
0.0
  0
LINE
  5
3e9
100
AcDbEntity
  8
0
 62
7
100
AcDbLine
 10
6.665526
 20
78.392870
 30
0.0
 11
6.564543
 21
78.429904
 31
0.0
  0
LINE
  5
3ea
100
AcDbEntity
  8
0
 62
7
100
AcDbLine
 10
6.564543
 20
78.429904
 30
0.0
 11
6.468437
 21
78.476271
 31
0.0
  0
LINE
  5
3eb
100
AcDbEntity
  8
0
 62
7
100
AcDbLine
 10
6.468437
 20
78.476271
 30
0.0
 11
6.377765
 21
78.531415
 31
0.0
  0
LINE
  5
3ec
100
AcDbEntity
  8
0
 62
7
100
AcDbLine
 10
6.377765
 20
78.531415
 30
0.0
 11
6.293085
 21
78.594780
 31
0.0
  0
LINE
  5
3ed
100
AcDbEntity
  8
0
 62
7
100
AcDbLine
 10
6.293085
 20
78.594780
 30
0.0
 11
6.214952
 21
78.665806
 31
0.0
  0
LINE
  5
3ee
100
AcDbEntity
  8
0
 62
7
100
AcDbLine
 10
6.214952
 20
78.665806
 30
0.0
 11
6.143925
 21
78.743939
 31
0.0
  0
LINE
  5
3ef
100
AcDbEntity
  8
0
 62
7
100
AcDbLine
 10
6.143925
 20
78.743939
 30
0.0
 11
6.080561
 21
78.828619
 31
0.0
  0
LINE
  5
3f0
100
AcDbEntity
  8
0
 62
7
100
AcDbLine
 10
6.080561
 20
78.828619
 30
0.0
 11
6.025417
 21
78.919291
 31
0.0
  0
LINE
  5
3f1
100
AcDbEntity
  8
0
 62
7
100
AcDbLine
 10
6.025417
 20
78.919291
 30
0.0
 11
5.979049
 21
79.015397
 31
0.0
  0
LINE
  5
3f2
100
AcDbEntity
  8
0
 62
7
100
AcDbLine
 10
5.979049
 20
79.015397
 30
0.0
 11
5.942016
 21
79.116381
 31
0.0
  0
LINE
  5
3f3
100
AcDbEntity
  8
0
 62
7
100
AcDbLine
 10
5.942016
 20
79.116381
 30
0.0
 11
5.914874
 21
79.221683
 31
0.0
  0
LINE
  5
3f4
100
AcDbEntity
  8
0
 62
7
100
AcDbLine
 10
5.914874
 20
79.221683
 30
0.0
 11
5.898180
 21
79.330749
 31
0.0
  0
LINE
  5
3f5
100
AcDbEntity
  8
0
 62
7
100
AcDbLine
 10
5.898180
 20
79.330749
 30
0.0
 11
5.892491
 21
79.443020
 31
0.0
  0
LINE
  5
3f6
100
AcDbEntity
  8
0
 62
7
100
AcDbLine
 10
5.892491
 20
79.443020
 30
0.0
 11
5.898180
 21
79.555534
 31
0.0
  0
LINE
  5
3f7
100
AcDbEntity
  8
0
 62
7
100
AcDbLine
 10
5.898180
 20
79.555534
 30
0.0
 11
5.914874
 21
79.664811
 31
0.0
  0
LINE
  5
3f8
100
AcDbEntity
  8
0
 62
7
100
AcDbLine
 10
5.914874
 20
79.664811
 30
0.0
 11
5.942016
 21
79.770298
 31
0.0
  0
LINE
  5
3f9
100
AcDbEntity
  8
0
 62
7
100
AcDbLine
 10
5.942016
 20
79.770298
 30
0.0
 11
5.979049
 21
79.871439
 31
0.0
  0
LINE
  5
3fa
100
AcDbEntity
  8
0
 62
7
100
AcDbLine
 10
5.979049
 20
79.871439
 30
0.0
 11
6.025417
 21
79.967679
 31
0.0
  0
LINE
  5
3fb
100
AcDbEntity
  8
0
 62
7
100
AcDbLine
 10
6.025417
 20
79.967679
 30
0.0
 11
6.080561
 21
80.058462
 31
0.0
  0
LINE
  5
3fc
100
AcDbEntity
  8
0
 62
7
100
AcDbLine
 10
6.080561
 20
80.058462
 30
0.0
 11
6.143925
 21
80.143234
 31
0.0
  0
LINE
  5
3fd
100
AcDbEntity
  8
0
 62
7
100
AcDbLine
 10
6.143925
 20
80.143234
 30
0.0
 11
6.214952
 21
80.221439
 31
0.0
  0
LINE
  5
3fe
100
AcDbEntity
  8
0
 62
7
100
AcDbLine
 10
6.214952
 20
80.221439
 30
0.0
 11
6.293085
 21
80.292523
 31
0.0
  0
LINE
  5
3ff
100
AcDbEntity
  8
0
 62
7
100
AcDbLine
 10
6.293085
 20
80.292523
 30
0.0
 11
6.377765
 21
80.355930
 31
0.0
  0
LINE
  5
400
100
AcDbEntity
  8
0
 62
7
100
AcDbLine
 10
6.377765
 20
80.355930
 30
0.0
 11
6.468437
 21
80.411105
 31
0.0
  0
LINE
  5
401
100
AcDbEntity
  8
0
 62
7
100
AcDbLine
 10
6.468437
 20
80.411105
 30
0.0
 11
6.564543
 21
80.457493
 31
0.0
  0
LINE
  5
402
100
AcDbEntity
  8
0
 62
7
100
AcDbLine
 10
6.564543
 20
80.457493
 30
0.0
 11
6.665526
 21
80.494539
 31
0.0
  0
LINE
  5
403
100
AcDbEntity
  8
0
 62
7
100
AcDbLine
 10
6.665526
 20
80.494539
 30
0.0
 11
6.770829
 21
80.521687
 31
0.0
  0
LINE
  5
404
100
AcDbEntity
  8
0
 62
7
100
AcDbLine
 10
6.770829
 20
80.521687
 30
0.0
 11
6.879895
 21
80.538384
 31
0.0
  0
LINE
  5
405
100
AcDbEntity
  8
0
 62
7
100
AcDbLine
 10
6.879895
 20
80.538384
 30
0.0
 11
6.992166
 21
80.544072
 31
0.0
  0
LINE
  5
406
100
AcDbEntity
  8
0
 62
7
100
AcDbLine
 10
6.992166
 20
80.544072
 30
0.0
 11
6.992166
 21
80.544072
 31
0.0
  0
LINE
  5
407
100
AcDbEntity
  8
0
 62
7
100
AcDbLine
 10
167.989746
 20
90.328144
 30
0.0
 11
168.102017
 21
90.322455
 31
0.0
  0
LINE
  5
408
100
AcDbEntity
  8
0
 62
7
100
AcDbLine
 10
168.102017
 20
90.322455
 30
0.0
 11
168.211083
 21
90.305759
 31
0.0
  0
LINE
  5
409
100
AcDbEntity
  8
0
 62
7
100
AcDbLine
 10
168.211083
 20
90.305759
 30
0.0
 11
168.316386
 21
90.278610
 31
0.0
  0
LINE
  5
40a
100
AcDbEntity
  8
0
 62
7
100
AcDbLine
 10
168.316386
 20
90.278610
 30
0.0
 11
168.417369
 21
90.241564
 31
0.0
  0
LINE
  5
40b
100
AcDbEntity
  8
0
 62
7
100
AcDbLine
 10
168.417369
 20
90.241564
 30
0.0
 11
168.513475
 21
90.195176
 31
0.0
  0
LINE
  5
40c
100
AcDbEntity
  8
0
 62
7
100
AcDbLine
 10
168.513475
 20
90.195176
 30
0.0
 11
168.604147
 21
90.140001
 31
0.0
  0
LINE
  5
40d
100
AcDbEntity
  8
0
 62
7
100
AcDbLine
 10
168.604147
 20
90.140001
 30
0.0
 11
168.688827
 21
90.076594
 31
0.0
  0
LINE
  5
40e
100
AcDbEntity
  8
0
 62
7
100
AcDbLine
 10
168.688827
 20
90.076594
 30
0.0
 11
168.766960
 21
90.005510
 31
0.0
  0
LINE
  5
40f
100
AcDbEntity
  8
0
 62
7
100
AcDbLine
 10
168.766960
 20
90.005510
 30
0.0
 11
168.837986
 21
89.927305
 31
0.0
  0
LINE
  5
410
100
AcDbEntity
  8
0
 62
7
100
AcDbLine
 10
168.837986
 20
89.927305
 30
0.0
 11
168.901351
 21
89.842533
 31
0.0
  0
LINE
  5
411
100
AcDbEntity
  8
0
 62
7
100
AcDbLine
 10
168.901351
 20
89.842533
 30
0.0
 11
168.956495
 21
89.751750
 31
0.0
  0
LINE
  5
412
100
AcDbEntity
  8
0
 62
7
100
AcDbLine
 10
168.956495
 20
89.751750
 30
0.0
 11
169.002863
 21
89.655510
 31
0.0
  0
LINE
  5
413
100
AcDbEntity
  8
0
 62
7
100
AcDbLine
 10
169.002863
 20
89.655510
 30
0.0
 11
169.039896
 21
89.554369
 31
0.0
  0
LINE
  5
414
100
AcDbEntity
  8
0
 62
7
100
AcDbLine
 10
169.039896
 20
89.554369
 30
0.0
 11
169.067038
 21
89.448883
 31
0.0
  0
LINE
  5
415
100
AcDbEntity
  8
0
 62
7
100
AcDbLine
 10
169.067038
 20
89.448883
 30
0.0
 11
169.083732
 21
89.339605
 31
0.0
  0
LINE
  5
416
100
AcDbEntity
  8
0
 62
7
100
AcDbLine
 10
169.083732
 20
89.339605
 30
0.0
 11
169.089421
 21
89.227091
 31
0.0
  0
LINE
  5
417
100
AcDbEntity
  8
0
 62
7
100
AcDbLine
 10
169.089421
 20
89.227091
 30
0.0
 11
169.083732
 21
89.114820
 31
0.0
  0
LINE
  5
418
100
AcDbEntity
  8
0
 62
7
100
AcDbLine
 10
169.083732
 20
89.114820
 30
0.0
 11
169.067038
 21
89.005755
 31
0.0
  0
LINE
  5
419
100
AcDbEntity
  8
0
 62
7
100
AcDbLine
 10
169.067038
 20
89.005755
 30
0.0
 11
169.039896
 21
88.900452
 31
0.0
  0
LINE
  5
41a
100
AcDbEntity
  8
0
 62
7
100
AcDbLine
 10
169.039896
 20
88.900452
 30
0.0
 11
169.002863
 21
88.799469
 31
0.0
  0
LINE
  5
41b
100
AcDbEntity
  8
0
 62
7
100
AcDbLine
 10
169.002863
 20
88.799469
 30
0.0
 11
168.956495
 21
88.703363
 31
0.0
  0
LINE
  5
41c
100
AcDbEntity
  8
0
 62
7
100
AcDbLine
 10
168.956495
 20
88.703363
 30
0.0
 11
168.901351
 21
88.612691
 31
0.0
  0
LINE
  5
41d
100
AcDbEntity
  8
0
 62
7
100
AcDbLine
 10
168.901351
 20
88.612691
 30
0.0
 11
168.837986
 21
88.528010
 31
0.0
  0
LINE
  5
41e
100
AcDbEntity
  8
0
 62
7
100
AcDbLine
 10
168.837986
 20
88.528010
 30
0.0
 11
168.766960
 21
88.449878
 31
0.0
  0
LINE
  5
41f
100
AcDbEntity
  8
0
 62
7
100
AcDbLine
 10
168.766960
 20
88.449878
 30
0.0
 11
168.688827
 21
88.378851
 31
0.0
  0
LINE
  5
420
100
AcDbEntity
  8
0
 62
7
100
AcDbLine
 10
168.688827
 20
88.378851
 30
0.0
 11
168.604147
 21
88.315487
 31
0.0
  0
LINE
  5
421
100
AcDbEntity
  8
0
 62
7
100
AcDbLine
 10
168.604147
 20
88.315487
 30
0.0
 11
168.513475
 21
88.260342
 31
0.0
  0
LINE
  5
422
100
AcDbEntity
  8
0
 62
7
100
AcDbLine
 10
168.513475
 20
88.260342
 30
0.0
 11
168.417369
 21
88.213975
 31
0.0
  0
LINE
  5
423
100
AcDbEntity
  8
0
 62
7
100
AcDbLine
 10
168.417369
 20
88.213975
 30
0.0
 11
168.316386
 21
88.176941
 31
0.0
  0
LINE
  5
424
100
AcDbEntity
  8
0
 62
7
100
AcDbLine
 10
168.316386
 20
88.176941
 30
0.0
 11
168.211083
 21
88.149799
 31
0.0
  0
LINE
  5
425
100
AcDbEntity
  8
0
 62
7
100
AcDbLine
 10
168.211083
 20
88.149799
 30
0.0
 11
168.102017
 21
88.133105
 31
0.0
  0
LINE
  5
426
100
AcDbEntity
  8
0
 62
7
100
AcDbLine
 10
168.102017
 20
88.133105
 30
0.0
 11
167.989746
 21
88.127417
 31
0.0
  0
LINE
  5
427
100
AcDbEntity
  8
0
 62
7
100
AcDbLine
 10
167.989746
 20
88.127417
 30
0.0
 11
167.877248
 21
88.133105
 31
0.0
  0
LINE
  5
428
100
AcDbEntity
  8
0
 62
7
100
AcDbLine
 10
167.877248
 20
88.133105
 30
0.0
 11
167.768014
 21
88.149799
 31
0.0
  0
LINE
  5
429
100
AcDbEntity
  8
0
 62
7
100
AcDbLine
 10
167.768014
 20
88.149799
 30
0.0
 11
167.662595
 21
88.176941
 31
0.0
  0
LINE
  5
42a
100
AcDbEntity
  8
0
 62
7
100
AcDbLine
 10
167.662595
 20
88.176941
 30
0.0
 11
167.561542
 21
88.213975
 31
0.0
  0
LINE
  5
42b
100
AcDbEntity
  8
0
 62
7
100
AcDbLine
 10
167.561542
 20
88.213975
 30
0.0
 11
167.465407
 21
88.260342
 31
0.0
  0
LINE
  5
42c
100
AcDbEntity
  8
0
 62
7
100
AcDbLine
 10
167.465407
 20
88.260342
 30
0.0
 11
167.374740
 21
88.315487
 31
0.0
  0
LINE
  5
42d
100
AcDbEntity
  8
0
 62
7
100
AcDbLine
 10
167.374740
 20
88.315487
 30
0.0
 11
167.290093
 21
88.378851
 31
0.0
  0
LINE
  5
42e
100
AcDbEntity
  8
0
 62
7
100
AcDbLine
 10
167.290093
 20
88.378851
 30
0.0
 11
167.212016
 21
88.449878
 31
0.0
  0
LINE
  5
42f
100
AcDbEntity
  8
0
 62
7
100
AcDbLine
 10
167.212016
 20
88.449878
 30
0.0
 11
167.141061
 21
88.528010
 31
0.0
  0
LINE
  5
430
100
AcDbEntity
  8
0
 62
7
100
AcDbLine
 10
167.141061
 20
88.528010
 30
0.0
 11
167.077778
 21
88.612691
 31
0.0
  0
LINE
  5
431
100
AcDbEntity
  8
0
 62
7
100
AcDbLine
 10
167.077778
 20
88.612691
 30
0.0
 11
167.022720
 21
88.703363
 31
0.0
  0
LINE
  5
432
100
AcDbEntity
  8
0
 62
7
100
AcDbLine
 10
167.022720
 20
88.703363
 30
0.0
 11
166.976436
 21
88.799469
 31
0.0
  0
LINE
  5
433
100
AcDbEntity
  8
0
 62
7
100
AcDbLine
 10
166.976436
 20
88.799469
 30
0.0
 11
166.939478
 21
88.900452
 31
0.0
  0
LINE
  5
434
100
AcDbEntity
  8
0
 62
7
100
AcDbLine
 10
166.939478
 20
88.900452
 30
0.0
 11
166.912397
 21
89.005755
 31
0.0
  0
LINE
  5
435
100
AcDbEntity
  8
0
 62
7
100
AcDbLine
 10
166.912397
 20
89.005755
 30
0.0
 11
166.895745
 21
89.114820
 31
0.0
  0
LINE
  5
436
100
AcDbEntity
  8
0
 62
7
100
AcDbLine
 10
166.895745
 20
89.114820
 30
0.0
 11
166.890072
 21
89.227091
 31
0.0
  0
LINE
  5
437
100
AcDbEntity
  8
0
 62
7
100
AcDbLine
 10
166.890072
 20
89.227091
 30
0.0
 11
166.895745
 21
89.339605
 31
0.0
  0
LINE
  5
438
100
AcDbEntity
  8
0
 62
7
100
AcDbLine
 10
166.895745
 20
89.339605
 30
0.0
 11
166.912397
 21
89.448883
 31
0.0
  0
LINE
  5
439
100
AcDbEntity
  8
0
 62
7
100
AcDbLine
 10
166.912397
 20
89.448883
 30
0.0
 11
166.939478
 21
89.554369
 31
0.0
  0
LINE
  5
43a
100
AcDbEntity
  8
0
 62
7
100
AcDbLine
 10
166.939478
 20
89.554369
 30
0.0
 11
166.976436
 21
89.655510
 31
0.0
  0
LINE
  5
43b
100
AcDbEntity
  8
0
 62
7
100
AcDbLine
 10
166.976436
 20
89.655510
 30
0.0
 11
167.022720
 21
89.751750
 31
0.0
  0
LINE
  5
43c
100
AcDbEntity
  8
0
 62
7
100
AcDbLine
 10
167.022720
 20
89.751750
 30
0.0
 11
167.077778
 21
89.842533
 31
0.0
  0
LINE
  5
43d
100
AcDbEntity
  8
0
 62
7
100
AcDbLine
 10
167.077778
 20
89.842533
 30
0.0
 11
167.141061
 21
89.927305
 31
0.0
  0
LINE
  5
43e
100
AcDbEntity
  8
0
 62
7
100
AcDbLine
 10
167.141061
 20
89.927305
 30
0.0
 11
167.212016
 21
90.005510
 31
0.0
  0
LINE
  5
43f
100
AcDbEntity
  8
0
 62
7
100
AcDbLine
 10
167.212016
 20
90.005510
 30
0.0
 11
167.290093
 21
90.076594
 31
0.0
  0
LINE
  5
440
100
AcDbEntity
  8
0
 62
7
100
AcDbLine
 10
167.290093
 20
90.076594
 30
0.0
 11
167.374740
 21
90.140001
 31
0.0
  0
LINE
  5
441
100
AcDbEntity
  8
0
 62
7
100
AcDbLine
 10
167.374740
 20
90.140001
 30
0.0
 11
167.465407
 21
90.195176
 31
0.0
  0
LINE
  5
442
100
AcDbEntity
  8
0
 62
7
100
AcDbLine
 10
167.465407
 20
90.195176
 30
0.0
 11
167.561542
 21
90.241564
 31
0.0
  0
LINE
  5
443
100
AcDbEntity
  8
0
 62
7
100
AcDbLine
 10
167.561542
 20
90.241564
 30
0.0
 11
167.662595
 21
90.278610
 31
0.0
  0
LINE
  5
444
100
AcDbEntity
  8
0
 62
7
100
AcDbLine
 10
167.662595
 20
90.278610
 30
0.0
 11
167.768014
 21
90.305759
 31
0.0
  0
LINE
  5
445
100
AcDbEntity
  8
0
 62
7
100
AcDbLine
 10
167.768014
 20
90.305759
 30
0.0
 11
167.877248
 21
90.322455
 31
0.0
  0
LINE
  5
446
100
AcDbEntity
  8
0
 62
7
100
AcDbLine
 10
167.877248
 20
90.322455
 30
0.0
 11
167.989746
 21
90.328144
 31
0.0
  0
LINE
  5
447
100
AcDbEntity
  8
0
 62
7
100
AcDbLine
 10
167.989746
 20
90.328144
 30
0.0
 11
167.989746
 21
90.328144
 31
0.0
  0
LINE
  5
448
100
AcDbEntity
  8
0
 62
7
100
AcDbLine
 10
141.655436
 20
89.975366
 30
0.0
 11
141.767934
 21
89.969677
 31
0.0
  0
LINE
  5
449
100
AcDbEntity
  8
0
 62
7
100
AcDbLine
 10
141.767934
 20
89.969677
 30
0.0
 11
141.877168
 21
89.952981
 31
0.0
  0
LINE
  5
44a
100
AcDbEntity
  8
0
 62
7
100
AcDbLine
 10
141.877168
 20
89.952981
 30
0.0
 11
141.982587
 21
89.925832
 31
0.0
  0
LINE
  5
44b
100
AcDbEntity
  8
0
 62
7
100
AcDbLine
 10
141.982587
 20
89.925832
 30
0.0
 11
142.083640
 21
89.888786
 31
0.0
  0
LINE
  5
44c
100
AcDbEntity
  8
0
 62
7
100
AcDbLine
 10
142.083640
 20
89.888786
 30
0.0
 11
142.179775
 21
89.842398
 31
0.0
  0
LINE
  5
44d
100
AcDbEntity
  8
0
 62
7
100
AcDbLine
 10
142.179775
 20
89.842398
 30
0.0
 11
142.270442
 21
89.787223
 31
0.0
  0
LINE
  5
44e
100
AcDbEntity
  8
0
 62
7
100
AcDbLine
 10
142.270442
 20
89.787223
 30
0.0
 11
142.355090
 21
89.723816
 31
0.0
  0
LINE
  5
44f
100
AcDbEntity
  8
0
 62
7
100
AcDbLine
 10
142.355090
 20
89.723816
 30
0.0
 11
142.433166
 21
89.652733
 31
0.0
  0
LINE
  5
450
100
AcDbEntity
  8
0
 62
7
100
AcDbLine
 10
142.433166
 20
89.652733
 30
0.0
 11
142.504122
 21
89.574527
 31
0.0
  0
LINE
  5
451
100
AcDbEntity
  8
0
 62
7
100
AcDbLine
 10
142.504122
 20
89.574527
 30
0.0
 11
142.567404
 21
89.489755
 31
0.0
  0
LINE
  5
452
100
AcDbEntity
  8
0
 62
7
100
AcDbLine
 10
142.567404
 20
89.489755
 30
0.0
 11
142.622463
 21
89.398972
 31
0.0
  0
LINE
  5
453
100
AcDbEntity
  8
0
 62
7
100
AcDbLine
 10
142.622463
 20
89.398972
 30
0.0
 11
142.668746
 21
89.302733
 31
0.0
  0
LINE
  5
454
100
AcDbEntity
  8
0
 62
7
100
AcDbLine
 10
142.668746
 20
89.302733
 30
0.0
 11
142.705704
 21
89.201592
 31
0.0
  0
LINE
  5
455
100
AcDbEntity
  8
0
 62
7
100
AcDbLine
 10
142.705704
 20
89.201592
 30
0.0
 11
142.732785
 21
89.096105
 31
0.0
  0
LINE
  5
456
100
AcDbEntity
  8
0
 62
7
100
AcDbLine
 10
142.732785
 20
89.096105
 30
0.0
 11
142.749437
 21
88.986827
 31
0.0
  0
LINE
  5
457
100
AcDbEntity
  8
0
 62
7
100
AcDbLine
 10
142.749437
 20
88.986827
 30
0.0
 11
142.755111
 21
88.874313
 31
0.0
  0
LINE
  5
458
100
AcDbEntity
  8
0
 62
7
100
AcDbLine
 10
142.755111
 20
88.874313
 30
0.0
 11
142.749437
 21
88.762042
 31
0.0
  0
LINE
  5
459
100
AcDbEntity
  8
0
 62
7
100
AcDbLine
 10
142.749437
 20
88.762042
 30
0.0
 11
142.732785
 21
88.652977
 31
0.0
  0
LINE
  5
45a
100
AcDbEntity
  8
0
 62
7
100
AcDbLine
 10
142.732785
 20
88.652977
 30
0.0
 11
142.705704
 21
88.547674
 31
0.0
  0
LINE
  5
45b
100
AcDbEntity
  8
0
 62
7
100
AcDbLine
 10
142.705704
 20
88.547674
 30
0.0
 11
142.668746
 21
88.446691
 31
0.0
  0
LINE
  5
45c
100
AcDbEntity
  8
0
 62
7
100
AcDbLine
 10
142.668746
 20
88.446691
 30
0.0
 11
142.622463
 21
88.350585
 31
0.0
  0
LINE
  5
45d
100
AcDbEntity
  8
0
 62
7
100
AcDbLine
 10
142.622463
 20
88.350585
 30
0.0
 11
142.567404
 21
88.259913
 31
0.0
  0
LINE
  5
45e
100
AcDbEntity
  8
0
 62
7
100
AcDbLine
 10
142.567404
 20
88.259913
 30
0.0
 11
142.504122
 21
88.175232
 31
0.0
  0
LINE
  5
45f
100
AcDbEntity
  8
0
 62
7
100
AcDbLine
 10
142.504122
 20
88.175232
 30
0.0
 11
142.433166
 21
88.097100
 31
0.0
  0
LINE
  5
460
100
AcDbEntity
  8
0
 62
7
100
AcDbLine
 10
142.433166
 20
88.097100
 30
0.0
 11
142.355090
 21
88.026073
 31
0.0
  0
LINE
  5
461
100
AcDbEntity
  8
0
 62
7
100
AcDbLine
 10
142.355090
 20
88.026073
 30
0.0
 11
142.270442
 21
87.962709
 31
0.0
  0
LINE
  5
462
100
AcDbEntity
  8
0
 62
7
100
AcDbLine
 10
142.270442
 20
87.962709
 30
0.0
 11
142.179775
 21
87.907564
 31
0.0
  0
LINE
  5
463
100
AcDbEntity
  8
0
 62
7
100
AcDbLine
 10
142.179775
 20
87.907564
 30
0.0
 11
142.083640
 21
87.861197
 31
0.0
  0
LINE
  5
464
100
AcDbEntity
  8
0
 62
7
100
AcDbLine
 10
142.083640
 20
87.861197
 30
0.0
 11
141.982587
 21
87.824163
 31
0.0
  0
LINE
  5
465
100
AcDbEntity
  8
0
 62
7
100
AcDbLine
 10
141.982587
 20
87.824163
 30
0.0
 11
141.877168
 21
87.797021
 31
0.0
  0
LINE
  5
466
100
AcDbEntity
  8
0
 62
7
100
AcDbLine
 10
141.877168
 20
87.797021
 30
0.0
 11
141.767934
 21
87.780327
 31
0.0
  0
LINE
  5
467
100
AcDbEntity
  8
0
 62
7
100
AcDbLine
 10
141.767934
 20
87.780327
 30
0.0
 11
141.655436
 21
87.774639
 31
0.0
  0
LINE
  5
468
100
AcDbEntity
  8
0
 62
7
100
AcDbLine
 10
141.655436
 20
87.774639
 30
0.0
 11
141.542938
 21
87.780327
 31
0.0
  0
LINE
  5
469
100
AcDbEntity
  8
0
 62
7
100
AcDbLine
 10
141.542938
 20
87.780327
 30
0.0
 11
141.433704
 21
87.797021
 31
0.0
  0
LINE
  5
46a
100
AcDbEntity
  8
0
 62
7
100
AcDbLine
 10
141.433704
 20
87.797021
 30
0.0
 11
141.328285
 21
87.824163
 31
0.0
  0
LINE
  5
46b
100
AcDbEntity
  8
0
 62
7
100
AcDbLine
 10
141.328285
 20
87.824163
 30
0.0
 11
141.227232
 21
87.861197
 31
0.0
  0
LINE
  5
46c
100
AcDbEntity
  8
0
 62
7
100
AcDbLine
 10
141.227232
 20
87.861197
 30
0.0
 11
141.131097
 21
87.907564
 31
0.0
  0
LINE
  5
46d
100
AcDbEntity
  8
0
 62
7
100
AcDbLine
 10
141.131097
 20
87.907564
 30
0.0
 11
141.040430
 21
87.962709
 31
0.0
  0
LINE
  5
46e
100
AcDbEntity
  8
0
 62
7
100
AcDbLine
 10
141.040430
 20
87.962709
 30
0.0
 11
140.955783
 21
88.026073
 31
0.0
  0
LINE
  5
46f
100
AcDbEntity
  8
0
 62
7
100
AcDbLine
 10
140.955783
 20
88.026073
 30
0.0
 11
140.877706
 21
88.097100
 31
0.0
  0
LINE
  5
470
100
AcDbEntity
  8
0
 62
7
100
AcDbLine
 10
140.877706
 20
88.097100
 30
0.0
 11
140.806751
 21
88.175232
 31
0.0
  0
LINE
  5
471
100
AcDbEntity
  8
0
 62
7
100
AcDbLine
 10
140.806751
 20
88.175232
 30
0.0
 11
140.743468
 21
88.259913
 31
0.0
  0
LINE
  5
472
100
AcDbEntity
  8
0
 62
7
100
AcDbLine
 10
140.743468
 20
88.259913
 30
0.0
 11
140.688410
 21
88.350585
 31
0.0
  0
LINE
  5
473
100
AcDbEntity
  8
0
 62
7
100
AcDbLine
 10
140.688410
 20
88.350585
 30
0.0
 11
140.642126
 21
88.446691
 31
0.0
  0
LINE
  5
474
100
AcDbEntity
  8
0
 62
7
100
AcDbLine
 10
140.642126
 20
88.446691
 30
0.0
 11
140.605168
 21
88.547674
 31
0.0
  0
LINE
  5
475
100
AcDbEntity
  8
0
 62
7
100
AcDbLine
 10
140.605168
 20
88.547674
 30
0.0
 11
140.578088
 21
88.652977
 31
0.0
  0
LINE
  5
476
100
AcDbEntity
  8
0
 62
7
100
AcDbLine
 10
140.578088
 20
88.652977
 30
0.0
 11
140.561435
 21
88.762042
 31
0.0
  0
LINE
  5
477
100
AcDbEntity
  8
0
 62
7
100
AcDbLine
 10
140.561435
 20
88.762042
 30
0.0
 11
140.555762
 21
88.874313
 31
0.0
  0
LINE
  5
478
100
AcDbEntity
  8
0
 62
7
100
AcDbLine
 10
140.555762
 20
88.874313
 30
0.0
 11
140.561435
 21
88.986827
 31
0.0
  0
LINE
  5
479
100
AcDbEntity
  8
0
 62
7
100
AcDbLine
 10
140.561435
 20
88.986827
 30
0.0
 11
140.578088
 21
89.096105
 31
0.0
  0
LINE
  5
47a
100
AcDbEntity
  8
0
 62
7
100
AcDbLine
 10
140.578088
 20
89.096105
 30
0.0
 11
140.605168
 21
89.201592
 31
0.0
  0
LINE
  5
47b
100
AcDbEntity
  8
0
 62
7
100
AcDbLine
 10
140.605168
 20
89.201592
 30
0.0
 11
140.642126
 21
89.302733
 31
0.0
  0
LINE
  5
47c
100
AcDbEntity
  8
0
 62
7
100
AcDbLine
 10
140.642126
 20
89.302733
 30
0.0
 11
140.688410
 21
89.398972
 31
0.0
  0
LINE
  5
47d
100
AcDbEntity
  8
0
 62
7
100
AcDbLine
 10
140.688410
 20
89.398972
 30
0.0
 11
140.743468
 21
89.489755
 31
0.0
  0
LINE
  5
47e
100
AcDbEntity
  8
0
 62
7
100
AcDbLine
 10
140.743468
 20
89.489755
 30
0.0
 11
140.806751
 21
89.574527
 31
0.0
  0
LINE
  5
47f
100
AcDbEntity
  8
0
 62
7
100
AcDbLine
 10
140.806751
 20
89.574527
 30
0.0
 11
140.877706
 21
89.652733
 31
0.0
  0
LINE
  5
480
100
AcDbEntity
  8
0
 62
7
100
AcDbLine
 10
140.877706
 20
89.652733
 30
0.0
 11
140.955783
 21
89.723816
 31
0.0
  0
LINE
  5
481
100
AcDbEntity
  8
0
 62
7
100
AcDbLine
 10
140.955783
 20
89.723816
 30
0.0
 11
141.040430
 21
89.787223
 31
0.0
  0
LINE
  5
482
100
AcDbEntity
  8
0
 62
7
100
AcDbLine
 10
141.040430
 20
89.787223
 30
0.0
 11
141.131097
 21
89.842398
 31
0.0
  0
LINE
  5
483
100
AcDbEntity
  8
0
 62
7
100
AcDbLine
 10
141.131097
 20
89.842398
 30
0.0
 11
141.227232
 21
89.888786
 31
0.0
  0
LINE
  5
484
100
AcDbEntity
  8
0
 62
7
100
AcDbLine
 10
141.227232
 20
89.888786
 30
0.0
 11
141.328285
 21
89.925832
 31
0.0
  0
LINE
  5
485
100
AcDbEntity
  8
0
 62
7
100
AcDbLine
 10
141.328285
 20
89.925832
 30
0.0
 11
141.433704
 21
89.952981
 31
0.0
  0
LINE
  5
486
100
AcDbEntity
  8
0
 62
7
100
AcDbLine
 10
141.433704
 20
89.952981
 30
0.0
 11
141.542938
 21
89.969677
 31
0.0
  0
LINE
  5
487
100
AcDbEntity
  8
0
 62
7
100
AcDbLine
 10
141.542938
 20
89.969677
 30
0.0
 11
141.655436
 21
89.975366
 31
0.0
  0
LINE
  5
488
100
AcDbEntity
  8
0
 62
7
100
AcDbLine
 10
141.655436
 20
89.975366
 30
0.0
 11
141.655436
 21
89.975366
 31
0.0
  0
LINE
  5
489
100
AcDbEntity
  8
0
 62
7
100
AcDbLine
 10
168.197830
 20
8.644930
 30
0.0
 11
168.310328
 21
8.639241
 31
0.0
  0
LINE
  5
48a
100
AcDbEntity
  8
0
 62
7
100
AcDbLine
 10
168.310328
 20
8.639241
 30
0.0
 11
168.419562
 21
8.622545
 31
0.0
  0
LINE
  5
48b
100
AcDbEntity
  8
0
 62
7
100
AcDbLine
 10
168.419562
 20
8.622545
 30
0.0
 11
168.524981
 21
8.595396
 31
0.0
  0
LINE
  5
48c
100
AcDbEntity
  8
0
 62
7
100
AcDbLine
 10
168.524981
 20
8.595396
 30
0.0
 11
168.626034
 21
8.558350
 31
0.0
  0
LINE
  5
48d
100
AcDbEntity
  8
0
 62
7
100
AcDbLine
 10
168.626034
 20
8.558350
 30
0.0
 11
168.722169
 21
8.511962
 31
0.0
  0
LINE
  5
48e
100
AcDbEntity
  8
0
 62
7
100
AcDbLine
 10
168.722169
 20
8.511962
 30
0.0
 11
168.812836
 21
8.456787
 31
0.0
  0
LINE
  5
48f
100
AcDbEntity
  8
0
 62
7
100
AcDbLine
 10
168.812836
 20
8.456787
 30
0.0
 11
168.897483
 21
8.393380
 31
0.0
  0
LINE
  5
490
100
AcDbEntity
  8
0
 62
7
100
AcDbLine
 10
168.897483
 20
8.393380
 30
0.0
 11
168.975560
 21
8.322296
 31
0.0
  0
LINE
  5
491
100
AcDbEntity
  8
0
 62
7
100
AcDbLine
 10
168.975560
 20
8.322296
 30
0.0
 11
169.046515
 21
8.244091
 31
0.0
  0
LINE
  5
492
100
AcDbEntity
  8
0
 62
7
100
AcDbLine
 10
169.046515
 20
8.244091
 30
0.0
 11
169.109798
 21
8.159319
 31
0.0
  0
LINE
  5
493
100
AcDbEntity
  8
0
 62
7
100
AcDbLine
 10
169.109798
 20
8.159319
 30
0.0
 11
169.164856
 21
8.068536
 31
0.0
  0
LINE
  5
494
100
AcDbEntity
  8
0
 62
7
100
AcDbLine
 10
169.164856
 20
8.068536
 30
0.0
 11
169.211140
 21
7.972296
 31
0.0
  0
LINE
  5
495
100
AcDbEntity
  8
0
 62
7
100
AcDbLine
 10
169.211140
 20
7.972296
 30
0.0
 11
169.248098
 21
7.871156
 31
0.0
  0
LINE
  5
496
100
AcDbEntity
  8
0
 62
7
100
AcDbLine
 10
169.248098
 20
7.871156
 30
0.0
 11
169.275179
 21
7.765669
 31
0.0
  0
LINE
  5
497
100
AcDbEntity
  8
0
 62
7
100
AcDbLine
 10
169.275179
 20
7.765669
 30
0.0
 11
169.291831
 21
7.656391
 31
0.0
  0
LINE
  5
498
100
AcDbEntity
  8
0
 62
7
100
AcDbLine
 10
169.291831
 20
7.656391
 30
0.0
 11
169.297504
 21
7.543877
 31
0.0
  0
LINE
  5
499
100
AcDbEntity
  8
0
 62
7
100
AcDbLine
 10
169.297504
 20
7.543877
 30
0.0
 11
169.291831
 21
7.431606
 31
0.0
  0
LINE
  5
49a
100
AcDbEntity
  8
0
 62
7
100
AcDbLine
 10
169.291831
 20
7.431606
 30
0.0
 11
169.275179
 21
7.322541
 31
0.0
  0
LINE
  5
49b
100
AcDbEntity
  8
0
 62
7
100
AcDbLine
 10
169.275179
 20
7.322541
 30
0.0
 11
169.248098
 21
7.217238
 31
0.0
  0
LINE
  5
49c
100
AcDbEntity
  8
0
 62
7
100
AcDbLine
 10
169.248098
 20
7.217238
 30
0.0
 11
169.211140
 21
7.116255
 31
0.0
  0
LINE
  5
49d
100
AcDbEntity
  8
0
 62
7
100
AcDbLine
 10
169.211140
 20
7.116255
 30
0.0
 11
169.164856
 21
7.020149
 31
0.0
  0
LINE
  5
49e
100
AcDbEntity
  8
0
 62
7
100
AcDbLine
 10
169.164856
 20
7.020149
 30
0.0
 11
169.109798
 21
6.929477
 31
0.0
  0
LINE
  5
49f
100
AcDbEntity
  8
0
 62
7
100
AcDbLine
 10
169.109798
 20
6.929477
 30
0.0
 11
169.046515
 21
6.844796
 31
0.0
  0
LINE
  5
4a0
100
AcDbEntity
  8
0
 62
7
100
AcDbLine
 10
169.046515
 20
6.844796
 30
0.0
 11
168.975560
 21
6.766664
 31
0.0
  0
LINE
  5
4a1
100
AcDbEntity
  8
0
 62
7
100
AcDbLine
 10
168.975560
 20
6.766664
 30
0.0
 11
168.897483
 21
6.695637
 31
0.0
  0
LINE
  5
4a2
100
AcDbEntity
  8
0
 62
7
100
AcDbLine
 10
168.897483
 20
6.695637
 30
0.0
 11
168.812836
 21
6.632273
 31
0.0
  0
LINE
  5
4a3
100
AcDbEntity
  8
0
 62
7
100
AcDbLine
 10
168.812836
 20
6.632273
 30
0.0
 11
168.722169
 21
6.577128
 31
0.0
  0
LINE
  5
4a4
100
AcDbEntity
  8
0
 62
7
100
AcDbLine
 10
168.722169
 20
6.577128
 30
0.0
 11
168.626034
 21
6.530761
 31
0.0
  0
LINE
  5
4a5
100
AcDbEntity
  8
0
 62
7
100
AcDbLine
 10
168.626034
 20
6.530761
 30
0.0
 11
168.524981
 21
6.493727
 31
0.0
  0
LINE
  5
4a6
100
AcDbEntity
  8
0
 62
7
100
AcDbLine
 10
168.524981
 20
6.493727
 30
0.0
 11
168.419562
 21
6.466585
 31
0.0
  0
LINE
  5
4a7
100
AcDbEntity
  8
0
 62
7
100
AcDbLine
 10
168.419562
 20
6.466585
 30
0.0
 11
168.310328
 21
6.449891
 31
0.0
  0
LINE
  5
4a8
100
AcDbEntity
  8
0
 62
7
100
AcDbLine
 10
168.310328
 20
6.449891
 30
0.0
 11
168.197830
 21
6.444203
 31
0.0
  0
LINE
  5
4a9
100
AcDbEntity
  8
0
 62
7
100
AcDbLine
 10
168.197830
 20
6.444203
 30
0.0
 11
168.085332
 21
6.449891
 31
0.0
  0
LINE
  5
4aa
100
AcDbEntity
  8
0
 62
7
100
AcDbLine
 10
168.085332
 20
6.449891
 30
0.0
 11
167.976098
 21
6.466585
 31
0.0
  0
LINE
  5
4ab
100
AcDbEntity
  8
0
 62
7
100
AcDbLine
 10
167.976098
 20
6.466585
 30
0.0
 11
167.870679
 21
6.493727
 31
0.0
  0
LINE
  5
4ac
100
AcDbEntity
  8
0
 62
7
100
AcDbLine
 10
167.870679
 20
6.493727
 30
0.0
 11
167.769626
 21
6.530761
 31
0.0
  0
LINE
  5
4ad
100
AcDbEntity
  8
0
 62
7
100
AcDbLine
 10
167.769626
 20
6.530761
 30
0.0
 11
167.673491
 21
6.577128
 31
0.0
  0
LINE
  5
4ae
100
AcDbEntity
  8
0
 62
7
100
AcDbLine
 10
167.673491
 20
6.577128
 30
0.0
 11
167.582824
 21
6.632273
 31
0.0
  0
LINE
  5
4af
100
AcDbEntity
  8
0
 62
7
100
AcDbLine
 10
167.582824
 20
6.632273
 30
0.0
 11
167.498176
 21
6.695637
 31
0.0
  0
LINE
  5
4b0
100
AcDbEntity
  8
0
 62
7
100
AcDbLine
 10
167.498176
 20
6.695637
 30
0.0
 11
167.420100
 21
6.766664
 31
0.0
  0
LINE
  5
4b1
100
AcDbEntity
  8
0
 62
7
100
AcDbLine
 10
167.420100
 20
6.766664
 30
0.0
 11
167.349144
 21
6.844796
 31
0.0
  0
LINE
  5
4b2
100
AcDbEntity
  8
0
 62
7
100
AcDbLine
 10
167.349144
 20
6.844796
 30
0.0
 11
167.285862
 21
6.929477
 31
0.0
  0
LINE
  5
4b3
100
AcDbEntity
  8
0
 62
7
100
AcDbLine
 10
167.285862
 20
6.929477
 30
0.0
 11
167.230803
 21
7.020149
 31
0.0
  0
LINE
  5
4b4
100
AcDbEntity
  8
0
 62
7
100
AcDbLine
 10
167.230803
 20
7.020149
 30
0.0
 11
167.184520
 21
7.116255
 31
0.0
  0
LINE
  5
4b5
100
AcDbEntity
  8
0
 62
7
100
AcDbLine
 10
167.184520
 20
7.116255
 30
0.0
 11
167.147562
 21
7.217238
 31
0.0
  0
LINE
  5
4b6
100
AcDbEntity
  8
0
 62
7
100
AcDbLine
 10
167.147562
 20
7.217238
 30
0.0
 11
167.120481
 21
7.322541
 31
0.0
  0
LINE
  5
4b7
100
AcDbEntity
  8
0
 62
7
100
AcDbLine
 10
167.120481
 20
7.322541
 30
0.0
 11
167.103829
 21
7.431606
 31
0.0
  0
LINE
  5
4b8
100
AcDbEntity
  8
0
 62
7
100
AcDbLine
 10
167.103829
 20
7.431606
 30
0.0
 11
167.098155
 21
7.543877
 31
0.0
  0
LINE
  5
4b9
100
AcDbEntity
  8
0
 62
7
100
AcDbLine
 10
167.098155
 20
7.543877
 30
0.0
 11
167.103829
 21
7.656391
 31
0.0
  0
LINE
  5
4ba
100
AcDbEntity
  8
0
 62
7
100
AcDbLine
 10
167.103829
 20
7.656391
 30
0.0
 11
167.120481
 21
7.765669
 31
0.0
  0
LINE
  5
4bb
100
AcDbEntity
  8
0
 62
7
100
AcDbLine
 10
167.120481
 20
7.765669
 30
0.0
 11
167.147562
 21
7.871156
 31
0.0
  0
LINE
  5
4bc
100
AcDbEntity
  8
0
 62
7
100
AcDbLine
 10
167.147562
 20
7.871156
 30
0.0
 11
167.184520
 21
7.972296
 31
0.0
  0
LINE
  5
4bd
100
AcDbEntity
  8
0
 62
7
100
AcDbLine
 10
167.184520
 20
7.972296
 30
0.0
 11
167.230803
 21
8.068536
 31
0.0
  0
LINE
  5
4be
100
AcDbEntity
  8
0
 62
7
100
AcDbLine
 10
167.230803
 20
8.068536
 30
0.0
 11
167.285862
 21
8.159319
 31
0.0
  0
LINE
  5
4bf
100
AcDbEntity
  8
0
 62
7
100
AcDbLine
 10
167.285862
 20
8.159319
 30
0.0
 11
167.349144
 21
8.244091
 31
0.0
  0
LINE
  5
4c0
100
AcDbEntity
  8
0
 62
7
100
AcDbLine
 10
167.349144
 20
8.244091
 30
0.0
 11
167.420100
 21
8.322296
 31
0.0
  0
LINE
  5
4c1
100
AcDbEntity
  8
0
 62
7
100
AcDbLine
 10
167.420100
 20
8.322296
 30
0.0
 11
167.498176
 21
8.393380
 31
0.0
  0
LINE
  5
4c2
100
AcDbEntity
  8
0
 62
7
100
AcDbLine
 10
167.498176
 20
8.393380
 30
0.0
 11
167.582824
 21
8.456787
 31
0.0
  0
LINE
  5
4c3
100
AcDbEntity
  8
0
 62
7
100
AcDbLine
 10
167.582824
 20
8.456787
 30
0.0
 11
167.673491
 21
8.511962
 31
0.0
  0
LINE
  5
4c4
100
AcDbEntity
  8
0
 62
7
100
AcDbLine
 10
167.673491
 20
8.511962
 30
0.0
 11
167.769626
 21
8.558350
 31
0.0
  0
LINE
  5
4c5
100
AcDbEntity
  8
0
 62
7
100
AcDbLine
 10
167.769626
 20
8.558350
 30
0.0
 11
167.870679
 21
8.595396
 31
0.0
  0
LINE
  5
4c6
100
AcDbEntity
  8
0
 62
7
100
AcDbLine
 10
167.870679
 20
8.595396
 30
0.0
 11
167.976098
 21
8.622545
 31
0.0
  0
LINE
  5
4c7
100
AcDbEntity
  8
0
 62
7
100
AcDbLine
 10
167.976098
 20
8.622545
 30
0.0
 11
168.085332
 21
8.639241
 31
0.0
  0
LINE
  5
4c8
100
AcDbEntity
  8
0
 62
7
100
AcDbLine
 10
168.085332
 20
8.639241
 30
0.0
 11
168.197830
 21
8.644930
 31
0.0
  0
LINE
  5
4c9
100
AcDbEntity
  8
0
 62
7
100
AcDbLine
 10
168.197830
 20
8.644930
 30
0.0
 11
168.197830
 21
8.644930
 31
0.0
  0
LINE
  5
4ca
100
AcDbEntity
  8
0
 62
7
100
AcDbLine
 10
141.863520
 20
8.644930
 30
0.0
 11
141.976018
 21
8.639241
 31
0.0
  0
LINE
  5
4cb
100
AcDbEntity
  8
0
 62
7
100
AcDbLine
 10
141.976018
 20
8.639241
 30
0.0
 11
142.085252
 21
8.622545
 31
0.0
  0
LINE
  5
4cc
100
AcDbEntity
  8
0
 62
7
100
AcDbLine
 10
142.085252
 20
8.622545
 30
0.0
 11
142.190671
 21
8.595396
 31
0.0
  0
LINE
  5
4cd
100
AcDbEntity
  8
0
 62
7
100
AcDbLine
 10
142.190671
 20
8.595396
 30
0.0
 11
142.291724
 21
8.558350
 31
0.0
  0
LINE
  5
4ce
100
AcDbEntity
  8
0
 62
7
100
AcDbLine
 10
142.291724
 20
8.558350
 30
0.0
 11
142.387859
 21
8.511962
 31
0.0
  0
LINE
  5
4cf
100
AcDbEntity
  8
0
 62
7
100
AcDbLine
 10
142.387859
 20
8.511962
 30
0.0
 11
142.478526
 21
8.456787
 31
0.0
  0
LINE
  5
4d0
100
AcDbEntity
  8
0
 62
7
100
AcDbLine
 10
142.478526
 20
8.456787
 30
0.0
 11
142.563173
 21
8.393380
 31
0.0
  0
LINE
  5
4d1
100
AcDbEntity
  8
0
 62
7
100
AcDbLine
 10
142.563173
 20
8.393380
 30
0.0
 11
142.641250
 21
8.322296
 31
0.0
  0
LINE
  5
4d2
100
AcDbEntity
  8
0
 62
7
100
AcDbLine
 10
142.641250
 20
8.322296
 30
0.0
 11
142.712205
 21
8.244091
 31
0.0
  0
LINE
  5
4d3
100
AcDbEntity
  8
0
 62
7
100
AcDbLine
 10
142.712205
 20
8.244091
 30
0.0
 11
142.775488
 21
8.159319
 31
0.0
  0
LINE
  5
4d4
100
AcDbEntity
  8
0
 62
7
100
AcDbLine
 10
142.775488
 20
8.159319
 30
0.0
 11
142.830546
 21
8.068536
 31
0.0
  0
LINE
  5
4d5
100
AcDbEntity
  8
0
 62
7
100
AcDbLine
 10
142.830546
 20
8.068536
 30
0.0
 11
142.876830
 21
7.972296
 31
0.0
  0
LINE
  5
4d6
100
AcDbEntity
  8
0
 62
7
100
AcDbLine
 10
142.876830
 20
7.972296
 30
0.0
 11
142.913788
 21
7.871156
 31
0.0
  0
LINE
  5
4d7
100
AcDbEntity
  8
0
 62
7
100
AcDbLine
 10
142.913788
 20
7.871156
 30
0.0
 11
142.940869
 21
7.765669
 31
0.0
  0
LINE
  5
4d8
100
AcDbEntity
  8
0
 62
7
100
AcDbLine
 10
142.940869
 20
7.765669
 30
0.0
 11
142.957521
 21
7.656391
 31
0.0
  0
LINE
  5
4d9
100
AcDbEntity
  8
0
 62
7
100
AcDbLine
 10
142.957521
 20
7.656391
 30
0.0
 11
142.963194
 21
7.543877
 31
0.0
  0
LINE
  5
4da
100
AcDbEntity
  8
0
 62
7
100
AcDbLine
 10
142.963194
 20
7.543877
 30
0.0
 11
142.957521
 21
7.431606
 31
0.0
  0
LINE
  5
4db
100
AcDbEntity
  8
0
 62
7
100
AcDbLine
 10
142.957521
 20
7.431606
 30
0.0
 11
142.940869
 21
7.322541
 31
0.0
  0
LINE
  5
4dc
100
AcDbEntity
  8
0
 62
7
100
AcDbLine
 10
142.940869
 20
7.322541
 30
0.0
 11
142.913788
 21
7.217238
 31
0.0
  0
LINE
  5
4dd
100
AcDbEntity
  8
0
 62
7
100
AcDbLine
 10
142.913788
 20
7.217238
 30
0.0
 11
142.876830
 21
7.116255
 31
0.0
  0
LINE
  5
4de
100
AcDbEntity
  8
0
 62
7
100
AcDbLine
 10
142.876830
 20
7.116255
 30
0.0
 11
142.830546
 21
7.020149
 31
0.0
  0
LINE
  5
4df
100
AcDbEntity
  8
0
 62
7
100
AcDbLine
 10
142.830546
 20
7.020149
 30
0.0
 11
142.775488
 21
6.929477
 31
0.0
  0
LINE
  5
4e0
100
AcDbEntity
  8
0
 62
7
100
AcDbLine
 10
142.775488
 20
6.929477
 30
0.0
 11
142.712205
 21
6.844796
 31
0.0
  0
LINE
  5
4e1
100
AcDbEntity
  8
0
 62
7
100
AcDbLine
 10
142.712205
 20
6.844796
 30
0.0
 11
142.641250
 21
6.766664
 31
0.0
  0
LINE
  5
4e2
100
AcDbEntity
  8
0
 62
7
100
AcDbLine
 10
142.641250
 20
6.766664
 30
0.0
 11
142.563173
 21
6.695637
 31
0.0
  0
LINE
  5
4e3
100
AcDbEntity
  8
0
 62
7
100
AcDbLine
 10
142.563173
 20
6.695637
 30
0.0
 11
142.478526
 21
6.632273
 31
0.0
  0
LINE
  5
4e4
100
AcDbEntity
  8
0
 62
7
100
AcDbLine
 10
142.478526
 20
6.632273
 30
0.0
 11
142.387859
 21
6.577128
 31
0.0
  0
LINE
  5
4e5
100
AcDbEntity
  8
0
 62
7
100
AcDbLine
 10
142.387859
 20
6.577128
 30
0.0
 11
142.291724
 21
6.530761
 31
0.0
  0
LINE
  5
4e6
100
AcDbEntity
  8
0
 62
7
100
AcDbLine
 10
142.291724
 20
6.530761
 30
0.0
 11
142.190671
 21
6.493727
 31
0.0
  0
LINE
  5
4e7
100
AcDbEntity
  8
0
 62
7
100
AcDbLine
 10
142.190671
 20
6.493727
 30
0.0
 11
142.085252
 21
6.466585
 31
0.0
  0
LINE
  5
4e8
100
AcDbEntity
  8
0
 62
7
100
AcDbLine
 10
142.085252
 20
6.466585
 30
0.0
 11
141.976018
 21
6.449891
 31
0.0
  0
LINE
  5
4e9
100
AcDbEntity
  8
0
 62
7
100
AcDbLine
 10
141.976018
 20
6.449891
 30
0.0
 11
141.863520
 21
6.444203
 31
0.0
  0
LINE
  5
4ea
100
AcDbEntity
  8
0
 62
7
100
AcDbLine
 10
141.863520
 20
6.444203
 30
0.0
 11
141.751022
 21
6.449891
 31
0.0
  0
LINE
  5
4eb
100
AcDbEntity
  8
0
 62
7
100
AcDbLine
 10
141.751022
 20
6.449891
 30
0.0
 11
141.641788
 21
6.466585
 31
0.0
  0
LINE
  5
4ec
100
AcDbEntity
  8
0
 62
7
100
AcDbLine
 10
141.641788
 20
6.466585
 30
0.0
 11
141.536369
 21
6.493727
 31
0.0
  0
LINE
  5
4ed
100
AcDbEntity
  8
0
 62
7
100
AcDbLine
 10
141.536369
 20
6.493727
 30
0.0
 11
141.435316
 21
6.530761
 31
0.0
  0
LINE
  5
4ee
100
AcDbEntity
  8
0
 62
7
100
AcDbLine
 10
141.435316
 20
6.530761
 30
0.0
 11
141.339181
 21
6.577128
 31
0.0
  0
LINE
  5
4ef
100
AcDbEntity
  8
0
 62
7
100
AcDbLine
 10
141.339181
 20
6.577128
 30
0.0
 11
141.248514
 21
6.632273
 31
0.0
  0
LINE
  5
4f0
100
AcDbEntity
  8
0
 62
7
100
AcDbLine
 10
141.248514
 20
6.632273
 30
0.0
 11
141.163866
 21
6.695637
 31
0.0
  0
LINE
  5
4f1
100
AcDbEntity
  8
0
 62
7
100
AcDbLine
 10
141.163866
 20
6.695637
 30
0.0
 11
141.085790
 21
6.766664
 31
0.0
  0
LINE
  5
4f2
100
AcDbEntity
  8
0
 62
7
100
AcDbLine
 10
141.085790
 20
6.766664
 30
0.0
 11
141.014834
 21
6.844796
 31
0.0
  0
LINE
  5
4f3
100
AcDbEntity
  8
0
 62
7
100
AcDbLine
 10
141.014834
 20
6.844796
 30
0.0
 11
140.951552
 21
6.929477
 31
0.0
  0
LINE
  5
4f4
100
AcDbEntity
  8
0
 62
7
100
AcDbLine
 10
140.951552
 20
6.929477
 30
0.0
 11
140.896493
 21
7.020149
 31
0.0
  0
LINE
  5
4f5
100
AcDbEntity
  8
0
 62
7
100
AcDbLine
 10
140.896493
 20
7.020149
 30
0.0
 11
140.850210
 21
7.116255
 31
0.0
  0
LINE
  5
4f6
100
AcDbEntity
  8
0
 62
7
100
AcDbLine
 10
140.850210
 20
7.116255
 30
0.0
 11
140.813252
 21
7.217238
 31
0.0
  0
LINE
  5
4f7
100
AcDbEntity
  8
0
 62
7
100
AcDbLine
 10
140.813252
 20
7.217238
 30
0.0
 11
140.786171
 21
7.322541
 31
0.0
  0
LINE
  5
4f8
100
AcDbEntity
  8
0
 62
7
100
AcDbLine
 10
140.786171
 20
7.322541
 30
0.0
 11
140.769519
 21
7.431606
 31
0.0
  0
LINE
  5
4f9
100
AcDbEntity
  8
0
 62
7
100
AcDbLine
 10
140.769519
 20
7.431606
 30
0.0
 11
140.763845
 21
7.543877
 31
0.0
  0
LINE
  5
4fa
100
AcDbEntity
  8
0
 62
7
100
AcDbLine
 10
140.763845
 20
7.543877
 30
0.0
 11
140.769519
 21
7.656391
 31
0.0
  0
LINE
  5
4fb
100
AcDbEntity
  8
0
 62
7
100
AcDbLine
 10
140.769519
 20
7.656391
 30
0.0
 11
140.786171
 21
7.765669
 31
0.0
  0
LINE
  5
4fc
100
AcDbEntity
  8
0
 62
7
100
AcDbLine
 10
140.786171
 20
7.765669
 30
0.0
 11
140.813252
 21
7.871156
 31
0.0
  0
LINE
  5
4fd
100
AcDbEntity
  8
0
 62
7
100
AcDbLine
 10
140.813252
 20
7.871156
 30
0.0
 11
140.850210
 21
7.972296
 31
0.0
  0
LINE
  5
4fe
100
AcDbEntity
  8
0
 62
7
100
AcDbLine
 10
140.850210
 20
7.972296
 30
0.0
 11
140.896493
 21
8.068536
 31
0.0
  0
LINE
  5
4ff
100
AcDbEntity
  8
0
 62
7
100
AcDbLine
 10
140.896493
 20
8.068536
 30
0.0
 11
140.951552
 21
8.159319
 31
0.0
  0
LINE
  5
500
100
AcDbEntity
  8
0
 62
7
100
AcDbLine
 10
140.951552
 20
8.159319
 30
0.0
 11
141.014834
 21
8.244091
 31
0.0
  0
LINE
  5
501
100
AcDbEntity
  8
0
 62
7
100
AcDbLine
 10
141.014834
 20
8.244091
 30
0.0
 11
141.085790
 21
8.322296
 31
0.0
  0
LINE
  5
502
100
AcDbEntity
  8
0
 62
7
100
AcDbLine
 10
141.085790
 20
8.322296
 30
0.0
 11
141.163866
 21
8.393380
 31
0.0
  0
LINE
  5
503
100
AcDbEntity
  8
0
 62
7
100
AcDbLine
 10
141.163866
 20
8.393380
 30
0.0
 11
141.248514
 21
8.456787
 31
0.0
  0
LINE
  5
504
100
AcDbEntity
  8
0
 62
7
100
AcDbLine
 10
141.248514
 20
8.456787
 30
0.0
 11
141.339181
 21
8.511962
 31
0.0
  0
LINE
  5
505
100
AcDbEntity
  8
0
 62
7
100
AcDbLine
 10
141.339181
 20
8.511962
 30
0.0
 11
141.435316
 21
8.558350
 31
0.0
  0
LINE
  5
506
100
AcDbEntity
  8
0
 62
7
100
AcDbLine
 10
141.435316
 20
8.558350
 30
0.0
 11
141.536369
 21
8.595396
 31
0.0
  0
LINE
  5
507
100
AcDbEntity
  8
0
 62
7
100
AcDbLine
 10
141.536369
 20
8.595396
 30
0.0
 11
141.641788
 21
8.622545
 31
0.0
  0
LINE
  5
508
100
AcDbEntity
  8
0
 62
7
100
AcDbLine
 10
141.641788
 20
8.622545
 30
0.0
 11
141.751022
 21
8.639241
 31
0.0
  0
LINE
  5
509
100
AcDbEntity
  8
0
 62
7
100
AcDbLine
 10
141.751022
 20
8.639241
 30
0.0
 11
141.863520
 21
8.644930
 31
0.0
  0
LINE
  5
50a
100
AcDbEntity
  8
0
 62
7
100
AcDbLine
 10
141.863520
 20
8.644930
 30
0.0
 11
141.863520
 21
8.644930
 31
0.0
  0
LINE
  5
50b
100
AcDbEntity
  8
0
 62
7
100
AcDbLine
 10
301.367307
 20
102.435587
 30
0.0
 11
301.479578
 21
102.429899
 31
0.0
  0
LINE
  5
50c
100
AcDbEntity
  8
0
 62
7
100
AcDbLine
 10
301.479578
 20
102.429899
 30
0.0
 11
301.588643
 21
102.413205
 31
0.0
  0
LINE
  5
50d
100
AcDbEntity
  8
0
 62
7
100
AcDbLine
 10
301.588643
 20
102.413205
 30
0.0
 11
301.693946
 21
102.386063
 31
0.0
  0
LINE
  5
50e
100
AcDbEntity
  8
0
 62
7
100
AcDbLine
 10
301.693946
 20
102.386063
 30
0.0
 11
301.794929
 21
102.349029
 31
0.0
  0
LINE
  5
50f
100
AcDbEntity
  8
0
 62
7
100
AcDbLine
 10
301.794929
 20
102.349029
 30
0.0
 11
301.891035
 21
102.302662
 31
0.0
  0
LINE
  5
510
100
AcDbEntity
  8
0
 62
7
100
AcDbLine
 10
301.891035
 20
102.302662
 30
0.0
 11
301.981707
 21
102.247517
 31
0.0
  0
LINE
  5
511
100
AcDbEntity
  8
0
 62
7
100
AcDbLine
 10
301.981707
 20
102.247517
 30
0.0
 11
302.066388
 21
102.184153
 31
0.0
  0
LINE
  5
512
100
AcDbEntity
  8
0
 62
7
100
AcDbLine
 10
302.066388
 20
102.184153
 30
0.0
 11
302.144520
 21
102.113126
 31
0.0
  0
LINE
  5
513
100
AcDbEntity
  8
0
 62
7
100
AcDbLine
 10
302.144520
 20
102.113126
 30
0.0
 11
302.215547
 21
102.034994
 31
0.0
  0
LINE
  5
514
100
AcDbEntity
  8
0
 62
7
100
AcDbLine
 10
302.215547
 20
102.034994
 30
0.0
 11
302.278911
 21
101.950313
 31
0.0
  0
LINE
  5
515
100
AcDbEntity
  8
0
 62
7
100
AcDbLine
 10
302.278911
 20
101.950313
 30
0.0
 11
302.334056
 21
101.859641
 31
0.0
  0
LINE
  5
516
100
AcDbEntity
  8
0
 62
7
100
AcDbLine
 10
302.334056
 20
101.859641
 30
0.0
 11
302.380423
 21
101.763535
 31
0.0
  0
LINE
  5
517
100
AcDbEntity
  8
0
 62
7
100
AcDbLine
 10
302.380423
 20
101.763535
 30
0.0
 11
302.417457
 21
101.662552
 31
0.0
  0
LINE
  5
518
100
AcDbEntity
  8
0
 62
7
100
AcDbLine
 10
302.417457
 20
101.662552
 30
0.0
 11
302.444599
 21
101.557249
 31
0.0
  0
LINE
  5
519
100
AcDbEntity
  8
0
 62
7
100
AcDbLine
 10
302.444599
 20
101.557249
 30
0.0
 11
302.461293
 21
101.448184
 31
0.0
  0
LINE
  5
51a
100
AcDbEntity
  8
0
 62
7
100
AcDbLine
 10
302.461293
 20
101.448184
 30
0.0
 11
302.466981
 21
101.335913
 31
0.0
  0
LINE
  5
51b
100
AcDbEntity
  8
0
 62
7
100
AcDbLine
 10
302.466981
 20
101.335913
 30
0.0
 11
302.461293
 21
101.223415
 31
0.0
  0
LINE
  5
51c
100
AcDbEntity
  8
0
 62
7
100
AcDbLine
 10
302.461293
 20
101.223415
 30
0.0
 11
302.444599
 21
101.114180
 31
0.0
  0
LINE
  5
51d
100
AcDbEntity
  8
0
 62
7
100
AcDbLine
 10
302.444599
 20
101.114180
 30
0.0
 11
302.417457
 21
101.008762
 31
0.0
  0
LINE
  5
51e
100
AcDbEntity
  8
0
 62
7
100
AcDbLine
 10
302.417457
 20
101.008762
 30
0.0
 11
302.380423
 21
100.907709
 31
0.0
  0
LINE
  5
51f
100
AcDbEntity
  8
0
 62
7
100
AcDbLine
 10
302.380423
 20
100.907709
 30
0.0
 11
302.334056
 21
100.811574
 31
0.0
  0
LINE
  5
520
100
AcDbEntity
  8
0
 62
7
100
AcDbLine
 10
302.334056
 20
100.811574
 30
0.0
 11
302.278911
 21
100.720907
 31
0.0
  0
LINE
  5
521
100
AcDbEntity
  8
0
 62
7
100
AcDbLine
 10
302.278911
 20
100.720907
 30
0.0
 11
302.215547
 21
100.636259
 31
0.0
  0
LINE
  5
522
100
AcDbEntity
  8
0
 62
7
100
AcDbLine
 10
302.215547
 20
100.636259
 30
0.0
 11
302.144520
 21
100.558182
 31
0.0
  0
LINE
  5
523
100
AcDbEntity
  8
0
 62
7
100
AcDbLine
 10
302.144520
 20
100.558182
 30
0.0
 11
302.066388
 21
100.487227
 31
0.0
  0
LINE
  5
524
100
AcDbEntity
  8
0
 62
7
100
AcDbLine
 10
302.066388
 20
100.487227
 30
0.0
 11
301.981707
 21
100.423945
 31
0.0
  0
LINE
  5
525
100
AcDbEntity
  8
0
 62
7
100
AcDbLine
 10
301.981707
 20
100.423945
 30
0.0
 11
301.891035
 21
100.368886
 31
0.0
  0
LINE
  5
526
100
AcDbEntity
  8
0
 62
7
100
AcDbLine
 10
301.891035
 20
100.368886
 30
0.0
 11
301.794929
 21
100.322603
 31
0.0
  0
LINE
  5
527
100
AcDbEntity
  8
0
 62
7
100
AcDbLine
 10
301.794929
 20
100.322603
 30
0.0
 11
301.693946
 21
100.285645
 31
0.0
  0
LINE
  5
528
100
AcDbEntity
  8
0
 62
7
100
AcDbLine
 10
301.693946
 20
100.285645
 30
0.0
 11
301.588643
 21
100.258564
 31
0.0
  0
LINE
  5
529
100
AcDbEntity
  8
0
 62
7
100
AcDbLine
 10
301.588643
 20
100.258564
 30
0.0
 11
301.479578
 21
100.241912
 31
0.0
  0
LINE
  5
52a
100
AcDbEntity
  8
0
 62
7
100
AcDbLine
 10
301.479578
 20
100.241912
 30
0.0
 11
301.367307
 21
100.236238
 31
0.0
  0
LINE
  5
52b
100
AcDbEntity
  8
0
 62
7
100
AcDbLine
 10
301.367307
 20
100.236238
 30
0.0
 11
301.254809
 21
100.241912
 31
0.0
  0
LINE
  5
52c
100
AcDbEntity
  8
0
 62
7
100
AcDbLine
 10
301.254809
 20
100.241912
 30
0.0
 11
301.145575
 21
100.258564
 31
0.0
  0
LINE
  5
52d
100
AcDbEntity
  8
0
 62
7
100
AcDbLine
 10
301.145575
 20
100.258564
 30
0.0
 11
301.040156
 21
100.285645
 31
0.0
  0
LINE
  5
52e
100
AcDbEntity
  8
0
 62
7
100
AcDbLine
 10
301.040156
 20
100.285645
 30
0.0
 11
300.939103
 21
100.322603
 31
0.0
  0
LINE
  5
52f
100
AcDbEntity
  8
0
 62
7
100
AcDbLine
 10
300.939103
 20
100.322603
 30
0.0
 11
300.842968
 21
100.368886
 31
0.0
  0
LINE
  5
530
100
AcDbEntity
  8
0
 62
7
100
AcDbLine
 10
300.842968
 20
100.368886
 30
0.0
 11
300.752301
 21
100.423945
 31
0.0
  0
LINE
  5
531
100
AcDbEntity
  8
0
 62
7
100
AcDbLine
 10
300.752301
 20
100.423945
 30
0.0
 11
300.667653
 21
100.487227
 31
0.0
  0
LINE
  5
532
100
AcDbEntity
  8
0
 62
7
100
AcDbLine
 10
300.667653
 20
100.487227
 30
0.0
 11
300.589577
 21
100.558182
 31
0.0
  0
LINE
  5
533
100
AcDbEntity
  8
0
 62
7
100
AcDbLine
 10
300.589577
 20
100.558182
 30
0.0
 11
300.518621
 21
100.636259
 31
0.0
  0
LINE
  5
534
100
AcDbEntity
  8
0
 62
7
100
AcDbLine
 10
300.518621
 20
100.636259
 30
0.0
 11
300.455339
 21
100.720907
 31
0.0
  0
LINE
  5
535
100
AcDbEntity
  8
0
 62
7
100
AcDbLine
 10
300.455339
 20
100.720907
 30
0.0
 11
300.400280
 21
100.811574
 31
0.0
  0
LINE
  5
536
100
AcDbEntity
  8
0
 62
7
100
AcDbLine
 10
300.400280
 20
100.811574
 30
0.0
 11
300.353997
 21
100.907709
 31
0.0
  0
LINE
  5
537
100
AcDbEntity
  8
0
 62
7
100
AcDbLine
 10
300.353997
 20
100.907709
 30
0.0
 11
300.317039
 21
101.008762
 31
0.0
  0
LINE
  5
538
100
AcDbEntity
  8
0
 62
7
100
AcDbLine
 10
300.317039
 20
101.008762
 30
0.0
 11
300.289958
 21
101.114180
 31
0.0
  0
LINE
  5
539
100
AcDbEntity
  8
0
 62
7
100
AcDbLine
 10
300.289958
 20
101.114180
 30
0.0
 11
300.273306
 21
101.223415
 31
0.0
  0
LINE
  5
53a
100
AcDbEntity
  8
0
 62
7
100
AcDbLine
 10
300.273306
 20
101.223415
 30
0.0
 11
300.267632
 21
101.335913
 31
0.0
  0
LINE
  5
53b
100
AcDbEntity
  8
0
 62
7
100
AcDbLine
 10
300.267632
 20
101.335913
 30
0.0
 11
300.273306
 21
101.448184
 31
0.0
  0
LINE
  5
53c
100
AcDbEntity
  8
0
 62
7
100
AcDbLine
 10
300.273306
 20
101.448184
 30
0.0
 11
300.289958
 21
101.557249
 31
0.0
  0
LINE
  5
53d
100
AcDbEntity
  8
0
 62
7
100
AcDbLine
 10
300.289958
 20
101.557249
 30
0.0
 11
300.317039
 21
101.662552
 31
0.0
  0
LINE
  5
53e
100
AcDbEntity
  8
0
 62
7
100
AcDbLine
 10
300.317039
 20
101.662552
 30
0.0
 11
300.353997
 21
101.763535
 31
0.0
  0
LINE
  5
53f
100
AcDbEntity
  8
0
 62
7
100
AcDbLine
 10
300.353997
 20
101.763535
 30
0.0
 11
300.400280
 21
101.859641
 31
0.0
  0
LINE
  5
540
100
AcDbEntity
  8
0
 62
7
100
AcDbLine
 10
300.400280
 20
101.859641
 30
0.0
 11
300.455339
 21
101.950313
 31
0.0
  0
LINE
  5
541
100
AcDbEntity
  8
0
 62
7
100
AcDbLine
 10
300.455339
 20
101.950313
 30
0.0
 11
300.518621
 21
102.034994
 31
0.0
  0
LINE
  5
542
100
AcDbEntity
  8
0
 62
7
100
AcDbLine
 10
300.518621
 20
102.034994
 30
0.0
 11
300.589577
 21
102.113126
 31
0.0
  0
LINE
  5
543
100
AcDbEntity
  8
0
 62
7
100
AcDbLine
 10
300.589577
 20
102.113126
 30
0.0
 11
300.667653
 21
102.184153
 31
0.0
  0
LINE
  5
544
100
AcDbEntity
  8
0
 62
7
100
AcDbLine
 10
300.667653
 20
102.184153
 30
0.0
 11
300.752301
 21
102.247517
 31
0.0
  0
LINE
  5
545
100
AcDbEntity
  8
0
 62
7
100
AcDbLine
 10
300.752301
 20
102.247517
 30
0.0
 11
300.842968
 21
102.302662
 31
0.0
  0
LINE
  5
546
100
AcDbEntity
  8
0
 62
7
100
AcDbLine
 10
300.842968
 20
102.302662
 30
0.0
 11
300.939103
 21
102.349029
 31
0.0
  0
LINE
  5
547
100
AcDbEntity
  8
0
 62
7
100
AcDbLine
 10
300.939103
 20
102.349029
 30
0.0
 11
301.040156
 21
102.386063
 31
0.0
  0
LINE
  5
548
100
AcDbEntity
  8
0
 62
7
100
AcDbLine
 10
301.040156
 20
102.386063
 30
0.0
 11
301.145575
 21
102.413205
 31
0.0
  0
LINE
  5
549
100
AcDbEntity
  8
0
 62
7
100
AcDbLine
 10
301.145575
 20
102.413205
 30
0.0
 11
301.254809
 21
102.429899
 31
0.0
  0
LINE
  5
54a
100
AcDbEntity
  8
0
 62
7
100
AcDbLine
 10
301.254809
 20
102.429899
 30
0.0
 11
301.367307
 21
102.435587
 31
0.0
  0
LINE
  5
54b
100
AcDbEntity
  8
0
 62
7
100
AcDbLine
 10
301.367307
 20
102.435587
 30
0.0
 11
301.367307
 21
102.435587
 31
0.0
  0
LINE
  5
54c
100
AcDbEntity
  8
0
 62
7
100
AcDbLine
 10
8.341265
 20
27.525431
 30
0.0
 11
8.453779
 21
27.519742
 31
0.0
  0
LINE
  5
54d
100
AcDbEntity
  8
0
 62
7
100
AcDbLine
 10
8.453779
 20
27.519742
 30
0.0
 11
8.563057
 21
27.503046
 31
0.0
  0
LINE
  5
54e
100
AcDbEntity
  8
0
 62
7
100
AcDbLine
 10
8.563057
 20
27.503046
 30
0.0
 11
8.668544
 21
27.475897
 31
0.0
  0
LINE
  5
54f
100
AcDbEntity
  8
0
 62
7
100
AcDbLine
 10
8.668544
 20
27.475897
 30
0.0
 11
8.769684
 21
27.438851
 31
0.0
  0
LINE
  5
550
100
AcDbEntity
  8
0
 62
7
100
AcDbLine
 10
8.769684
 20
27.438851
 30
0.0
 11
8.865924
 21
27.392463
 31
0.0
  0
LINE
  5
551
100
AcDbEntity
  8
0
 62
7
100
AcDbLine
 10
8.865924
 20
27.392463
 30
0.0
 11
8.956707
 21
27.337288
 31
0.0
  0
LINE
  5
552
100
AcDbEntity
  8
0
 62
7
100
AcDbLine
 10
8.956707
 20
27.337288
 30
0.0
 11
9.041479
 21
27.273881
 31
0.0
  0
LINE
  5
553
100
AcDbEntity
  8
0
 62
7
100
AcDbLine
 10
9.041479
 20
27.273881
 30
0.0
 11
9.119685
 21
27.202798
 31
0.0
  0
LINE
  5
554
100
AcDbEntity
  8
0
 62
7
100
AcDbLine
 10
9.119685
 20
27.202798
 30
0.0
 11
9.190768
 21
27.124592
 31
0.0
  0
LINE
  5
555
100
AcDbEntity
  8
0
 62
7
100
AcDbLine
 10
9.190768
 20
27.124592
 30
0.0
 11
9.254175
 21
27.039821
 31
0.0
  0
LINE
  5
556
100
AcDbEntity
  8
0
 62
7
100
AcDbLine
 10
9.254175
 20
27.039821
 30
0.0
 11
9.309350
 21
26.949037
 31
0.0
  0
LINE
  5
557
100
AcDbEntity
  8
0
 62
7
100
AcDbLine
 10
9.309350
 20
26.949037
 30
0.0
 11
9.355738
 21
26.852798
 31
0.0
  0
LINE
  5
558
100
AcDbEntity
  8
0
 62
7
100
AcDbLine
 10
9.355738
 20
26.852798
 30
0.0
 11
9.392784
 21
26.751657
 31
0.0
  0
LINE
  5
559
100
AcDbEntity
  8
0
 62
7
100
AcDbLine
 10
9.392784
 20
26.751657
 30
0.0
 11
9.419933
 21
26.646170
 31
0.0
  0
LINE
  5
55a
100
AcDbEntity
  8
0
 62
7
100
AcDbLine
 10
9.419933
 20
26.646170
 30
0.0
 11
9.436629
 21
26.536892
 31
0.0
  0
LINE
  5
55b
100
AcDbEntity
  8
0
 62
7
100
AcDbLine
 10
9.436629
 20
26.536892
 30
0.0
 11
9.442318
 21
26.424378
 31
0.0
  0
LINE
  5
55c
100
AcDbEntity
  8
0
 62
7
100
AcDbLine
 10
9.442318
 20
26.424378
 30
0.0
 11
9.436629
 21
26.312107
 31
0.0
  0
LINE
  5
55d
100
AcDbEntity
  8
0
 62
7
100
AcDbLine
 10
9.436629
 20
26.312107
 30
0.0
 11
9.419933
 21
26.203042
 31
0.0
  0
LINE
  5
55e
100
AcDbEntity
  8
0
 62
7
100
AcDbLine
 10
9.419933
 20
26.203042
 30
0.0
 11
9.392784
 21
26.097739
 31
0.0
  0
LINE
  5
55f
100
AcDbEntity
  8
0
 62
7
100
AcDbLine
 10
9.392784
 20
26.097739
 30
0.0
 11
9.355738
 21
25.996756
 31
0.0
  0
LINE
  5
560
100
AcDbEntity
  8
0
 62
7
100
AcDbLine
 10
9.355738
 20
25.996756
 30
0.0
 11
9.309350
 21
25.900650
 31
0.0
  0
LINE
  5
561
100
AcDbEntity
  8
0
 62
7
100
AcDbLine
 10
9.309350
 20
25.900650
 30
0.0
 11
9.254175
 21
25.809978
 31
0.0
  0
LINE
  5
562
100
AcDbEntity
  8
0
 62
7
100
AcDbLine
 10
9.254175
 20
25.809978
 30
0.0
 11
9.190768
 21
25.725297
 31
0.0
  0
LINE
  5
563
100
AcDbEntity
  8
0
 62
7
100
AcDbLine
 10
9.190768
 20
25.725297
 30
0.0
 11
9.119685
 21
25.647165
 31
0.0
  0
LINE
  5
564
100
AcDbEntity
  8
0
 62
7
100
AcDbLine
 10
9.119685
 20
25.647165
 30
0.0
 11
9.041479
 21
25.576138
 31
0.0
  0
LINE
  5
565
100
AcDbEntity
  8
0
 62
7
100
AcDbLine
 10
9.041479
 20
25.576138
 30
0.0
 11
8.956707
 21
25.512774
 31
0.0
  0
LINE
  5
566
100
AcDbEntity
  8
0
 62
7
100
AcDbLine
 10
8.956707
 20
25.512774
 30
0.0
 11
8.865924
 21
25.457630
 31
0.0
  0
LINE
  5
567
100
AcDbEntity
  8
0
 62
7
100
AcDbLine
 10
8.865924
 20
25.457630
 30
0.0
 11
8.769684
 21
25.411262
 31
0.0
  0
LINE
  5
568
100
AcDbEntity
  8
0
 62
7
100
AcDbLine
 10
8.769684
 20
25.411262
 30
0.0
 11
8.668544
 21
25.374229
 31
0.0
  0
LINE
  5
569
100
AcDbEntity
  8
0
 62
7
100
AcDbLine
 10
8.668544
 20
25.374229
 30
0.0
 11
8.563057
 21
25.347086
 31
0.0
  0
LINE
  5
56a
100
AcDbEntity
  8
0
 62
7
100
AcDbLine
 10
8.563057
 20
25.347086
 30
0.0
 11
8.453779
 21
25.330392
 31
0.0
  0
LINE
  5
56b
100
AcDbEntity
  8
0
 62
7
100
AcDbLine
 10
8.453779
 20
25.330392
 30
0.0
 11
8.341265
 21
25.324704
 31
0.0
  0
LINE
  5
56c
100
AcDbEntity
  8
0
 62
7
100
AcDbLine
 10
8.341265
 20
25.324704
 30
0.0
 11
8.228994
 21
25.330392
 31
0.0
  0
LINE
  5
56d
100
AcDbEntity
  8
0
 62
7
100
AcDbLine
 10
8.228994
 20
25.330392
 30
0.0
 11
8.119929
 21
25.347086
 31
0.0
  0
LINE
  5
56e
100
AcDbEntity
  8
0
 62
7
100
AcDbLine
 10
8.119929
 20
25.347086
 30
0.0
 11
8.014626
 21
25.374229
 31
0.0
  0
LINE
  5
56f
100
AcDbEntity
  8
0
 62
7
100
AcDbLine
 10
8.014626
 20
25.374229
 30
0.0
 11
7.913643
 21
25.411262
 31
0.0
  0
LINE
  5
570
100
AcDbEntity
  8
0
 62
7
100
AcDbLine
 10
7.913643
 20
25.411262
 30
0.0
 11
7.817537
 21
25.457630
 31
0.0
  0
LINE
  5
571
100
AcDbEntity
  8
0
 62
7
100
AcDbLine
 10
7.817537
 20
25.457630
 30
0.0
 11
7.726865
 21
25.512774
 31
0.0
  0
LINE
  5
572
100
AcDbEntity
  8
0
 62
7
100
AcDbLine
 10
7.726865
 20
25.512774
 30
0.0
 11
7.642184
 21
25.576138
 31
0.0
  0
LINE
  5
573
100
AcDbEntity
  8
0
 62
7
100
AcDbLine
 10
7.642184
 20
25.576138
 30
0.0
 11
7.564052
 21
25.647165
 31
0.0
  0
LINE
  5
574
100
AcDbEntity
  8
0
 62
7
100
AcDbLine
 10
7.564052
 20
25.647165
 30
0.0
 11
7.493025
 21
25.725297
 31
0.0
  0
LINE
  5
575
100
AcDbEntity
  8
0
 62
7
100
AcDbLine
 10
7.493025
 20
25.725297
 30
0.0
 11
7.429661
 21
25.809978
 31
0.0
  0
LINE
  5
576
100
AcDbEntity
  8
0
 62
7
100
AcDbLine
 10
7.429661
 20
25.809978
 30
0.0
 11
7.374516
 21
25.900650
 31
0.0
  0
LINE
  5
577
100
AcDbEntity
  8
0
 62
7
100
AcDbLine
 10
7.374516
 20
25.900650
 30
0.0
 11
7.328149
 21
25.996756
 31
0.0
  0
LINE
  5
578
100
AcDbEntity
  8
0
 62
7
100
AcDbLine
 10
7.328149
 20
25.996756
 30
0.0
 11
7.291115
 21
26.097739
 31
0.0
  0
LINE
  5
579
100
AcDbEntity
  8
0
 62
7
100
AcDbLine
 10
7.291115
 20
26.097739
 30
0.0
 11
7.263973
 21
26.203042
 31
0.0
  0
LINE
  5
57a
100
AcDbEntity
  8
0
 62
7
100
AcDbLine
 10
7.263973
 20
26.203042
 30
0.0
 11
7.247279
 21
26.312107
 31
0.0
  0
LINE
  5
57b
100
AcDbEntity
  8
0
 62
7
100
AcDbLine
 10
7.247279
 20
26.312107
 30
0.0
 11
7.241591
 21
26.424378
 31
0.0
  0
LINE
  5
57c
100
AcDbEntity
  8
0
 62
7
100
AcDbLine
 10
7.241591
 20
26.424378
 30
0.0
 11
7.247279
 21
26.536892
 31
0.0
  0
LINE
  5
57d
100
AcDbEntity
  8
0
 62
7
100
AcDbLine
 10
7.247279
 20
26.536892
 30
0.0
 11
7.263973
 21
26.646170
 31
0.0
  0
LINE
  5
57e
100
AcDbEntity
  8
0
 62
7
100
AcDbLine
 10
7.263973
 20
26.646170
 30
0.0
 11
7.291115
 21
26.751657
 31
0.0
  0
LINE
  5
57f
100
AcDbEntity
  8
0
 62
7
100
AcDbLine
 10
7.291115
 20
26.751657
 30
0.0
 11
7.328149
 21
26.852798
 31
0.0
  0
LINE
  5
580
100
AcDbEntity
  8
0
 62
7
100
AcDbLine
 10
7.328149
 20
26.852798
 30
0.0
 11
7.374516
 21
26.949037
 31
0.0
  0
LINE
  5
581
100
AcDbEntity
  8
0
 62
7
100
AcDbLine
 10
7.374516
 20
26.949037
 30
0.0
 11
7.429661
 21
27.039821
 31
0.0
  0
LINE
  5
582
100
AcDbEntity
  8
0
 62
7
100
AcDbLine
 10
7.429661
 20
27.039821
 30
0.0
 11
7.493025
 21
27.124592
 31
0.0
  0
LINE
  5
583
100
AcDbEntity
  8
0
 62
7
100
AcDbLine
 10
7.493025
 20
27.124592
 30
0.0
 11
7.564052
 21
27.202798
 31
0.0
  0
LINE
  5
584
100
AcDbEntity
  8
0
 62
7
100
AcDbLine
 10
7.564052
 20
27.202798
 30
0.0
 11
7.642184
 21
27.273881
 31
0.0
  0
LINE
  5
585
100
AcDbEntity
  8
0
 62
7
100
AcDbLine
 10
7.642184
 20
27.273881
 30
0.0
 11
7.726865
 21
27.337288
 31
0.0
  0
LINE
  5
586
100
AcDbEntity
  8
0
 62
7
100
AcDbLine
 10
7.726865
 20
27.337288
 30
0.0
 11
7.817537
 21
27.392463
 31
0.0
  0
LINE
  5
587
100
AcDbEntity
  8
0
 62
7
100
AcDbLine
 10
7.817537
 20
27.392463
 30
0.0
 11
7.913643
 21
27.438851
 31
0.0
  0
LINE
  5
588
100
AcDbEntity
  8
0
 62
7
100
AcDbLine
 10
7.913643
 20
27.438851
 30
0.0
 11
8.014626
 21
27.475897
 31
0.0
  0
LINE
  5
589
100
AcDbEntity
  8
0
 62
7
100
AcDbLine
 10
8.014626
 20
27.475897
 30
0.0
 11
8.119929
 21
27.503046
 31
0.0
  0
LINE
  5
58a
100
AcDbEntity
  8
0
 62
7
100
AcDbLine
 10
8.119929
 20
27.503046
 30
0.0
 11
8.228994
 21
27.519742
 31
0.0
  0
LINE
  5
58b
100
AcDbEntity
  8
0
 62
7
100
AcDbLine
 10
8.228994
 20
27.519742
 30
0.0
 11
8.341265
 21
27.525431
 31
0.0
  0
LINE
  5
58c
100
AcDbEntity
  8
0
 62
7
100
AcDbLine
 10
8.341265
 20
27.525431
 30
0.0
 11
8.341265
 21
27.525431
 31
0.0
  0
LINE
  5
58d
100
AcDbEntity
  8
0
 62
7
100
AcDbLine
 10
301.367307
 20
27.525431
 30
0.0
 11
301.479578
 21
27.519742
 31
0.0
  0
LINE
  5
58e
100
AcDbEntity
  8
0
 62
7
100
AcDbLine
 10
301.479578
 20
27.519742
 30
0.0
 11
301.588643
 21
27.503046
 31
0.0
  0
LINE
  5
58f
100
AcDbEntity
  8
0
 62
7
100
AcDbLine
 10
301.588643
 20
27.503046
 30
0.0
 11
301.693946
 21
27.475897
 31
0.0
  0
LINE
  5
590
100
AcDbEntity
  8
0
 62
7
100
AcDbLine
 10
301.693946
 20
27.475897
 30
0.0
 11
301.794929
 21
27.438851
 31
0.0
  0
LINE
  5
591
100
AcDbEntity
  8
0
 62
7
100
AcDbLine
 10
301.794929
 20
27.438851
 30
0.0
 11
301.891035
 21
27.392463
 31
0.0
  0
LINE
  5
592
100
AcDbEntity
  8
0
 62
7
100
AcDbLine
 10
301.891035
 20
27.392463
 30
0.0
 11
301.981707
 21
27.337288
 31
0.0
  0
LINE
  5
593
100
AcDbEntity
  8
0
 62
7
100
AcDbLine
 10
301.981707
 20
27.337288
 30
0.0
 11
302.066388
 21
27.273881
 31
0.0
  0
LINE
  5
594
100
AcDbEntity
  8
0
 62
7
100
AcDbLine
 10
302.066388
 20
27.273881
 30
0.0
 11
302.144520
 21
27.202798
 31
0.0
  0
LINE
  5
595
100
AcDbEntity
  8
0
 62
7
100
AcDbLine
 10
302.144520
 20
27.202798
 30
0.0
 11
302.215547
 21
27.124592
 31
0.0
  0
LINE
  5
596
100
AcDbEntity
  8
0
 62
7
100
AcDbLine
 10
302.215547
 20
27.124592
 30
0.0
 11
302.278911
 21
27.039821
 31
0.0
  0
LINE
  5
597
100
AcDbEntity
  8
0
 62
7
100
AcDbLine
 10
302.278911
 20
27.039821
 30
0.0
 11
302.334056
 21
26.949037
 31
0.0
  0
LINE
  5
598
100
AcDbEntity
  8
0
 62
7
100
AcDbLine
 10
302.334056
 20
26.949037
 30
0.0
 11
302.380423
 21
26.852798
 31
0.0
  0
LINE
  5
599
100
AcDbEntity
  8
0
 62
7
100
AcDbLine
 10
302.380423
 20
26.852798
 30
0.0
 11
302.417457
 21
26.751657
 31
0.0
  0
LINE
  5
59a
100
AcDbEntity
  8
0
 62
7
100
AcDbLine
 10
302.417457
 20
26.751657
 30
0.0
 11
302.444599
 21
26.646170
 31
0.0
  0
LINE
  5
59b
100
AcDbEntity
  8
0
 62
7
100
AcDbLine
 10
302.444599
 20
26.646170
 30
0.0
 11
302.461293
 21
26.536892
 31
0.0
  0
LINE
  5
59c
100
AcDbEntity
  8
0
 62
7
100
AcDbLine
 10
302.461293
 20
26.536892
 30
0.0
 11
302.466981
 21
26.424378
 31
0.0
  0
LINE
  5
59d
100
AcDbEntity
  8
0
 62
7
100
AcDbLine
 10
302.466981
 20
26.424378
 30
0.0
 11
302.461293
 21
26.312107
 31
0.0
  0
LINE
  5
59e
100
AcDbEntity
  8
0
 62
7
100
AcDbLine
 10
302.461293
 20
26.312107
 30
0.0
 11
302.444599
 21
26.203042
 31
0.0
  0
LINE
  5
59f
100
AcDbEntity
  8
0
 62
7
100
AcDbLine
 10
302.444599
 20
26.203042
 30
0.0
 11
302.417457
 21
26.097739
 31
0.0
  0
LINE
  5
5a0
100
AcDbEntity
  8
0
 62
7
100
AcDbLine
 10
302.417457
 20
26.097739
 30
0.0
 11
302.380423
 21
25.996756
 31
0.0
  0
LINE
  5
5a1
100
AcDbEntity
  8
0
 62
7
100
AcDbLine
 10
302.380423
 20
25.996756
 30
0.0
 11
302.334056
 21
25.900650
 31
0.0
  0
LINE
  5
5a2
100
AcDbEntity
  8
0
 62
7
100
AcDbLine
 10
302.334056
 20
25.900650
 30
0.0
 11
302.278911
 21
25.809978
 31
0.0
  0
LINE
  5
5a3
100
AcDbEntity
  8
0
 62
7
100
AcDbLine
 10
302.278911
 20
25.809978
 30
0.0
 11
302.215547
 21
25.725297
 31
0.0
  0
LINE
  5
5a4
100
AcDbEntity
  8
0
 62
7
100
AcDbLine
 10
302.215547
 20
25.725297
 30
0.0
 11
302.144520
 21
25.647165
 31
0.0
  0
LINE
  5
5a5
100
AcDbEntity
  8
0
 62
7
100
AcDbLine
 10
302.144520
 20
25.647165
 30
0.0
 11
302.066388
 21
25.576138
 31
0.0
  0
LINE
  5
5a6
100
AcDbEntity
  8
0
 62
7
100
AcDbLine
 10
302.066388
 20
25.576138
 30
0.0
 11
301.981707
 21
25.512774
 31
0.0
  0
LINE
  5
5a7
100
AcDbEntity
  8
0
 62
7
100
AcDbLine
 10
301.981707
 20
25.512774
 30
0.0
 11
301.891035
 21
25.457630
 31
0.0
  0
LINE
  5
5a8
100
AcDbEntity
  8
0
 62
7
100
AcDbLine
 10
301.891035
 20
25.457630
 30
0.0
 11
301.794929
 21
25.411262
 31
0.0
  0
LINE
  5
5a9
100
AcDbEntity
  8
0
 62
7
100
AcDbLine
 10
301.794929
 20
25.411262
 30
0.0
 11
301.693946
 21
25.374229
 31
0.0
  0
LINE
  5
5aa
100
AcDbEntity
  8
0
 62
7
100
AcDbLine
 10
301.693946
 20
25.374229
 30
0.0
 11
301.588643
 21
25.347086
 31
0.0
  0
LINE
  5
5ab
100
AcDbEntity
  8
0
 62
7
100
AcDbLine
 10
301.588643
 20
25.347086
 30
0.0
 11
301.479578
 21
25.330392
 31
0.0
  0
LINE
  5
5ac
100
AcDbEntity
  8
0
 62
7
100
AcDbLine
 10
301.479578
 20
25.330392
 30
0.0
 11
301.367307
 21
25.324704
 31
0.0
  0
LINE
  5
5ad
100
AcDbEntity
  8
0
 62
7
100
AcDbLine
 10
301.367307
 20
25.324704
 30
0.0
 11
301.254809
 21
25.330392
 31
0.0
  0
LINE
  5
5ae
100
AcDbEntity
  8
0
 62
7
100
AcDbLine
 10
301.254809
 20
25.330392
 30
0.0
 11
301.145575
 21
25.347086
 31
0.0
  0
LINE
  5
5af
100
AcDbEntity
  8
0
 62
7
100
AcDbLine
 10
301.145575
 20
25.347086
 30
0.0
 11
301.040156
 21
25.374229
 31
0.0
  0
LINE
  5
5b0
100
AcDbEntity
  8
0
 62
7
100
AcDbLine
 10
301.040156
 20
25.374229
 30
0.0
 11
300.939103
 21
25.411262
 31
0.0
  0
LINE
  5
5b1
100
AcDbEntity
  8
0
 62
7
100
AcDbLine
 10
300.939103
 20
25.411262
 30
0.0
 11
300.842968
 21
25.457630
 31
0.0
  0
LINE
  5
5b2
100
AcDbEntity
  8
0
 62
7
100
AcDbLine
 10
300.842968
 20
25.457630
 30
0.0
 11
300.752301
 21
25.512774
 31
0.0
  0
LINE
  5
5b3
100
AcDbEntity
  8
0
 62
7
100
AcDbLine
 10
300.752301
 20
25.512774
 30
0.0
 11
300.667653
 21
25.576138
 31
0.0
  0
LINE
  5
5b4
100
AcDbEntity
  8
0
 62
7
100
AcDbLine
 10
300.667653
 20
25.576138
 30
0.0
 11
300.589577
 21
25.647165
 31
0.0
  0
LINE
  5
5b5
100
AcDbEntity
  8
0
 62
7
100
AcDbLine
 10
300.589577
 20
25.647165
 30
0.0
 11
300.518621
 21
25.725297
 31
0.0
  0
LINE
  5
5b6
100
AcDbEntity
  8
0
 62
7
100
AcDbLine
 10
300.518621
 20
25.725297
 30
0.0
 11
300.455339
 21
25.809978
 31
0.0
  0
LINE
  5
5b7
100
AcDbEntity
  8
0
 62
7
100
AcDbLine
 10
300.455339
 20
25.809978
 30
0.0
 11
300.400280
 21
25.900650
 31
0.0
  0
LINE
  5
5b8
100
AcDbEntity
  8
0
 62
7
100
AcDbLine
 10
300.400280
 20
25.900650
 30
0.0
 11
300.353997
 21
25.996756
 31
0.0
  0
LINE
  5
5b9
100
AcDbEntity
  8
0
 62
7
100
AcDbLine
 10
300.353997
 20
25.996756
 30
0.0
 11
300.317039
 21
26.097739
 31
0.0
  0
LINE
  5
5ba
100
AcDbEntity
  8
0
 62
7
100
AcDbLine
 10
300.317039
 20
26.097739
 30
0.0
 11
300.289958
 21
26.203042
 31
0.0
  0
LINE
  5
5bb
100
AcDbEntity
  8
0
 62
7
100
AcDbLine
 10
300.289958
 20
26.203042
 30
0.0
 11
300.273306
 21
26.312107
 31
0.0
  0
LINE
  5
5bc
100
AcDbEntity
  8
0
 62
7
100
AcDbLine
 10
300.273306
 20
26.312107
 30
0.0
 11
300.267632
 21
26.424378
 31
0.0
  0
LINE
  5
5bd
100
AcDbEntity
  8
0
 62
7
100
AcDbLine
 10
300.267632
 20
26.424378
 30
0.0
 11
300.273306
 21
26.536892
 31
0.0
  0
LINE
  5
5be
100
AcDbEntity
  8
0
 62
7
100
AcDbLine
 10
300.273306
 20
26.536892
 30
0.0
 11
300.289958
 21
26.646170
 31
0.0
  0
LINE
  5
5bf
100
AcDbEntity
  8
0
 62
7
100
AcDbLine
 10
300.289958
 20
26.646170
 30
0.0
 11
300.317039
 21
26.751657
 31
0.0
  0
LINE
  5
5c0
100
AcDbEntity
  8
0
 62
7
100
AcDbLine
 10
300.317039
 20
26.751657
 30
0.0
 11
300.353997
 21
26.852798
 31
0.0
  0
LINE
  5
5c1
100
AcDbEntity
  8
0
 62
7
100
AcDbLine
 10
300.353997
 20
26.852798
 30
0.0
 11
300.400280
 21
26.949037
 31
0.0
  0
LINE
  5
5c2
100
AcDbEntity
  8
0
 62
7
100
AcDbLine
 10
300.400280
 20
26.949037
 30
0.0
 11
300.455339
 21
27.039821
 31
0.0
  0
LINE
  5
5c3
100
AcDbEntity
  8
0
 62
7
100
AcDbLine
 10
300.455339
 20
27.039821
 30
0.0
 11
300.518621
 21
27.124592
 31
0.0
  0
LINE
  5
5c4
100
AcDbEntity
  8
0
 62
7
100
AcDbLine
 10
300.518621
 20
27.124592
 30
0.0
 11
300.589577
 21
27.202798
 31
0.0
  0
LINE
  5
5c5
100
AcDbEntity
  8
0
 62
7
100
AcDbLine
 10
300.589577
 20
27.202798
 30
0.0
 11
300.667653
 21
27.273881
 31
0.0
  0
LINE
  5
5c6
100
AcDbEntity
  8
0
 62
7
100
AcDbLine
 10
300.667653
 20
27.273881
 30
0.0
 11
300.752301
 21
27.337288
 31
0.0
  0
LINE
  5
5c7
100
AcDbEntity
  8
0
 62
7
100
AcDbLine
 10
300.752301
 20
27.337288
 30
0.0
 11
300.842968
 21
27.392463
 31
0.0
  0
LINE
  5
5c8
100
AcDbEntity
  8
0
 62
7
100
AcDbLine
 10
300.842968
 20
27.392463
 30
0.0
 11
300.939103
 21
27.438851
 31
0.0
  0
LINE
  5
5c9
100
AcDbEntity
  8
0
 62
7
100
AcDbLine
 10
300.939103
 20
27.438851
 30
0.0
 11
301.040156
 21
27.475897
 31
0.0
  0
LINE
  5
5ca
100
AcDbEntity
  8
0
 62
7
100
AcDbLine
 10
301.040156
 20
27.475897
 30
0.0
 11
301.145575
 21
27.503046
 31
0.0
  0
LINE
  5
5cb
100
AcDbEntity
  8
0
 62
7
100
AcDbLine
 10
301.145575
 20
27.503046
 30
0.0
 11
301.254809
 21
27.519742
 31
0.0
  0
LINE
  5
5cc
100
AcDbEntity
  8
0
 62
7
100
AcDbLine
 10
301.254809
 20
27.519742
 30
0.0
 11
301.367307
 21
27.525431
 31
0.0
  0
LINE
  5
5cd
100
AcDbEntity
  8
0
 62
7
100
AcDbLine
 10
301.367307
 20
27.525431
 30
0.0
 11
301.367307
 21
27.525431
 31
0.0
  0
LINE
  5
5ce
100
AcDbEntity
  8
0
 62
7
100
AcDbLine
 10
303.016819
 20
71.166523
 30
0.0
 11
303.129090
 21
71.160834
 31
0.0
  0
LINE
  5
5cf
100
AcDbEntity
  8
0
 62
7
100
AcDbLine
 10
303.129090
 20
71.160834
 30
0.0
 11
303.238155
 21
71.144140
 31
0.0
  0
LINE
  5
5d0
100
AcDbEntity
  8
0
 62
7
100
AcDbLine
 10
303.238155
 20
71.144140
 30
0.0
 11
303.343458
 21
71.116998
 31
0.0
  0
LINE
  5
5d1
100
AcDbEntity
  8
0
 62
7
100
AcDbLine
 10
303.343458
 20
71.116998
 30
0.0
 11
303.444441
 21
71.079965
 31
0.0
  0
LINE
  5
5d2
100
AcDbEntity
  8
0
 62
7
100
AcDbLine
 10
303.444441
 20
71.079965
 30
0.0
 11
303.540547
 21
71.033597
 31
0.0
  0
LINE
  5
5d3
100
AcDbEntity
  8
0
 62
7
100
AcDbLine
 10
303.540547
 20
71.033597
 30
0.0
 11
303.631219
 21
70.978453
 31
0.0
  0
LINE
  5
5d4
100
AcDbEntity
  8
0
 62
7
100
AcDbLine
 10
303.631219
 20
70.978453
 30
0.0
 11
303.715900
 21
70.915088
 31
0.0
  0
LINE
  5
5d5
100
AcDbEntity
  8
0
 62
7
100
AcDbLine
 10
303.715900
 20
70.915088
 30
0.0
 11
303.794032
 21
70.844062
 31
0.0
  0
LINE
  5
5d6
100
AcDbEntity
  8
0
 62
7
100
AcDbLine
 10
303.794032
 20
70.844062
 30
0.0
 11
303.865059
 21
70.765929
 31
0.0
  0
LINE
  5
5d7
100
AcDbEntity
  8
0
 62
7
100
AcDbLine
 10
303.865059
 20
70.765929
 30
0.0
 11
303.928423
 21
70.681249
 31
0.0
  0
LINE
  5
5d8
100
AcDbEntity
  8
0
 62
7
100
AcDbLine
 10
303.928423
 20
70.681249
 30
0.0
 11
303.983568
 21
70.590577
 31
0.0
  0
LINE
  5
5d9
100
AcDbEntity
  8
0
 62
7
100
AcDbLine
 10
303.983568
 20
70.590577
 30
0.0
 11
304.029935
 21
70.494471
 31
0.0
  0
LINE
  5
5da
100
AcDbEntity
  8
0
 62
7
100
AcDbLine
 10
304.029935
 20
70.494471
 30
0.0
 11
304.066968
 21
70.393488
 31
0.0
  0
LINE
  5
5db
100
AcDbEntity
  8
0
 62
7
100
AcDbLine
 10
304.066968
 20
70.393488
 30
0.0
 11
304.094111
 21
70.288185
 31
0.0
  0
LINE
  5
5dc
100
AcDbEntity
  8
0
 62
7
100
AcDbLine
 10
304.094111
 20
70.288185
 30
0.0
 11
304.110805
 21
70.179119
 31
0.0
  0
LINE
  5
5dd
100
AcDbEntity
  8
0
 62
7
100
AcDbLine
 10
304.110805
 20
70.179119
 30
0.0
 11
304.116493
 21
70.066848
 31
0.0
  0
LINE
  5
5de
100
AcDbEntity
  8
0
 62
7
100
AcDbLine
 10
304.116493
 20
70.066848
 30
0.0
 11
304.110805
 21
69.954334
 31
0.0
  0
LINE
  5
5df
100
AcDbEntity
  8
0
 62
7
100
AcDbLine
 10
304.110805
 20
69.954334
 30
0.0
 11
304.094111
 21
69.845057
 31
0.0
  0
LINE
  5
5e0
100
AcDbEntity
  8
0
 62
7
100
AcDbLine
 10
304.094111
 20
69.845057
 30
0.0
 11
304.066968
 21
69.739570
 31
0.0
  0
LINE
  5
5e1
100
AcDbEntity
  8
0
 62
7
100
AcDbLine
 10
304.066968
 20
69.739570
 30
0.0
 11
304.029935
 21
69.638429
 31
0.0
  0
LINE
  5
5e2
100
AcDbEntity
  8
0
 62
7
100
AcDbLine
 10
304.029935
 20
69.638429
 30
0.0
 11
303.983568
 21
69.542189
 31
0.0
  0
LINE
  5
5e3
100
AcDbEntity
  8
0
 62
7
100
AcDbLine
 10
303.983568
 20
69.542189
 30
0.0
 11
303.928423
 21
69.451406
 31
0.0
  0
LINE
  5
5e4
100
AcDbEntity
  8
0
 62
7
100
AcDbLine
 10
303.928423
 20
69.451406
 30
0.0
 11
303.865059
 21
69.366634
 31
0.0
  0
LINE
  5
5e5
100
AcDbEntity
  8
0
 62
7
100
AcDbLine
 10
303.865059
 20
69.366634
 30
0.0
 11
303.794032
 21
69.288429
 31
0.0
  0
LINE
  5
5e6
100
AcDbEntity
  8
0
 62
7
100
AcDbLine
 10
303.794032
 20
69.288429
 30
0.0
 11
303.715900
 21
69.217345
 31
0.0
  0
LINE
  5
5e7
100
AcDbEntity
  8
0
 62
7
100
AcDbLine
 10
303.715900
 20
69.217345
 30
0.0
 11
303.631219
 21
69.153938
 31
0.0
  0
LINE
  5
5e8
100
AcDbEntity
  8
0
 62
7
100
AcDbLine
 10
303.631219
 20
69.153938
 30
0.0
 11
303.540547
 21
69.098763
 31
0.0
  0
LINE
  5
5e9
100
AcDbEntity
  8
0
 62
7
100
AcDbLine
 10
303.540547
 20
69.098763
 30
0.0
 11
303.444441
 21
69.052375
 31
0.0
  0
LINE
  5
5ea
100
AcDbEntity
  8
0
 62
7
100
AcDbLine
 10
303.444441
 20
69.052375
 30
0.0
 11
303.343458
 21
69.015329
 31
0.0
  0
LINE
  5
5eb
100
AcDbEntity
  8
0
 62
7
100
AcDbLine
 10
303.343458
 20
69.015329
 30
0.0
 11
303.238155
 21
68.988181
 31
0.0
  0
LINE
  5
5ec
100
AcDbEntity
  8
0
 62
7
100
AcDbLine
 10
303.238155
 20
68.988181
 30
0.0
 11
303.129090
 21
68.971484
 31
0.0
  0
LINE
  5
5ed
100
AcDbEntity
  8
0
 62
7
100
AcDbLine
 10
303.129090
 20
68.971484
 30
0.0
 11
303.016819
 21
68.965796
 31
0.0
  0
LINE
  5
5ee
100
AcDbEntity
  8
0
 62
7
100
AcDbLine
 10
303.016819
 20
68.965796
 30
0.0
 11
302.904305
 21
68.971484
 31
0.0
  0
LINE
  5
5ef
100
AcDbEntity
  8
0
 62
7
100
AcDbLine
 10
302.904305
 20
68.971484
 30
0.0
 11
302.795027
 21
68.988181
 31
0.0
  0
LINE
  5
5f0
100
AcDbEntity
  8
0
 62
7
100
AcDbLine
 10
302.795027
 20
68.988181
 30
0.0
 11
302.689540
 21
69.015329
 31
0.0
  0
LINE
  5
5f1
100
AcDbEntity
  8
0
 62
7
100
AcDbLine
 10
302.689540
 20
69.015329
 30
0.0
 11
302.588399
 21
69.052375
 31
0.0
  0
LINE
  5
5f2
100
AcDbEntity
  8
0
 62
7
100
AcDbLine
 10
302.588399
 20
69.052375
 30
0.0
 11
302.492160
 21
69.098763
 31
0.0
  0
LINE
  5
5f3
100
AcDbEntity
  8
0
 62
7
100
AcDbLine
 10
302.492160
 20
69.098763
 30
0.0
 11
302.401376
 21
69.153938
 31
0.0
  0
LINE
  5
5f4
100
AcDbEntity
  8
0
 62
7
100
AcDbLine
 10
302.401376
 20
69.153938
 30
0.0
 11
302.316605
 21
69.217345
 31
0.0
  0
LINE
  5
5f5
100
AcDbEntity
  8
0
 62
7
100
AcDbLine
 10
302.316605
 20
69.217345
 30
0.0
 11
302.238399
 21
69.288429
 31
0.0
  0
LINE
  5
5f6
100
AcDbEntity
  8
0
 62
7
100
AcDbLine
 10
302.238399
 20
69.288429
 30
0.0
 11
302.167316
 21
69.366634
 31
0.0
  0
LINE
  5
5f7
100
AcDbEntity
  8
0
 62
7
100
AcDbLine
 10
302.167316
 20
69.366634
 30
0.0
 11
302.103909
 21
69.451406
 31
0.0
  0
LINE
  5
5f8
100
AcDbEntity
  8
0
 62
7
100
AcDbLine
 10
302.103909
 20
69.451406
 30
0.0
 11
302.048734
 21
69.542189
 31
0.0
  0
LINE
  5
5f9
100
AcDbEntity
  8
0
 62
7
100
AcDbLine
 10
302.048734
 20
69.542189
 30
0.0
 11
302.002346
 21
69.638429
 31
0.0
  0
LINE
  5
5fa
100
AcDbEntity
  8
0
 62
7
100
AcDbLine
 10
302.002346
 20
69.638429
 30
0.0
 11
301.965300
 21
69.739570
 31
0.0
  0
LINE
  5
5fb
100
AcDbEntity
  8
0
 62
7
100
AcDbLine
 10
301.965300
 20
69.739570
 30
0.0
 11
301.938151
 21
69.845057
 31
0.0
  0
LINE
  5
5fc
100
AcDbEntity
  8
0
 62
7
100
AcDbLine
 10
301.938151
 20
69.845057
 30
0.0
 11
301.921455
 21
69.954334
 31
0.0
  0
LINE
  5
5fd
100
AcDbEntity
  8
0
 62
7
100
AcDbLine
 10
301.921455
 20
69.954334
 30
0.0
 11
301.915766
 21
70.066848
 31
0.0
  0
LINE
  5
5fe
100
AcDbEntity
  8
0
 62
7
100
AcDbLine
 10
301.915766
 20
70.066848
 30
0.0
 11
301.921455
 21
70.179119
 31
0.0
  0
LINE
  5
5ff
100
AcDbEntity
  8
0
 62
7
100
AcDbLine
 10
301.921455
 20
70.179119
 30
0.0
 11
301.938151
 21
70.288185
 31
0.0
  0
LINE
  5
600
100
AcDbEntity
  8
0
 62
7
100
AcDbLine
 10
301.938151
 20
70.288185
 30
0.0
 11
301.965300
 21
70.393488
 31
0.0
  0
LINE
  5
601
100
AcDbEntity
  8
0
 62
7
100
AcDbLine
 10
301.965300
 20
70.393488
 30
0.0
 11
302.002346
 21
70.494471
 31
0.0
  0
LINE
  5
602
100
AcDbEntity
  8
0
 62
7
100
AcDbLine
 10
302.002346
 20
70.494471
 30
0.0
 11
302.048734
 21
70.590577
 31
0.0
  0
LINE
  5
603
100
AcDbEntity
  8
0
 62
7
100
AcDbLine
 10
302.048734
 20
70.590577
 30
0.0
 11
302.103909
 21
70.681249
 31
0.0
  0
LINE
  5
604
100
AcDbEntity
  8
0
 62
7
100
AcDbLine
 10
302.103909
 20
70.681249
 30
0.0
 11
302.167316
 21
70.765929
 31
0.0
  0
LINE
  5
605
100
AcDbEntity
  8
0
 62
7
100
AcDbLine
 10
302.167316
 20
70.765929
 30
0.0
 11
302.238399
 21
70.844062
 31
0.0
  0
LINE
  5
606
100
AcDbEntity
  8
0
 62
7
100
AcDbLine
 10
302.238399
 20
70.844062
 30
0.0
 11
302.316605
 21
70.915088
 31
0.0
  0
LINE
  5
607
100
AcDbEntity
  8
0
 62
7
100
AcDbLine
 10
302.316605
 20
70.915088
 30
0.0
 11
302.401376
 21
70.978453
 31
0.0
  0
LINE
  5
608
100
AcDbEntity
  8
0
 62
7
100
AcDbLine
 10
302.401376
 20
70.978453
 30
0.0
 11
302.492160
 21
71.033597
 31
0.0
  0
LINE
  5
609
100
AcDbEntity
  8
0
 62
7
100
AcDbLine
 10
302.492160
 20
71.033597
 30
0.0
 11
302.588399
 21
71.079965
 31
0.0
  0
LINE
  5
60a
100
AcDbEntity
  8
0
 62
7
100
AcDbLine
 10
302.588399
 20
71.079965
 30
0.0
 11
302.689540
 21
71.116998
 31
0.0
  0
LINE
  5
60b
100
AcDbEntity
  8
0
 62
7
100
AcDbLine
 10
302.689540
 20
71.116998
 30
0.0
 11
302.795027
 21
71.144140
 31
0.0
  0
LINE
  5
60c
100
AcDbEntity
  8
0
 62
7
100
AcDbLine
 10
302.795027
 20
71.144140
 30
0.0
 11
302.904305
 21
71.160834
 31
0.0
  0
LINE
  5
60d
100
AcDbEntity
  8
0
 62
7
100
AcDbLine
 10
302.904305
 20
71.160834
 30
0.0
 11
303.016819
 21
71.166523
 31
0.0
  0
LINE
  5
60e
100
AcDbEntity
  8
0
 62
7
100
AcDbLine
 10
303.016819
 20
71.166523
 30
0.0
 11
303.016819
 21
71.166523
 31
0.0
  0
LINE
  5
60f
100
AcDbEntity
  8
0
 62
7
100
AcDbLine
 10
303.016819
 20
51.941512
 30
0.0
 11
303.129090
 21
51.935838
 31
0.0
  0
LINE
  5
610
100
AcDbEntity
  8
0
 62
7
100
AcDbLine
 10
303.129090
 20
51.935838
 30
0.0
 11
303.238155
 21
51.919186
 31
0.0
  0
LINE
  5
611
100
AcDbEntity
  8
0
 62
7
100
AcDbLine
 10
303.238155
 20
51.919186
 30
0.0
 11
303.343458
 21
51.892105
 31
0.0
  0
LINE
  5
612
100
AcDbEntity
  8
0
 62
7
100
AcDbLine
 10
303.343458
 20
51.892105
 30
0.0
 11
303.444441
 21
51.855147
 31
0.0
  0
LINE
  5
613
100
AcDbEntity
  8
0
 62
7
100
AcDbLine
 10
303.444441
 20
51.855147
 30
0.0
 11
303.540547
 21
51.808864
 31
0.0
  0
LINE
  5
614
100
AcDbEntity
  8
0
 62
7
100
AcDbLine
 10
303.540547
 20
51.808864
 30
0.0
 11
303.631219
 21
51.753805
 31
0.0
  0
LINE
  5
615
100
AcDbEntity
  8
0
 62
7
100
AcDbLine
 10
303.631219
 20
51.753805
 30
0.0
 11
303.715900
 21
51.690523
 31
0.0
  0
LINE
  5
616
100
AcDbEntity
  8
0
 62
7
100
AcDbLine
 10
303.715900
 20
51.690523
 30
0.0
 11
303.794032
 21
51.619568
 31
0.0
  0
LINE
  5
617
100
AcDbEntity
  8
0
 62
7
100
AcDbLine
 10
303.794032
 20
51.619568
 30
0.0
 11
303.865059
 21
51.541491
 31
0.0
  0
LINE
  5
618
100
AcDbEntity
  8
0
 62
7
100
AcDbLine
 10
303.865059
 20
51.541491
 30
0.0
 11
303.928423
 21
51.456843
 31
0.0
  0
LINE
  5
619
100
AcDbEntity
  8
0
 62
7
100
AcDbLine
 10
303.928423
 20
51.456843
 30
0.0
 11
303.983568
 21
51.366176
 31
0.0
  0
LINE
  5
61a
100
AcDbEntity
  8
0
 62
7
100
AcDbLine
 10
303.983568
 20
51.366176
 30
0.0
 11
304.029935
 21
51.270041
 31
0.0
  0
LINE
  5
61b
100
AcDbEntity
  8
0
 62
7
100
AcDbLine
 10
304.029935
 20
51.270041
 30
0.0
 11
304.066968
 21
51.168988
 31
0.0
  0
LINE
  5
61c
100
AcDbEntity
  8
0
 62
7
100
AcDbLine
 10
304.066968
 20
51.168988
 30
0.0
 11
304.094111
 21
51.063569
 31
0.0
  0
LINE
  5
61d
100
AcDbEntity
  8
0
 62
7
100
AcDbLine
 10
304.094111
 20
51.063569
 30
0.0
 11
304.110805
 21
50.954335
 31
0.0
  0
LINE
  5
61e
100
AcDbEntity
  8
0
 62
7
100
AcDbLine
 10
304.110805
 20
50.954335
 30
0.0
 11
304.116493
 21
50.841837
 31
0.0
  0
LINE
  5
61f
100
AcDbEntity
  8
0
 62
7
100
AcDbLine
 10
304.116493
 20
50.841837
 30
0.0
 11
304.110805
 21
50.729566
 31
0.0
  0
LINE
  5
620
100
AcDbEntity
  8
0
 62
7
100
AcDbLine
 10
304.110805
 20
50.729566
 30
0.0
 11
304.094111
 21
50.620501
 31
0.0
  0
LINE
  5
621
100
AcDbEntity
  8
0
 62
7
100
AcDbLine
 10
304.094111
 20
50.620501
 30
0.0
 11
304.066968
 21
50.515198
 31
0.0
  0
LINE
  5
622
100
AcDbEntity
  8
0
 62
7
100
AcDbLine
 10
304.066968
 20
50.515198
 30
0.0
 11
304.029935
 21
50.414215
 31
0.0
  0
LINE
  5
623
100
AcDbEntity
  8
0
 62
7
100
AcDbLine
 10
304.029935
 20
50.414215
 30
0.0
 11
303.983568
 21
50.318109
 31
0.0
  0
LINE
  5
624
100
AcDbEntity
  8
0
 62
7
100
AcDbLine
 10
303.983568
 20
50.318109
 30
0.0
 11
303.928423
 21
50.227437
 31
0.0
  0
LINE
  5
625
100
AcDbEntity
  8
0
 62
7
100
AcDbLine
 10
303.928423
 20
50.227437
 30
0.0
 11
303.865059
 21
50.142756
 31
0.0
  0
LINE
  5
626
100
AcDbEntity
  8
0
 62
7
100
AcDbLine
 10
303.865059
 20
50.142756
 30
0.0
 11
303.794032
 21
50.064624
 31
0.0
  0
LINE
  5
627
100
AcDbEntity
  8
0
 62
7
100
AcDbLine
 10
303.794032
 20
50.064624
 30
0.0
 11
303.715900
 21
49.993597
 31
0.0
  0
LINE
  5
628
100
AcDbEntity
  8
0
 62
7
100
AcDbLine
 10
303.715900
 20
49.993597
 30
0.0
 11
303.631219
 21
49.930233
 31
0.0
  0
LINE
  5
629
100
AcDbEntity
  8
0
 62
7
100
AcDbLine
 10
303.631219
 20
49.930233
 30
0.0
 11
303.540547
 21
49.875088
 31
0.0
  0
LINE
  5
62a
100
AcDbEntity
  8
0
 62
7
100
AcDbLine
 10
303.540547
 20
49.875088
 30
0.0
 11
303.444441
 21
49.828721
 31
0.0
  0
LINE
  5
62b
100
AcDbEntity
  8
0
 62
7
100
AcDbLine
 10
303.444441
 20
49.828721
 30
0.0
 11
303.343458
 21
49.791687
 31
0.0
  0
LINE
  5
62c
100
AcDbEntity
  8
0
 62
7
100
AcDbLine
 10
303.343458
 20
49.791687
 30
0.0
 11
303.238155
 21
49.764545
 31
0.0
  0
LINE
  5
62d
100
AcDbEntity
  8
0
 62
7
100
AcDbLine
 10
303.238155
 20
49.764545
 30
0.0
 11
303.129090
 21
49.747851
 31
0.0
  0
LINE
  5
62e
100
AcDbEntity
  8
0
 62
7
100
AcDbLine
 10
303.129090
 20
49.747851
 30
0.0
 11
303.016819
 21
49.742163
 31
0.0
  0
LINE
  5
62f
100
AcDbEntity
  8
0
 62
7
100
AcDbLine
 10
303.016819
 20
49.742163
 30
0.0
 11
302.904305
 21
49.747851
 31
0.0
  0
LINE
  5
630
100
AcDbEntity
  8
0
 62
7
100
AcDbLine
 10
302.904305
 20
49.747851
 30
0.0
 11
302.795027
 21
49.764545
 31
0.0
  0
LINE
  5
631
100
AcDbEntity
  8
0
 62
7
100
AcDbLine
 10
302.795027
 20
49.764545
 30
0.0
 11
302.689540
 21
49.791687
 31
0.0
  0
LINE
  5
632
100
AcDbEntity
  8
0
 62
7
100
AcDbLine
 10
302.689540
 20
49.791687
 30
0.0
 11
302.588399
 21
49.828721
 31
0.0
  0
LINE
  5
633
100
AcDbEntity
  8
0
 62
7
100
AcDbLine
 10
302.588399
 20
49.828721
 30
0.0
 11
302.492160
 21
49.875088
 31
0.0
  0
LINE
  5
634
100
AcDbEntity
  8
0
 62
7
100
AcDbLine
 10
302.492160
 20
49.875088
 30
0.0
 11
302.401376
 21
49.930233
 31
0.0
  0
LINE
  5
635
100
AcDbEntity
  8
0
 62
7
100
AcDbLine
 10
302.401376
 20
49.930233
 30
0.0
 11
302.316605
 21
49.993597
 31
0.0
  0
LINE
  5
636
100
AcDbEntity
  8
0
 62
7
100
AcDbLine
 10
302.316605
 20
49.993597
 30
0.0
 11
302.238399
 21
50.064624
 31
0.0
  0
LINE
  5
637
100
AcDbEntity
  8
0
 62
7
100
AcDbLine
 10
302.238399
 20
50.064624
 30
0.0
 11
302.167316
 21
50.142756
 31
0.0
  0
LINE
  5
638
100
AcDbEntity
  8
0
 62
7
100
AcDbLine
 10
302.167316
 20
50.142756
 30
0.0
 11
302.103909
 21
50.227437
 31
0.0
  0
LINE
  5
639
100
AcDbEntity
  8
0
 62
7
100
AcDbLine
 10
302.103909
 20
50.227437
 30
0.0
 11
302.048734
 21
50.318109
 31
0.0
  0
LINE
  5
63a
100
AcDbEntity
  8
0
 62
7
100
AcDbLine
 10
302.048734
 20
50.318109
 30
0.0
 11
302.002346
 21
50.414215
 31
0.0
  0
LINE
  5
63b
100
AcDbEntity
  8
0
 62
7
100
AcDbLine
 10
302.002346
 20
50.414215
 30
0.0
 11
301.965300
 21
50.515198
 31
0.0
  0
LINE
  5
63c
100
AcDbEntity
  8
0
 62
7
100
AcDbLine
 10
301.965300
 20
50.515198
 30
0.0
 11
301.938151
 21
50.620501
 31
0.0
  0
LINE
  5
63d
100
AcDbEntity
  8
0
 62
7
100
AcDbLine
 10
301.938151
 20
50.620501
 30
0.0
 11
301.921455
 21
50.729566
 31
0.0
  0
LINE
  5
63e
100
AcDbEntity
  8
0
 62
7
100
AcDbLine
 10
301.921455
 20
50.729566
 30
0.0
 11
301.915766
 21
50.841837
 31
0.0
  0
LINE
  5
63f
100
AcDbEntity
  8
0
 62
7
100
AcDbLine
 10
301.915766
 20
50.841837
 30
0.0
 11
301.921455
 21
50.954335
 31
0.0
  0
LINE
  5
640
100
AcDbEntity
  8
0
 62
7
100
AcDbLine
 10
301.921455
 20
50.954335
 30
0.0
 11
301.938151
 21
51.063569
 31
0.0
  0
LINE
  5
641
100
AcDbEntity
  8
0
 62
7
100
AcDbLine
 10
301.938151
 20
51.063569
 30
0.0
 11
301.965300
 21
51.168988
 31
0.0
  0
LINE
  5
642
100
AcDbEntity
  8
0
 62
7
100
AcDbLine
 10
301.965300
 20
51.168988
 30
0.0
 11
302.002346
 21
51.270041
 31
0.0
  0
LINE
  5
643
100
AcDbEntity
  8
0
 62
7
100
AcDbLine
 10
302.002346
 20
51.270041
 30
0.0
 11
302.048734
 21
51.366176
 31
0.0
  0
LINE
  5
644
100
AcDbEntity
  8
0
 62
7
100
AcDbLine
 10
302.048734
 20
51.366176
 30
0.0
 11
302.103909
 21
51.456843
 31
0.0
  0
LINE
  5
645
100
AcDbEntity
  8
0
 62
7
100
AcDbLine
 10
302.103909
 20
51.456843
 30
0.0
 11
302.167316
 21
51.541491
 31
0.0
  0
LINE
  5
646
100
AcDbEntity
  8
0
 62
7
100
AcDbLine
 10
302.167316
 20
51.541491
 30
0.0
 11
302.238399
 21
51.619568
 31
0.0
  0
LINE
  5
647
100
AcDbEntity
  8
0
 62
7
100
AcDbLine
 10
302.238399
 20
51.619568
 30
0.0
 11
302.316605
 21
51.690523
 31
0.0
  0
LINE
  5
648
100
AcDbEntity
  8
0
 62
7
100
AcDbLine
 10
302.316605
 20
51.690523
 30
0.0
 11
302.401376
 21
51.753805
 31
0.0
  0
LINE
  5
649
100
AcDbEntity
  8
0
 62
7
100
AcDbLine
 10
302.401376
 20
51.753805
 30
0.0
 11
302.492160
 21
51.808864
 31
0.0
  0
LINE
  5
64a
100
AcDbEntity
  8
0
 62
7
100
AcDbLine
 10
302.492160
 20
51.808864
 30
0.0
 11
302.588399
 21
51.855147
 31
0.0
  0
LINE
  5
64b
100
AcDbEntity
  8
0
 62
7
100
AcDbLine
 10
302.588399
 20
51.855147
 30
0.0
 11
302.689540
 21
51.892105
 31
0.0
  0
LINE
  5
64c
100
AcDbEntity
  8
0
 62
7
100
AcDbLine
 10
302.689540
 20
51.892105
 30
0.0
 11
302.795027
 21
51.919186
 31
0.0
  0
LINE
  5
64d
100
AcDbEntity
  8
0
 62
7
100
AcDbLine
 10
302.795027
 20
51.919186
 30
0.0
 11
302.904305
 21
51.935838
 31
0.0
  0
LINE
  5
64e
100
AcDbEntity
  8
0
 62
7
100
AcDbLine
 10
302.904305
 20
51.935838
 30
0.0
 11
303.016819
 21
51.941512
 31
0.0
  0
LINE
  5
64f
100
AcDbEntity
  8
0
 62
7
100
AcDbLine
 10
303.016819
 20
51.941512
 30
0.0
 11
303.016819
 21
51.941512
 31
0.0
  0
ENDSEC
  0
SECTION
  2
OBJECTS
  0
DICTIONARY
  5
C
330
0
100
AcDbDictionary
  3
ACAD_GROUP
350
D
  3
ACAD_MLINESTYLE
350
17
  0
DICTIONARY
  5
D
330
C
100
AcDbDictionary
  0
DICTIONARY
  5
1A
330
C
100
AcDbDictionary
  0
DICTIONARY
  5
17
330
C
100
AcDbDictionary
  3
STANDARD
350
18
  0
DICTIONARY
  5
19
330
C
100
AcDbDictionary
  0
ENDSEC
  0
EOF
